<ttFont>
    <TTGlyph name="A" xMin="0" yMin="0" xMax="500" yMax="655">
      <contour>
        <pt x="0" y="0" on="1"/>
        <pt x="159" y="655" on="1"/>
        <pt x="346" y="655" on="1"/>
        <pt x="500" y="0" on="1"/>
        <pt x="390" y="0" on="1"/>
        <pt x="359" y="125" on="1"/>
        <pt x="137" y="125" on="1"/>
        <pt x="108" y="0" on="1"/>
      </contour>
      <contour>
        <pt x="337" y="218" on="1"/>
        <pt x="263" y="562" on="1"/>
        <pt x="241" y="562" on="1"/>
        <pt x="158" y="218" on="1"/>
      </contour>
    </TTGlyph>
    <TTGlyph name="AE" xMin="0" yMin="0" xMax="481" yMax="655">
      <contour>
        <pt x="0" y="0" on="1"/>
        <pt x="154" y="655" on="1"/>
        <pt x="478" y="655" on="1"/>
        <pt x="478" y="561" on="1"/>
        <pt x="357" y="561" on="1"/>
        <pt x="357" y="379" on="1"/>
        <pt x="451" y="379" on="1"/>
        <pt x="451" y="289" on="1"/>
        <pt x="357" y="289" on="1"/>
        <pt x="357" y="94" on="1"/>
        <pt x="481" y="94" on="1"/>
        <pt x="481" y="0" on="1"/>
        <pt x="253" y="0" on="1"/>
        <pt x="253" y="125" on="1"/>
        <pt x="137" y="125" on="1"/>
        <pt x="108" y="0" on="1"/>
      </contour>
      <contour>
        <pt x="253" y="218" on="1"/>
        <pt x="253" y="562" on="1"/>
        <pt x="236" y="562" on="1"/>
        <pt x="158" y="218" on="1"/>
      </contour>
    </TTGlyph>
    <TTGlyph name="AEacute" xMin="6" yMin="0" xMax="481" yMax="900">
      <contour>
        <pt x="481" y="0" on="1"/>
        <pt x="249" y="0" on="1"/>
        <pt x="249" y="126" on="1"/>
        <pt x="135" y="126" on="1"/>
        <pt x="100" y="0" on="1"/>
        <pt x="6" y="0" on="1"/>
        <pt x="196" y="655" on="1"/>
        <pt x="478" y="655" on="1"/>
        <pt x="478" y="579" on="1"/>
        <pt x="349" y="579" on="1"/>
        <pt x="349" y="382" on="1"/>
        <pt x="451" y="382" on="1"/>
        <pt x="451" y="284" on="1"/>
        <pt x="349" y="284" on="1"/>
        <pt x="349" y="76" on="1"/>
        <pt x="481" y="76" on="1"/>
      </contour>
      <contour>
        <pt x="166" y="812" on="1"/>
        <pt x="371" y="900" on="1"/>
        <pt x="405" y="818" on="1"/>
        <pt x="199" y="734" on="1"/>
      </contour>
      <contour>
        <pt x="164" y="211" on="1"/>
        <pt x="259" y="211" on="1"/>
        <pt x="259" y="563" on="1"/>
      </contour>
    </TTGlyph>
    <TTGlyph name="Aacute" xMin="0" yMin="0" xMax="500" yMax="900">
      <contour>
        <pt x="156" y="812" on="1"/>
        <pt x="361" y="900" on="1"/>
        <pt x="395" y="818" on="1"/>
        <pt x="189" y="734" on="1"/>
      </contour>
      <contour>
        <pt x="0" y="0" on="1"/>
        <pt x="159" y="655" on="1"/>
        <pt x="346" y="655" on="1"/>
        <pt x="500" y="0" on="1"/>
        <pt x="390" y="0" on="1"/>
        <pt x="359" y="125" on="1"/>
        <pt x="137" y="125" on="1"/>
        <pt x="108" y="0" on="1"/>
      </contour>
      <contour>
        <pt x="337" y="218" on="1"/>
        <pt x="263" y="562" on="1"/>
        <pt x="241" y="562" on="1"/>
        <pt x="158" y="218" on="1"/>
      </contour>
    </TTGlyph>
    <TTGlyph name="Abreve" xMin="0" yMin="0" xMax="500" yMax="875">
      <contour>
        <pt x="385" y="754" on="0"/>
        <pt x="115" y="754" on="0"/>
        <pt x="107" y="875" on="1"/>
        <pt x="181" y="875" on="1"/>
        <pt x="186" y="845" on="0"/>
        <pt x="220" y="821" on="0"/>
        <pt x="280" y="821" on="0"/>
        <pt x="314" y="845" on="0"/>
        <pt x="319" y="875" on="1"/>
        <pt x="393" y="875" on="1"/>
      </contour>
      <contour>
        <pt x="0" y="0" on="1"/>
        <pt x="159" y="655" on="1"/>
        <pt x="346" y="655" on="1"/>
        <pt x="500" y="0" on="1"/>
        <pt x="390" y="0" on="1"/>
        <pt x="359" y="125" on="1"/>
        <pt x="137" y="125" on="1"/>
        <pt x="108" y="0" on="1"/>
      </contour>
      <contour>
        <pt x="337" y="218" on="1"/>
        <pt x="263" y="562" on="1"/>
        <pt x="241" y="562" on="1"/>
        <pt x="158" y="218" on="1"/>
      </contour>
    </TTGlyph>
    <TTGlyph name="Acircumflex" xMin="0" yMin="0" xMax="500" yMax="882">
      <contour>
        <pt x="87" y="742" on="1"/>
        <pt x="213" y="882" on="1"/>
        <pt x="293" y="882" on="1"/>
        <pt x="419" y="742" on="1"/>
        <pt x="321" y="742" on="1"/>
        <pt x="253" y="822" on="1"/>
        <pt x="185" y="742" on="1"/>
      </contour>
      <contour>
        <pt x="0" y="0" on="1"/>
        <pt x="159" y="655" on="1"/>
        <pt x="346" y="655" on="1"/>
        <pt x="500" y="0" on="1"/>
        <pt x="390" y="0" on="1"/>
        <pt x="359" y="125" on="1"/>
        <pt x="137" y="125" on="1"/>
        <pt x="108" y="0" on="1"/>
      </contour>
      <contour>
        <pt x="337" y="218" on="1"/>
        <pt x="263" y="562" on="1"/>
        <pt x="241" y="562" on="1"/>
        <pt x="158" y="218" on="1"/>
      </contour>
    </TTGlyph>
    <TTGlyph name="Adieresis" xMin="0" yMin="0" xMax="500" yMax="869">
      <contour>
        <pt x="97" y="789" on="0"/>
        <pt x="97" y="835" on="0"/>
        <pt x="130" y="869" on="0"/>
        <pt x="176" y="869" on="0"/>
        <pt x="209" y="835" on="0"/>
        <pt x="209" y="789" on="0"/>
        <pt x="177" y="755" on="0"/>
        <pt x="129" y="755" on="0"/>
      </contour>
      <contour>
        <pt x="290" y="789" on="0"/>
        <pt x="290" y="835" on="0"/>
        <pt x="322" y="869" on="0"/>
        <pt x="370" y="869" on="0"/>
        <pt x="402" y="835" on="0"/>
        <pt x="402" y="789" on="0"/>
        <pt x="370" y="755" on="0"/>
        <pt x="322" y="755" on="0"/>
      </contour>
      <contour>
        <pt x="0" y="0" on="1"/>
        <pt x="159" y="655" on="1"/>
        <pt x="346" y="655" on="1"/>
        <pt x="500" y="0" on="1"/>
        <pt x="390" y="0" on="1"/>
        <pt x="359" y="125" on="1"/>
        <pt x="137" y="125" on="1"/>
        <pt x="108" y="0" on="1"/>
      </contour>
      <contour>
        <pt x="337" y="218" on="1"/>
        <pt x="263" y="562" on="1"/>
        <pt x="241" y="562" on="1"/>
        <pt x="158" y="218" on="1"/>
      </contour>
    </TTGlyph>
    <TTGlyph name="Agrave" xMin="0" yMin="0" xMax="500" yMax="901">
      <contour>
        <pt x="156" y="901" on="1"/>
        <pt x="359" y="813" on="1"/>
        <pt x="327" y="735" on="1"/>
        <pt x="120" y="819" on="1"/>
      </contour>
      <contour>
        <pt x="0" y="0" on="1"/>
        <pt x="159" y="655" on="1"/>
        <pt x="346" y="655" on="1"/>
        <pt x="500" y="0" on="1"/>
        <pt x="390" y="0" on="1"/>
        <pt x="359" y="125" on="1"/>
        <pt x="137" y="125" on="1"/>
        <pt x="108" y="0" on="1"/>
      </contour>
      <contour>
        <pt x="337" y="218" on="1"/>
        <pt x="263" y="562" on="1"/>
        <pt x="241" y="562" on="1"/>
        <pt x="158" y="218" on="1"/>
      </contour>
    </TTGlyph>
    <TTGlyph name="Amacron" xMin="0" yMin="0" xMax="500" yMax="853">
      <contour>
        <pt x="84" y="853" on="1"/>
        <pt x="417" y="853" on="1"/>
        <pt x="417" y="771" on="1"/>
        <pt x="84" y="771" on="1"/>
      </contour>
      <contour>
        <pt x="0" y="0" on="1"/>
        <pt x="159" y="655" on="1"/>
        <pt x="346" y="655" on="1"/>
        <pt x="500" y="0" on="1"/>
        <pt x="390" y="0" on="1"/>
        <pt x="359" y="125" on="1"/>
        <pt x="137" y="125" on="1"/>
        <pt x="108" y="0" on="1"/>
      </contour>
      <contour>
        <pt x="337" y="218" on="1"/>
        <pt x="263" y="562" on="1"/>
        <pt x="241" y="562" on="1"/>
        <pt x="158" y="218" on="1"/>
      </contour>
    </TTGlyph>
    <TTGlyph name="Aogonek" xMin="0" yMin="-270" xMax="502" yMax="655">
      <contour>
        <pt x="305" y="-135" on="1"/>
        <pt x="305" y="-91" on="0"/>
        <pt x="374" y="-6" on="0"/>
        <pt x="465" y="47" on="1"/>
        <pt x="502" y="0" on="1"/>
        <pt x="437" y="-49" on="0"/>
        <pt x="392" y="-108" on="0"/>
        <pt x="392" y="-160" on="0"/>
        <pt x="416" y="-192" on="0"/>
        <pt x="468" y="-192" on="0"/>
        <pt x="491" y="-188" on="1"/>
        <pt x="501" y="-263" on="1"/>
        <pt x="457" y="-270" on="0"/>
        <pt x="430" y="-270" on="1"/>
        <pt x="380" y="-270" on="0"/>
        <pt x="305" y="-203" on="0"/>
      </contour>
      <contour>
        <pt x="0" y="0" on="1"/>
        <pt x="159" y="655" on="1"/>
        <pt x="346" y="655" on="1"/>
        <pt x="500" y="0" on="1"/>
        <pt x="390" y="0" on="1"/>
        <pt x="359" y="125" on="1"/>
        <pt x="137" y="125" on="1"/>
        <pt x="108" y="0" on="1"/>
      </contour>
      <contour>
        <pt x="337" y="218" on="1"/>
        <pt x="263" y="562" on="1"/>
        <pt x="241" y="562" on="1"/>
        <pt x="158" y="218" on="1"/>
      </contour>
    </TTGlyph>
    <TTGlyph name="Aring" xMin="0" yMin="0" xMax="500" yMax="929">
      <contour>
        <pt x="303" y="929" on="0"/>
        <pt x="369" y="869" on="0"/>
        <pt x="369" y="768" on="0"/>
        <pt x="303" y="708" on="0"/>
        <pt x="196" y="708" on="0"/>
        <pt x="130" y="768" on="0"/>
        <pt x="130" y="869" on="0"/>
        <pt x="196" y="929" on="0"/>
      </contour>
      <contour>
        <pt x="199" y="863" on="0"/>
        <pt x="199" y="773" on="0"/>
        <pt x="299" y="773" on="0"/>
        <pt x="299" y="863" on="0"/>
      </contour>
      <contour>
        <pt x="0" y="0" on="1"/>
        <pt x="159" y="655" on="1"/>
        <pt x="346" y="655" on="1"/>
        <pt x="500" y="0" on="1"/>
        <pt x="390" y="0" on="1"/>
        <pt x="359" y="125" on="1"/>
        <pt x="137" y="125" on="1"/>
        <pt x="108" y="0" on="1"/>
      </contour>
      <contour>
        <pt x="337" y="218" on="1"/>
        <pt x="263" y="562" on="1"/>
        <pt x="241" y="562" on="1"/>
        <pt x="158" y="218" on="1"/>
      </contour>
    </TTGlyph>
    <TTGlyph name="Aringacute" xMin="0" yMin="0" xMax="500" yMax="929">
      <contour>
        <pt x="314" y="734" on="1"/>
        <pt x="365" y="928" on="1"/>
        <pt x="454" y="903" on="1"/>
        <pt x="387" y="712" on="1"/>
      </contour>
      <contour>
        <pt x="233" y="929" on="0"/>
        <pt x="299" y="869" on="0"/>
        <pt x="299" y="768" on="0"/>
        <pt x="233" y="708" on="0"/>
        <pt x="126" y="708" on="0"/>
        <pt x="60" y="768" on="0"/>
        <pt x="60" y="869" on="0"/>
        <pt x="126" y="929" on="0"/>
      </contour>
      <contour>
        <pt x="129" y="863" on="0"/>
        <pt x="129" y="773" on="0"/>
        <pt x="229" y="773" on="0"/>
        <pt x="229" y="863" on="0"/>
      </contour>
      <contour>
        <pt x="0" y="0" on="1"/>
        <pt x="159" y="655" on="1"/>
        <pt x="346" y="655" on="1"/>
        <pt x="500" y="0" on="1"/>
        <pt x="390" y="0" on="1"/>
        <pt x="359" y="125" on="1"/>
        <pt x="137" y="125" on="1"/>
        <pt x="108" y="0" on="1"/>
      </contour>
      <contour>
        <pt x="337" y="218" on="1"/>
        <pt x="263" y="562" on="1"/>
        <pt x="241" y="562" on="1"/>
        <pt x="158" y="218" on="1"/>
      </contour>
    </TTGlyph>
    <TTGlyph name="Atilde" xMin="0" yMin="0" xMax="500" yMax="885">
      <contour>
        <pt x="373" y="870" on="1"/>
        <pt x="414" y="814" on="1"/>
        <pt x="365" y="761" on="0"/>
        <pt x="318" y="761" on="1"/>
        <pt x="283" y="761" on="0"/>
        <pt x="245" y="782" on="1"/>
        <pt x="208" y="804" on="0"/>
        <pt x="164" y="804" on="0"/>
        <pt x="131" y="773" on="1"/>
        <pt x="86" y="828" on="1"/>
        <pt x="145" y="885" on="0"/>
        <pt x="192" y="885" on="1"/>
        <pt x="225" y="885" on="0"/>
        <pt x="264" y="864" on="1"/>
        <pt x="304" y="843" on="0"/>
        <pt x="344" y="843" on="0"/>
      </contour>
      <contour>
        <pt x="0" y="0" on="1"/>
        <pt x="159" y="655" on="1"/>
        <pt x="346" y="655" on="1"/>
        <pt x="500" y="0" on="1"/>
        <pt x="390" y="0" on="1"/>
        <pt x="359" y="125" on="1"/>
        <pt x="137" y="125" on="1"/>
        <pt x="108" y="0" on="1"/>
      </contour>
      <contour>
        <pt x="337" y="218" on="1"/>
        <pt x="263" y="562" on="1"/>
        <pt x="241" y="562" on="1"/>
        <pt x="158" y="218" on="1"/>
      </contour>
    </TTGlyph>
    <TTGlyph name="B" xMin="45" yMin="0" xMax="480" yMax="655">
      <contour>
        <pt x="45" y="0" on="1"/>
        <pt x="45" y="655" on="1"/>
        <pt x="246" y="655" on="1"/>
        <pt x="464" y="655" on="0"/>
        <pt x="464" y="485" on="1"/>
        <pt x="464" y="430" on="0"/>
        <pt x="408" y="350" on="0"/>
        <pt x="360" y="340" on="1"/>
        <pt x="416" y="332" on="0"/>
        <pt x="479" y="251" on="0"/>
        <pt x="480" y="186" on="1"/>
        <pt x="480" y="0" on="0"/>
        <pt x="237" y="0" on="1"/>
      </contour>
      <contour>
        <pt x="318" y="90" on="0"/>
        <pt x="374" y="148" on="0"/>
        <pt x="374" y="245" on="0"/>
        <pt x="313" y="289" on="0"/>
        <pt x="247" y="289" on="1"/>
        <pt x="149" y="289" on="1"/>
        <pt x="149" y="90" on="1"/>
        <pt x="252" y="90" on="1"/>
      </contour>
      <contour>
        <pt x="362" y="477" on="1"/>
        <pt x="362" y="565" on="0"/>
        <pt x="253" y="565" on="1"/>
        <pt x="149" y="565" on="1"/>
        <pt x="149" y="379" on="1"/>
        <pt x="245" y="379" on="1"/>
        <pt x="362" y="379" on="0"/>
      </contour>
    </TTGlyph>
    <TTGlyph name="C" xMin="40" yMin="-10" xMax="464" yMax="665">
      <contour>
        <pt x="446" y="107" on="1"/>
        <pt x="464" y="20" on="1"/>
        <pt x="362" y="-10" on="0"/>
        <pt x="223" y="-10" on="0"/>
        <pt x="138" y="22" on="0"/>
        <pt x="106" y="60" on="1"/>
        <pt x="40" y="137" on="0"/>
        <pt x="40" y="334" on="1"/>
        <pt x="40" y="665" on="0"/>
        <pt x="282" y="665" on="1"/>
        <pt x="366" y="665" on="0"/>
        <pt x="451" y="636" on="1"/>
        <pt x="429" y="551" on="1"/>
        <pt x="351" y="572" on="0"/>
        <pt x="216" y="572" on="0"/>
        <pt x="146" y="468" on="0"/>
        <pt x="146" y="195" on="0"/>
        <pt x="203" y="82" on="0"/>
        <pt x="358" y="82" on="0"/>
      </contour>
    </TTGlyph>
    <TTGlyph name="C.calt" xMin="40" yMin="-10" xMax="464" yMax="665">
      <contour>
        <pt x="40" y="334" on="1"/>
        <pt x="40" y="665" on="0"/>
        <pt x="282" y="665" on="1"/>
        <pt x="358" y="665" on="0"/>
        <pt x="438" y="641" on="1"/>
        <pt x="464" y="633" on="1"/>
        <pt x="464" y="488" on="1"/>
        <pt x="360" y="488" on="1"/>
        <pt x="360" y="562" on="1"/>
        <pt x="324" y="570" on="0"/>
        <pt x="292" y="572" on="1"/>
        <pt x="282" y="572" on="1"/>
        <pt x="214" y="572" on="0"/>
        <pt x="146" y="466" on="0"/>
        <pt x="146" y="334" on="1"/>
        <pt x="148" y="178" on="0"/>
        <pt x="182" y="128" on="1"/>
        <pt x="200" y="102" on="0"/>
        <pt x="246" y="83" on="0"/>
        <pt x="282" y="83" on="1"/>
        <pt x="364" y="81" on="0"/>
        <pt x="446" y="107" on="1"/>
        <pt x="464" y="20" on="1"/>
        <pt x="431" y="9" on="0"/>
        <pt x="318" y="-10" on="0"/>
        <pt x="281" y="-10" on="1"/>
        <pt x="159" y="-12" on="0"/>
        <pt x="40" y="149" on="0"/>
      </contour>
    </TTGlyph>
    <TTGlyph name="C.calt.sc" xMin="65" yMin="-7" xMax="433" yMax="505">
      <contour>
        <pt x="409" y="107" on="1"/>
        <pt x="433" y="15" on="1"/>
        <pt x="352" y="-7" on="0"/>
        <pt x="277" y="-7" on="1"/>
        <pt x="158" y="-7" on="0"/>
        <pt x="65" y="125" on="0"/>
        <pt x="65" y="378" on="0"/>
        <pt x="176" y="505" on="0"/>
        <pt x="277" y="505" on="1"/>
        <pt x="331" y="505" on="0"/>
        <pt x="419" y="483" on="1"/>
        <pt x="395" y="398" on="1"/>
        <pt x="331" y="414" on="0"/>
        <pt x="222" y="414" on="0"/>
        <pt x="169" y="345" on="0"/>
        <pt x="166" y="253" on="1"/>
        <pt x="169" y="130" on="0"/>
        <pt x="217" y="102" on="1"/>
        <pt x="240" y="88" on="0"/>
        <pt x="342" y="88" on="0"/>
      </contour>
    </TTGlyph>
    <TTGlyph name="Cacute" xMin="40" yMin="-10" xMax="464" yMax="900">
      <contour>
        <pt x="156" y="812" on="1"/>
        <pt x="361" y="900" on="1"/>
        <pt x="395" y="818" on="1"/>
        <pt x="189" y="734" on="1"/>
      </contour>
      <contour>
        <pt x="446" y="107" on="1"/>
        <pt x="464" y="20" on="1"/>
        <pt x="362" y="-10" on="0"/>
        <pt x="223" y="-10" on="0"/>
        <pt x="138" y="22" on="0"/>
        <pt x="106" y="60" on="1"/>
        <pt x="40" y="137" on="0"/>
        <pt x="40" y="334" on="1"/>
        <pt x="40" y="665" on="0"/>
        <pt x="282" y="665" on="1"/>
        <pt x="366" y="665" on="0"/>
        <pt x="451" y="636" on="1"/>
        <pt x="429" y="551" on="1"/>
        <pt x="351" y="572" on="0"/>
        <pt x="216" y="572" on="0"/>
        <pt x="146" y="468" on="0"/>
        <pt x="146" y="195" on="0"/>
        <pt x="203" y="82" on="0"/>
        <pt x="358" y="82" on="0"/>
      </contour>
    </TTGlyph>
    <TTGlyph name="Ccaron" xMin="40" yMin="-10" xMax="464" yMax="882">
      <contour>
        <pt x="434" y="882" on="1"/>
        <pt x="308" y="752" on="1"/>
        <pt x="228" y="752" on="1"/>
        <pt x="102" y="882" on="1"/>
        <pt x="200" y="882" on="1"/>
        <pt x="268" y="812" on="1"/>
        <pt x="336" y="882" on="1"/>
      </contour>
      <contour>
        <pt x="446" y="107" on="1"/>
        <pt x="464" y="20" on="1"/>
        <pt x="362" y="-10" on="0"/>
        <pt x="223" y="-10" on="0"/>
        <pt x="138" y="22" on="0"/>
        <pt x="106" y="60" on="1"/>
        <pt x="40" y="137" on="0"/>
        <pt x="40" y="334" on="1"/>
        <pt x="40" y="665" on="0"/>
        <pt x="282" y="665" on="1"/>
        <pt x="366" y="665" on="0"/>
        <pt x="451" y="636" on="1"/>
        <pt x="429" y="551" on="1"/>
        <pt x="351" y="572" on="0"/>
        <pt x="216" y="572" on="0"/>
        <pt x="146" y="468" on="0"/>
        <pt x="146" y="195" on="0"/>
        <pt x="203" y="82" on="0"/>
        <pt x="358" y="82" on="0"/>
      </contour>
    </TTGlyph>
    <TTGlyph name="Ccedilla" xMin="40" yMin="-257" xMax="464" yMax="665">
      <contour>
        <pt x="310" y="-42" on="0"/>
        <pt x="373" y="-97" on="0"/>
        <pt x="373" y="-200" on="0"/>
        <pt x="313" y="-257" on="0"/>
        <pt x="261" y="-257" on="1"/>
        <pt x="240" y="-257" on="0"/>
        <pt x="200" y="-250" on="1"/>
        <pt x="208" y="-187" on="1"/>
        <pt x="243" y="-190" on="0"/>
        <pt x="254" y="-190" on="1"/>
        <pt x="299" y="-190" on="0"/>
        <pt x="299" y="-148" on="1"/>
        <pt x="299" y="-126" on="0"/>
        <pt x="278" y="-108" on="0"/>
        <pt x="254" y="-108" on="1"/>
        <pt x="212" y="-111" on="1"/>
        <pt x="203" y="-50" on="1"/>
        <pt x="235" y="-42" on="0"/>
        <pt x="261" y="-42" on="1"/>
      </contour>
      <contour>
        <pt x="446" y="107" on="1"/>
        <pt x="464" y="20" on="1"/>
        <pt x="362" y="-10" on="0"/>
        <pt x="223" y="-10" on="0"/>
        <pt x="138" y="22" on="0"/>
        <pt x="106" y="60" on="1"/>
        <pt x="40" y="137" on="0"/>
        <pt x="40" y="334" on="1"/>
        <pt x="40" y="665" on="0"/>
        <pt x="282" y="665" on="1"/>
        <pt x="366" y="665" on="0"/>
        <pt x="451" y="636" on="1"/>
        <pt x="429" y="551" on="1"/>
        <pt x="351" y="572" on="0"/>
        <pt x="216" y="572" on="0"/>
        <pt x="146" y="468" on="0"/>
        <pt x="146" y="195" on="0"/>
        <pt x="203" y="82" on="0"/>
        <pt x="358" y="82" on="0"/>
      </contour>
    </TTGlyph>
    <TTGlyph name="Ccircumflex" xMin="40" yMin="-10" xMax="464" yMax="882">
      <contour>
        <pt x="102" y="752" on="1"/>
        <pt x="228" y="882" on="1"/>
        <pt x="308" y="882" on="1"/>
        <pt x="434" y="752" on="1"/>
        <pt x="336" y="752" on="1"/>
        <pt x="268" y="822" on="1"/>
        <pt x="200" y="752" on="1"/>
      </contour>
      <contour>
        <pt x="446" y="107" on="1"/>
        <pt x="464" y="20" on="1"/>
        <pt x="362" y="-10" on="0"/>
        <pt x="223" y="-10" on="0"/>
        <pt x="138" y="22" on="0"/>
        <pt x="106" y="60" on="1"/>
        <pt x="40" y="137" on="0"/>
        <pt x="40" y="334" on="1"/>
        <pt x="40" y="665" on="0"/>
        <pt x="282" y="665" on="1"/>
        <pt x="366" y="665" on="0"/>
        <pt x="451" y="636" on="1"/>
        <pt x="429" y="551" on="1"/>
        <pt x="351" y="572" on="0"/>
        <pt x="216" y="572" on="0"/>
        <pt x="146" y="468" on="0"/>
        <pt x="146" y="195" on="0"/>
        <pt x="203" y="82" on="0"/>
        <pt x="358" y="82" on="0"/>
      </contour>
    </TTGlyph>
    <TTGlyph name="Cdotaccent" xMin="40" yMin="-10" xMax="464" yMax="869">
      <contour>
        <pt x="224" y="789" on="0"/>
        <pt x="224" y="835" on="0"/>
        <pt x="256" y="869" on="0"/>
        <pt x="304" y="869" on="0"/>
        <pt x="336" y="835" on="0"/>
        <pt x="336" y="789" on="0"/>
        <pt x="304" y="755" on="0"/>
        <pt x="256" y="755" on="0"/>
      </contour>
      <contour>
        <pt x="446" y="107" on="1"/>
        <pt x="464" y="20" on="1"/>
        <pt x="362" y="-10" on="0"/>
        <pt x="223" y="-10" on="0"/>
        <pt x="138" y="22" on="0"/>
        <pt x="106" y="60" on="1"/>
        <pt x="40" y="137" on="0"/>
        <pt x="40" y="334" on="1"/>
        <pt x="40" y="665" on="0"/>
        <pt x="282" y="665" on="1"/>
        <pt x="366" y="665" on="0"/>
        <pt x="451" y="636" on="1"/>
        <pt x="429" y="551" on="1"/>
        <pt x="351" y="572" on="0"/>
        <pt x="216" y="572" on="0"/>
        <pt x="146" y="468" on="0"/>
        <pt x="146" y="195" on="0"/>
        <pt x="203" y="82" on="0"/>
        <pt x="358" y="82" on="0"/>
      </contour>
    </TTGlyph>
    <TTGlyph name="D" xMin="38" yMin="0" xMax="466" yMax="655">
      <contour>
        <pt x="38" y="0" on="1"/>
        <pt x="38" y="655" on="1"/>
        <pt x="194" y="655" on="1"/>
        <pt x="273" y="655" on="0"/>
        <pt x="370" y="629" on="0"/>
        <pt x="438" y="557" on="0"/>
        <pt x="466" y="430" on="0"/>
        <pt x="466" y="197" on="0"/>
        <pt x="409" y="55" on="0"/>
        <pt x="295" y="0" on="0"/>
        <pt x="192" y="0" on="1"/>
      </contour>
      <contour>
        <pt x="343" y="159" on="0"/>
        <pt x="360" y="250" on="0"/>
        <pt x="360" y="407" on="0"/>
        <pt x="346" y="497" on="0"/>
        <pt x="301" y="550" on="0"/>
        <pt x="235" y="565" on="0"/>
        <pt x="174" y="565" on="1"/>
        <pt x="142" y="565" on="1"/>
        <pt x="142" y="90" on="1"/>
        <pt x="172" y="90" on="1"/>
        <pt x="230" y="90" on="0"/>
        <pt x="297" y="107" on="0"/>
      </contour>
    </TTGlyph>
    <TTGlyph name="Dcaron" xMin="38" yMin="0" xMax="466" yMax="882">
      <contour>
        <pt x="394" y="882" on="1"/>
        <pt x="268" y="752" on="1"/>
        <pt x="188" y="752" on="1"/>
        <pt x="62" y="882" on="1"/>
        <pt x="160" y="882" on="1"/>
        <pt x="228" y="812" on="1"/>
        <pt x="296" y="882" on="1"/>
      </contour>
      <contour>
        <pt x="38" y="0" on="1"/>
        <pt x="38" y="655" on="1"/>
        <pt x="194" y="655" on="1"/>
        <pt x="273" y="655" on="0"/>
        <pt x="370" y="629" on="0"/>
        <pt x="438" y="557" on="0"/>
        <pt x="466" y="430" on="0"/>
        <pt x="466" y="197" on="0"/>
        <pt x="409" y="55" on="0"/>
        <pt x="295" y="0" on="0"/>
        <pt x="192" y="0" on="1"/>
      </contour>
      <contour>
        <pt x="343" y="159" on="0"/>
        <pt x="360" y="250" on="0"/>
        <pt x="360" y="407" on="0"/>
        <pt x="346" y="497" on="0"/>
        <pt x="301" y="550" on="0"/>
        <pt x="235" y="565" on="0"/>
        <pt x="174" y="565" on="1"/>
        <pt x="142" y="565" on="1"/>
        <pt x="142" y="90" on="1"/>
        <pt x="172" y="90" on="1"/>
        <pt x="230" y="90" on="0"/>
        <pt x="297" y="107" on="0"/>
      </contour>
    </TTGlyph>
    <TTGlyph name="Dcroat" xMin="0" yMin="0" xMax="471" yMax="655">
      <contour>
        <pt x="44" y="0" on="1"/>
        <pt x="44" y="294" on="1"/>
        <pt x="0" y="294" on="1"/>
        <pt x="0" y="378" on="1"/>
        <pt x="44" y="378" on="1"/>
        <pt x="44" y="655" on="1"/>
        <pt x="199" y="655" on="1"/>
        <pt x="274" y="655" on="0"/>
        <pt x="369" y="629" on="0"/>
        <pt x="440" y="557" on="0"/>
        <pt x="471" y="428" on="0"/>
        <pt x="471" y="227" on="0"/>
        <pt x="437" y="96" on="0"/>
        <pt x="362" y="26" on="0"/>
        <pt x="268" y="0" on="0"/>
        <pt x="197" y="0" on="1"/>
      </contour>
      <contour>
        <pt x="179" y="565" on="1"/>
        <pt x="143" y="565" on="1"/>
        <pt x="143" y="378" on="1"/>
        <pt x="266" y="378" on="1"/>
        <pt x="266" y="294" on="1"/>
        <pt x="143" y="294" on="1"/>
        <pt x="143" y="90" on="1"/>
        <pt x="177" y="90" on="1"/>
        <pt x="183" y="90" on="0"/>
        <pt x="218" y="89" on="0"/>
        <pt x="243" y="90" on="0"/>
        <pt x="286" y="99" on="0"/>
        <pt x="310" y="115" on="0"/>
        <pt x="342" y="150" on="0"/>
        <pt x="350" y="174" on="1"/>
        <pt x="370" y="235" on="0"/>
        <pt x="370" y="370" on="0"/>
        <pt x="362" y="441" on="0"/>
        <pt x="347" y="490" on="0"/>
        <pt x="326" y="526" on="0"/>
        <pt x="301" y="547" on="0"/>
        <pt x="286" y="554" on="1"/>
        <pt x="272" y="560" on="0"/>
        <pt x="257" y="562" on="1"/>
        <pt x="218" y="566" on="0"/>
        <pt x="184" y="565" on="0"/>
      </contour>
    </TTGlyph>
    <TTGlyph name="Delta" xMin="2" yMin="0" xMax="497" yMax="654">
      <contour>
        <pt x="497" y="0" on="1"/>
        <pt x="2" y="0" on="1"/>
        <pt x="192" y="654" on="1"/>
        <pt x="318" y="654" on="1"/>
      </contour>
      <contour>
        <pt x="129" y="93" on="1"/>
        <pt x="371" y="93" on="1"/>
        <pt x="254" y="552" on="1"/>
      </contour>
    </TTGlyph>
    <TTGlyph name="Delta.alt" xMin="27" yMin="0" xMax="471" yMax="655">
      <contour>
        <pt x="43" y="0" on="1"/>
        <pt x="27" y="78" on="1"/>
        <pt x="150" y="655" on="1"/>
        <pt x="344" y="655" on="1"/>
        <pt x="471" y="80" on="1"/>
        <pt x="457" y="0" on="1"/>
      </contour>
      <contour>
        <pt x="235" y="562" on="1"/>
        <pt x="136" y="92" on="1"/>
        <pt x="359" y="92" on="1"/>
        <pt x="256" y="562" on="1"/>
      </contour>
    </TTGlyph>
    <TTGlyph name="E" xMin="60" yMin="0" xMax="446" yMax="655">
      <contour>
        <pt x="60" y="0" on="1"/>
        <pt x="60" y="655" on="1"/>
        <pt x="443" y="655" on="1"/>
        <pt x="443" y="561" on="1"/>
        <pt x="164" y="561" on="1"/>
        <pt x="164" y="379" on="1"/>
        <pt x="416" y="379" on="1"/>
        <pt x="416" y="289" on="1"/>
        <pt x="164" y="289" on="1"/>
        <pt x="164" y="94" on="1"/>
        <pt x="446" y="94" on="1"/>
        <pt x="446" y="0" on="1"/>
      </contour>
    </TTGlyph>
    <TTGlyph name="Eacute" xMin="60" yMin="0" xMax="446" yMax="900">
      <contour>
        <pt x="140" y="812" on="1"/>
        <pt x="345" y="900" on="1"/>
        <pt x="379" y="818" on="1"/>
        <pt x="173" y="734" on="1"/>
      </contour>
      <contour>
        <pt x="60" y="0" on="1"/>
        <pt x="60" y="655" on="1"/>
        <pt x="443" y="655" on="1"/>
        <pt x="443" y="561" on="1"/>
        <pt x="164" y="561" on="1"/>
        <pt x="164" y="379" on="1"/>
        <pt x="416" y="379" on="1"/>
        <pt x="416" y="289" on="1"/>
        <pt x="164" y="289" on="1"/>
        <pt x="164" y="94" on="1"/>
        <pt x="446" y="94" on="1"/>
        <pt x="446" y="0" on="1"/>
      </contour>
    </TTGlyph>
    <TTGlyph name="Ebreve" xMin="60" yMin="0" xMax="446" yMax="875">
      <contour>
        <pt x="385" y="754" on="0"/>
        <pt x="115" y="754" on="0"/>
        <pt x="107" y="875" on="1"/>
        <pt x="181" y="875" on="1"/>
        <pt x="186" y="845" on="0"/>
        <pt x="220" y="821" on="0"/>
        <pt x="280" y="821" on="0"/>
        <pt x="314" y="845" on="0"/>
        <pt x="319" y="875" on="1"/>
        <pt x="393" y="875" on="1"/>
      </contour>
      <contour>
        <pt x="60" y="0" on="1"/>
        <pt x="60" y="655" on="1"/>
        <pt x="443" y="655" on="1"/>
        <pt x="443" y="561" on="1"/>
        <pt x="164" y="561" on="1"/>
        <pt x="164" y="379" on="1"/>
        <pt x="416" y="379" on="1"/>
        <pt x="416" y="289" on="1"/>
        <pt x="164" y="289" on="1"/>
        <pt x="164" y="94" on="1"/>
        <pt x="446" y="94" on="1"/>
        <pt x="446" y="0" on="1"/>
      </contour>
    </TTGlyph>
    <TTGlyph name="Ecaron" xMin="60" yMin="0" xMax="446" yMax="882">
      <contour>
        <pt x="419" y="882" on="1"/>
        <pt x="293" y="752" on="1"/>
        <pt x="213" y="752" on="1"/>
        <pt x="87" y="882" on="1"/>
        <pt x="185" y="882" on="1"/>
        <pt x="253" y="812" on="1"/>
        <pt x="321" y="882" on="1"/>
      </contour>
      <contour>
        <pt x="60" y="0" on="1"/>
        <pt x="60" y="655" on="1"/>
        <pt x="443" y="655" on="1"/>
        <pt x="443" y="561" on="1"/>
        <pt x="164" y="561" on="1"/>
        <pt x="164" y="379" on="1"/>
        <pt x="416" y="379" on="1"/>
        <pt x="416" y="289" on="1"/>
        <pt x="164" y="289" on="1"/>
        <pt x="164" y="94" on="1"/>
        <pt x="446" y="94" on="1"/>
        <pt x="446" y="0" on="1"/>
      </contour>
    </TTGlyph>
    <TTGlyph name="Ecircumflex" xMin="60" yMin="0" xMax="446" yMax="882">
      <contour>
        <pt x="87" y="752" on="1"/>
        <pt x="213" y="882" on="1"/>
        <pt x="293" y="882" on="1"/>
        <pt x="419" y="752" on="1"/>
        <pt x="321" y="752" on="1"/>
        <pt x="253" y="822" on="1"/>
        <pt x="185" y="752" on="1"/>
      </contour>
      <contour>
        <pt x="60" y="0" on="1"/>
        <pt x="60" y="655" on="1"/>
        <pt x="443" y="655" on="1"/>
        <pt x="443" y="561" on="1"/>
        <pt x="164" y="561" on="1"/>
        <pt x="164" y="379" on="1"/>
        <pt x="416" y="379" on="1"/>
        <pt x="416" y="289" on="1"/>
        <pt x="164" y="289" on="1"/>
        <pt x="164" y="94" on="1"/>
        <pt x="446" y="94" on="1"/>
        <pt x="446" y="0" on="1"/>
      </contour>
    </TTGlyph>
    <TTGlyph name="Edieresis" xMin="60" yMin="0" xMax="446" yMax="869">
      <contour>
        <pt x="97" y="789" on="0"/>
        <pt x="97" y="835" on="0"/>
        <pt x="130" y="869" on="0"/>
        <pt x="176" y="869" on="0"/>
        <pt x="209" y="835" on="0"/>
        <pt x="209" y="789" on="0"/>
        <pt x="177" y="755" on="0"/>
        <pt x="129" y="755" on="0"/>
      </contour>
      <contour>
        <pt x="290" y="789" on="0"/>
        <pt x="290" y="835" on="0"/>
        <pt x="322" y="869" on="0"/>
        <pt x="370" y="869" on="0"/>
        <pt x="402" y="835" on="0"/>
        <pt x="402" y="789" on="0"/>
        <pt x="370" y="755" on="0"/>
        <pt x="322" y="755" on="0"/>
      </contour>
      <contour>
        <pt x="60" y="0" on="1"/>
        <pt x="60" y="655" on="1"/>
        <pt x="443" y="655" on="1"/>
        <pt x="443" y="561" on="1"/>
        <pt x="164" y="561" on="1"/>
        <pt x="164" y="379" on="1"/>
        <pt x="416" y="379" on="1"/>
        <pt x="416" y="289" on="1"/>
        <pt x="164" y="289" on="1"/>
        <pt x="164" y="94" on="1"/>
        <pt x="446" y="94" on="1"/>
        <pt x="446" y="0" on="1"/>
      </contour>
    </TTGlyph>
    <TTGlyph name="Edotaccent" xMin="60" yMin="0" xMax="446" yMax="869">
      <contour>
        <pt x="194" y="789" on="0"/>
        <pt x="194" y="835" on="0"/>
        <pt x="226" y="869" on="0"/>
        <pt x="274" y="869" on="0"/>
        <pt x="306" y="835" on="0"/>
        <pt x="306" y="789" on="0"/>
        <pt x="274" y="755" on="0"/>
        <pt x="226" y="755" on="0"/>
      </contour>
      <contour>
        <pt x="60" y="0" on="1"/>
        <pt x="60" y="655" on="1"/>
        <pt x="443" y="655" on="1"/>
        <pt x="443" y="561" on="1"/>
        <pt x="164" y="561" on="1"/>
        <pt x="164" y="379" on="1"/>
        <pt x="416" y="379" on="1"/>
        <pt x="416" y="289" on="1"/>
        <pt x="164" y="289" on="1"/>
        <pt x="164" y="94" on="1"/>
        <pt x="446" y="94" on="1"/>
        <pt x="446" y="0" on="1"/>
      </contour>
    </TTGlyph>
    <TTGlyph name="Egrave" xMin="60" yMin="0" xMax="446" yMax="901">
      <contour>
        <pt x="165" y="901" on="1"/>
        <pt x="368" y="813" on="1"/>
        <pt x="336" y="735" on="1"/>
        <pt x="129" y="819" on="1"/>
      </contour>
      <contour>
        <pt x="60" y="0" on="1"/>
        <pt x="60" y="655" on="1"/>
        <pt x="443" y="655" on="1"/>
        <pt x="443" y="561" on="1"/>
        <pt x="164" y="561" on="1"/>
        <pt x="164" y="379" on="1"/>
        <pt x="416" y="379" on="1"/>
        <pt x="416" y="289" on="1"/>
        <pt x="164" y="289" on="1"/>
        <pt x="164" y="94" on="1"/>
        <pt x="446" y="94" on="1"/>
        <pt x="446" y="0" on="1"/>
      </contour>
    </TTGlyph>
    <TTGlyph name="Emacron" xMin="60" yMin="0" xMax="446" yMax="853">
      <contour>
        <pt x="84" y="853" on="1"/>
        <pt x="417" y="853" on="1"/>
        <pt x="417" y="771" on="1"/>
        <pt x="84" y="771" on="1"/>
      </contour>
      <contour>
        <pt x="60" y="0" on="1"/>
        <pt x="60" y="655" on="1"/>
        <pt x="443" y="655" on="1"/>
        <pt x="443" y="561" on="1"/>
        <pt x="164" y="561" on="1"/>
        <pt x="164" y="379" on="1"/>
        <pt x="416" y="379" on="1"/>
        <pt x="416" y="289" on="1"/>
        <pt x="164" y="289" on="1"/>
        <pt x="164" y="94" on="1"/>
        <pt x="446" y="94" on="1"/>
        <pt x="446" y="0" on="1"/>
      </contour>
    </TTGlyph>
    <TTGlyph name="Eng" xMin="18" yMin="-211" xMax="481" yMax="655">
      <contour>
        <pt x="481" y="655" on="1"/>
        <pt x="481" y="-10" on="1"/>
        <pt x="480" y="-100" on="0"/>
        <pt x="436" y="-146" on="1"/>
        <pt x="402" y="-182" on="0"/>
        <pt x="318" y="-198" on="1"/>
        <pt x="244" y="-212" on="0"/>
        <pt x="228" y="-211" on="1"/>
        <pt x="216" y="-115" on="1"/>
        <pt x="318" y="-100" on="0"/>
        <pt x="377" y="-67" on="0"/>
        <pt x="377" y="-10" on="1"/>
        <pt x="377" y="87" on="1"/>
        <pt x="121" y="485" on="1"/>
        <pt x="121" y="0" on="1"/>
        <pt x="18" y="0" on="1"/>
        <pt x="18" y="655" on="1"/>
        <pt x="123" y="655" on="1"/>
        <pt x="377" y="250" on="1"/>
        <pt x="377" y="655" on="1"/>
      </contour>
    </TTGlyph>
    <TTGlyph name="Eogonek" xMin="60" yMin="-269" xMax="446" yMax="655">
      <contour>
        <pt x="249" y="-134" on="1"/>
        <pt x="249" y="-93" on="0"/>
        <pt x="296" y="-20" on="0"/>
        <pt x="340" y="0" on="1"/>
        <pt x="409" y="49" on="1"/>
        <pt x="446" y="0" on="1"/>
        <pt x="396" y="-38" on="1"/>
        <pt x="336" y="-82" on="0"/>
        <pt x="336" y="-136" on="1"/>
        <pt x="336" y="-158" on="0"/>
        <pt x="360" y="-191" on="0"/>
        <pt x="412" y="-191" on="0"/>
        <pt x="435" y="-187" on="1"/>
        <pt x="445" y="-262" on="1"/>
        <pt x="401" y="-269" on="0"/>
        <pt x="374" y="-269" on="1"/>
        <pt x="324" y="-269" on="0"/>
        <pt x="249" y="-202" on="0"/>
      </contour>
      <contour>
        <pt x="60" y="0" on="1"/>
        <pt x="60" y="655" on="1"/>
        <pt x="443" y="655" on="1"/>
        <pt x="443" y="561" on="1"/>
        <pt x="164" y="561" on="1"/>
        <pt x="164" y="379" on="1"/>
        <pt x="416" y="379" on="1"/>
        <pt x="416" y="289" on="1"/>
        <pt x="164" y="289" on="1"/>
        <pt x="164" y="94" on="1"/>
        <pt x="446" y="94" on="1"/>
        <pt x="446" y="0" on="1"/>
      </contour>
    </TTGlyph>
    <TTGlyph name="Eth" xMin="8" yMin="0" xMax="466" yMax="655">
      <contour>
        <pt x="50" y="0" on="1"/>
        <pt x="50" y="270" on="1"/>
        <pt x="8" y="270" on="1"/>
        <pt x="8" y="367" on="1"/>
        <pt x="50" y="367" on="1"/>
        <pt x="50" y="655" on="1"/>
        <pt x="194" y="655" on="1"/>
        <pt x="273" y="655" on="0"/>
        <pt x="370" y="629" on="0"/>
        <pt x="438" y="557" on="0"/>
        <pt x="466" y="430" on="0"/>
        <pt x="466" y="197" on="0"/>
        <pt x="409" y="55" on="0"/>
        <pt x="295" y="0" on="0"/>
        <pt x="192" y="0" on="1"/>
      </contour>
      <contour>
        <pt x="343" y="159" on="0"/>
        <pt x="360" y="250" on="0"/>
        <pt x="360" y="407" on="0"/>
        <pt x="346" y="497" on="0"/>
        <pt x="301" y="550" on="0"/>
        <pt x="235" y="565" on="0"/>
        <pt x="174" y="565" on="1"/>
        <pt x="154" y="565" on="1"/>
        <pt x="154" y="367" on="1"/>
        <pt x="245" y="367" on="1"/>
        <pt x="245" y="270" on="1"/>
        <pt x="154" y="270" on="1"/>
        <pt x="154" y="90" on="1"/>
        <pt x="172" y="90" on="1"/>
        <pt x="230" y="90" on="0"/>
        <pt x="297" y="107" on="0"/>
      </contour>
    </TTGlyph>
    <TTGlyph name="Euro" xMin="0" yMin="-9" xMax="465" yMax="665">
      <contour>
        <pt x="144" y="318" on="1"/>
        <pt x="145" y="295" on="1"/>
        <pt x="364" y="295" on="1"/>
        <pt x="364" y="216" on="1"/>
        <pt x="156" y="216" on="1"/>
        <pt x="170" y="149" on="0"/>
        <pt x="233" y="88" on="0"/>
        <pt x="362" y="88" on="0"/>
        <pt x="440" y="112" on="1"/>
        <pt x="465" y="19" on="1"/>
        <pt x="432" y="8" on="0"/>
        <pt x="323" y="-9" on="0"/>
        <pt x="285" y="-9" on="1"/>
        <pt x="186" y="-12" on="0"/>
        <pt x="65" y="93" on="0"/>
        <pt x="48" y="216" on="1"/>
        <pt x="0" y="216" on="1"/>
        <pt x="0" y="295" on="1"/>
        <pt x="41" y="295" on="1"/>
        <pt x="41" y="350" on="1"/>
        <pt x="0" y="350" on="1"/>
        <pt x="0" y="429" on="1"/>
        <pt x="48" y="429" on="1"/>
        <pt x="64" y="547" on="0"/>
        <pt x="178" y="665" on="0"/>
        <pt x="286" y="665" on="1"/>
        <pt x="369" y="665" on="0"/>
        <pt x="451" y="637" on="1"/>
        <pt x="428" y="552" on="1"/>
        <pt x="353" y="575" on="0"/>
        <pt x="228" y="575" on="0"/>
        <pt x="163" y="507" on="0"/>
        <pt x="151" y="429" on="1"/>
        <pt x="364" y="429" on="1"/>
        <pt x="364" y="350" on="1"/>
        <pt x="144" y="350" on="1"/>
      </contour>
    </TTGlyph>
    <TTGlyph name="F" xMin="64" yMin="0" xMax="448" yMax="655">
      <contour>
        <pt x="64" y="0" on="1"/>
        <pt x="64" y="655" on="1"/>
        <pt x="448" y="655" on="1"/>
        <pt x="448" y="561" on="1"/>
        <pt x="168" y="561" on="1"/>
        <pt x="168" y="339" on="1"/>
        <pt x="407" y="339" on="1"/>
        <pt x="407" y="249" on="1"/>
        <pt x="168" y="249" on="1"/>
        <pt x="168" y="0" on="1"/>
      </contour>
    </TTGlyph>
    <TTGlyph name="G" xMin="22" yMin="-9" xMax="469" yMax="665">
      <contour>
        <pt x="139" y="-9" on="0"/>
        <pt x="22" y="149" on="0"/>
        <pt x="22" y="503" on="0"/>
        <pt x="143" y="665" on="0"/>
        <pt x="272" y="665" on="1"/>
        <pt x="374" y="665" on="0"/>
        <pt x="456" y="637" on="1"/>
        <pt x="438" y="548" on="1"/>
        <pt x="368" y="572" on="0"/>
        <pt x="272" y="572" on="1"/>
        <pt x="193" y="572" on="0"/>
        <pt x="128" y="458" on="0"/>
        <pt x="128" y="204" on="0"/>
        <pt x="197" y="87" on="0"/>
        <pt x="266" y="87" on="1"/>
        <pt x="315" y="87" on="0"/>
        <pt x="369" y="100" on="1"/>
        <pt x="369" y="255" on="1"/>
        <pt x="276" y="255" on="1"/>
        <pt x="276" y="347" on="1"/>
        <pt x="469" y="347" on="1"/>
        <pt x="469" y="25" on="1"/>
        <pt x="374" y="-9" on="0"/>
        <pt x="266" y="-9" on="1"/>
      </contour>
    </TTGlyph>
    <TTGlyph name="G.001" xMin="22" yMin="-9" xMax="469" yMax="665">
      <contour>
        <pt x="139" y="-9" on="0"/>
        <pt x="22" y="149" on="0"/>
        <pt x="22" y="503" on="0"/>
        <pt x="143" y="665" on="0"/>
        <pt x="272" y="665" on="1"/>
        <pt x="374" y="665" on="0"/>
        <pt x="456" y="637" on="1"/>
        <pt x="438" y="548" on="1"/>
        <pt x="368" y="572" on="0"/>
        <pt x="272" y="572" on="1"/>
        <pt x="193" y="572" on="0"/>
        <pt x="128" y="458" on="0"/>
        <pt x="128" y="204" on="0"/>
        <pt x="197" y="87" on="0"/>
        <pt x="266" y="87" on="1"/>
        <pt x="315" y="87" on="0"/>
        <pt x="369" y="100" on="1"/>
        <pt x="369" y="347" on="1"/>
        <pt x="469" y="347" on="1"/>
        <pt x="469" y="25" on="1"/>
        <pt x="374" y="-9" on="0"/>
        <pt x="266" y="-9" on="1"/>
      </contour>
    </TTGlyph>
    <TTGlyph name="Gbreve" xMin="22" yMin="-9" xMax="469" yMax="875">
      <contour>
        <pt x="395" y="754" on="0"/>
        <pt x="125" y="754" on="0"/>
        <pt x="117" y="875" on="1"/>
        <pt x="191" y="875" on="1"/>
        <pt x="196" y="845" on="0"/>
        <pt x="230" y="821" on="0"/>
        <pt x="290" y="821" on="0"/>
        <pt x="324" y="845" on="0"/>
        <pt x="329" y="875" on="1"/>
        <pt x="403" y="875" on="1"/>
      </contour>
      <contour>
        <pt x="139" y="-9" on="0"/>
        <pt x="22" y="149" on="0"/>
        <pt x="22" y="503" on="0"/>
        <pt x="143" y="665" on="0"/>
        <pt x="272" y="665" on="1"/>
        <pt x="374" y="665" on="0"/>
        <pt x="456" y="637" on="1"/>
        <pt x="438" y="548" on="1"/>
        <pt x="368" y="572" on="0"/>
        <pt x="272" y="572" on="1"/>
        <pt x="193" y="572" on="0"/>
        <pt x="128" y="458" on="0"/>
        <pt x="128" y="204" on="0"/>
        <pt x="197" y="87" on="0"/>
        <pt x="266" y="87" on="1"/>
        <pt x="315" y="87" on="0"/>
        <pt x="369" y="100" on="1"/>
        <pt x="369" y="255" on="1"/>
        <pt x="276" y="255" on="1"/>
        <pt x="276" y="347" on="1"/>
        <pt x="469" y="347" on="1"/>
        <pt x="469" y="25" on="1"/>
        <pt x="374" y="-9" on="0"/>
        <pt x="266" y="-9" on="1"/>
      </contour>
    </TTGlyph>
    <TTGlyph name="Gcircumflex" xMin="22" yMin="-9" xMax="469" yMax="882">
      <contour>
        <pt x="97" y="752" on="1"/>
        <pt x="223" y="882" on="1"/>
        <pt x="303" y="882" on="1"/>
        <pt x="429" y="752" on="1"/>
        <pt x="331" y="752" on="1"/>
        <pt x="263" y="822" on="1"/>
        <pt x="195" y="752" on="1"/>
      </contour>
      <contour>
        <pt x="139" y="-9" on="0"/>
        <pt x="22" y="149" on="0"/>
        <pt x="22" y="503" on="0"/>
        <pt x="143" y="665" on="0"/>
        <pt x="272" y="665" on="1"/>
        <pt x="374" y="665" on="0"/>
        <pt x="456" y="637" on="1"/>
        <pt x="438" y="548" on="1"/>
        <pt x="368" y="572" on="0"/>
        <pt x="272" y="572" on="1"/>
        <pt x="193" y="572" on="0"/>
        <pt x="128" y="458" on="0"/>
        <pt x="128" y="204" on="0"/>
        <pt x="197" y="87" on="0"/>
        <pt x="266" y="87" on="1"/>
        <pt x="315" y="87" on="0"/>
        <pt x="369" y="100" on="1"/>
        <pt x="369" y="255" on="1"/>
        <pt x="276" y="255" on="1"/>
        <pt x="276" y="347" on="1"/>
        <pt x="469" y="347" on="1"/>
        <pt x="469" y="25" on="1"/>
        <pt x="374" y="-9" on="0"/>
        <pt x="266" y="-9" on="1"/>
      </contour>
    </TTGlyph>
    <TTGlyph name="Gcommaaccent" xMin="22" yMin="-251" xMax="469" yMax="665">
      <contour>
        <pt x="221" y="-160" on="1"/>
        <pt x="221" y="-59" on="1"/>
        <pt x="321" y="-59" on="1"/>
        <pt x="321" y="-128" on="1"/>
        <pt x="321" y="-167" on="0"/>
        <pt x="288" y="-222" on="0"/>
        <pt x="249" y="-251" on="1"/>
        <pt x="218" y="-216" on="1"/>
        <pt x="234" y="-202" on="0"/>
        <pt x="252" y="-174" on="0"/>
        <pt x="253" y="-160" on="1"/>
      </contour>
      <contour>
        <pt x="139" y="-9" on="0"/>
        <pt x="22" y="149" on="0"/>
        <pt x="22" y="503" on="0"/>
        <pt x="143" y="665" on="0"/>
        <pt x="272" y="665" on="1"/>
        <pt x="374" y="665" on="0"/>
        <pt x="456" y="637" on="1"/>
        <pt x="438" y="548" on="1"/>
        <pt x="368" y="572" on="0"/>
        <pt x="272" y="572" on="1"/>
        <pt x="193" y="572" on="0"/>
        <pt x="128" y="458" on="0"/>
        <pt x="128" y="204" on="0"/>
        <pt x="197" y="87" on="0"/>
        <pt x="266" y="87" on="1"/>
        <pt x="315" y="87" on="0"/>
        <pt x="369" y="100" on="1"/>
        <pt x="369" y="255" on="1"/>
        <pt x="276" y="255" on="1"/>
        <pt x="276" y="347" on="1"/>
        <pt x="469" y="347" on="1"/>
        <pt x="469" y="25" on="1"/>
        <pt x="374" y="-9" on="0"/>
        <pt x="266" y="-9" on="1"/>
      </contour>
    </TTGlyph>
    <TTGlyph name="Gdotaccent" xMin="22" yMin="-9" xMax="469" yMax="869">
      <contour>
        <pt x="214" y="789" on="0"/>
        <pt x="214" y="835" on="0"/>
        <pt x="246" y="869" on="0"/>
        <pt x="294" y="869" on="0"/>
        <pt x="326" y="835" on="0"/>
        <pt x="326" y="789" on="0"/>
        <pt x="294" y="755" on="0"/>
        <pt x="246" y="755" on="0"/>
      </contour>
      <contour>
        <pt x="139" y="-9" on="0"/>
        <pt x="22" y="149" on="0"/>
        <pt x="22" y="503" on="0"/>
        <pt x="143" y="665" on="0"/>
        <pt x="272" y="665" on="1"/>
        <pt x="374" y="665" on="0"/>
        <pt x="456" y="637" on="1"/>
        <pt x="438" y="548" on="1"/>
        <pt x="368" y="572" on="0"/>
        <pt x="272" y="572" on="1"/>
        <pt x="193" y="572" on="0"/>
        <pt x="128" y="458" on="0"/>
        <pt x="128" y="204" on="0"/>
        <pt x="197" y="87" on="0"/>
        <pt x="266" y="87" on="1"/>
        <pt x="315" y="87" on="0"/>
        <pt x="369" y="100" on="1"/>
        <pt x="369" y="255" on="1"/>
        <pt x="276" y="255" on="1"/>
        <pt x="276" y="347" on="1"/>
        <pt x="469" y="347" on="1"/>
        <pt x="469" y="25" on="1"/>
        <pt x="374" y="-9" on="0"/>
        <pt x="266" y="-9" on="1"/>
      </contour>
    </TTGlyph>
    <TTGlyph name="H" xMin="32" yMin="0" xMax="469" yMax="655">
      <contour>
        <pt x="32" y="0" on="1"/>
        <pt x="32" y="655" on="1"/>
        <pt x="137" y="655" on="1"/>
        <pt x="137" y="373" on="1"/>
        <pt x="364" y="373" on="1"/>
        <pt x="364" y="655" on="1"/>
        <pt x="469" y="655" on="1"/>
        <pt x="469" y="0" on="1"/>
        <pt x="364" y="0" on="1"/>
        <pt x="364" y="279" on="1"/>
        <pt x="137" y="279" on="1"/>
        <pt x="137" y="0" on="1"/>
      </contour>
    </TTGlyph>
    <TTGlyph name="Hbar" xMin="0" yMin="0" xMax="500" yMax="655">
      <contour>
        <pt x="0" y="529" on="1"/>
        <pt x="500" y="529" on="1"/>
        <pt x="500" y="456" on="1"/>
        <pt x="0" y="456" on="1"/>
      </contour>
      <contour>
        <pt x="32" y="0" on="1"/>
        <pt x="32" y="655" on="1"/>
        <pt x="137" y="655" on="1"/>
        <pt x="137" y="373" on="1"/>
        <pt x="364" y="373" on="1"/>
        <pt x="364" y="655" on="1"/>
        <pt x="469" y="655" on="1"/>
        <pt x="469" y="0" on="1"/>
        <pt x="364" y="0" on="1"/>
        <pt x="364" y="279" on="1"/>
        <pt x="137" y="279" on="1"/>
        <pt x="137" y="0" on="1"/>
      </contour>
    </TTGlyph>
    <TTGlyph name="Hcircumflex" xMin="32" yMin="0" xMax="469" yMax="882">
      <contour>
        <pt x="84" y="752" on="1"/>
        <pt x="210" y="882" on="1"/>
        <pt x="290" y="882" on="1"/>
        <pt x="416" y="752" on="1"/>
        <pt x="318" y="752" on="1"/>
        <pt x="250" y="822" on="1"/>
        <pt x="182" y="752" on="1"/>
      </contour>
      <contour>
        <pt x="32" y="0" on="1"/>
        <pt x="32" y="655" on="1"/>
        <pt x="137" y="655" on="1"/>
        <pt x="137" y="373" on="1"/>
        <pt x="364" y="373" on="1"/>
        <pt x="364" y="655" on="1"/>
        <pt x="469" y="655" on="1"/>
        <pt x="469" y="0" on="1"/>
        <pt x="364" y="0" on="1"/>
        <pt x="364" y="279" on="1"/>
        <pt x="137" y="279" on="1"/>
        <pt x="137" y="0" on="1"/>
      </contour>
    </TTGlyph>
    <TTGlyph name="I" xMin="72" yMin="0" xMax="425" yMax="655">
      <contour>
        <pt x="72" y="0" on="1"/>
        <pt x="72" y="93" on="1"/>
        <pt x="201" y="93" on="1"/>
        <pt x="201" y="562" on="1"/>
        <pt x="72" y="562" on="1"/>
        <pt x="72" y="655" on="1"/>
        <pt x="425" y="655" on="1"/>
        <pt x="425" y="562" on="1"/>
        <pt x="305" y="562" on="1"/>
        <pt x="305" y="93" on="1"/>
        <pt x="425" y="93" on="1"/>
        <pt x="425" y="0" on="1"/>
      </contour>
    </TTGlyph>
    <TTGlyph name="I.001" xMin="0" yMin="210" xMax="506" yMax="265">
      <contour>
        <pt x="0" y="210" on="1"/>
        <pt x="0" y="265" on="1"/>
        <pt x="506" y="265" on="1"/>
        <pt x="506" y="210" on="1"/>
      </contour>
    </TTGlyph>
    <TTGlyph name="I.001.bi" xMin="98" yMin="0" xMax="153" yMax="655">
      <contour>
        <pt x="153" y="655" on="1"/>
        <pt x="153" y="0" on="1"/>
        <pt x="98" y="0" on="1"/>
        <pt x="98" y="655" on="1"/>
      </contour>
    </TTGlyph>
    <TTGlyph name="I.bi" xMin="20" yMin="0" xMax="229" yMax="655">
      <contour>
        <pt x="153" y="605" on="1"/>
        <pt x="153" y="50" on="1"/>
        <pt x="229" y="50" on="1"/>
        <pt x="229" y="0" on="1"/>
        <pt x="20" y="0" on="1"/>
        <pt x="20" y="50" on="1"/>
        <pt x="98" y="50" on="1"/>
        <pt x="98" y="605" on="1"/>
        <pt x="20" y="605" on="1"/>
        <pt x="20" y="655" on="1"/>
        <pt x="229" y="655" on="1"/>
        <pt x="229" y="605" on="1"/>
      </contour>
    </TTGlyph>
    <TTGlyph name="I.swsh" xMin="95" yMin="0" xMax="384" yMax="655">
      <contour>
        <pt x="275" y="605" on="1"/>
        <pt x="275" y="50" on="1"/>
        <pt x="384" y="50" on="1"/>
        <pt x="384" y="0" on="1"/>
        <pt x="155" y="0" on="1"/>
        <pt x="155" y="50" on="1"/>
        <pt x="217" y="50" on="1"/>
        <pt x="217" y="605" on="1"/>
        <pt x="95" y="605" on="1"/>
        <pt x="95" y="655" on="1"/>
        <pt x="337" y="655" on="1"/>
        <pt x="337" y="605" on="1"/>
      </contour>
    </TTGlyph>
    <TTGlyph name="I_J" xMin="29" yMin="-10" xMax="469" yMax="655">
      <contour>
        <pt x="113" y="266" on="1"/>
        <pt x="113" y="580" on="1"/>
        <pt x="29" y="580" on="1"/>
        <pt x="29" y="655" on="1"/>
        <pt x="292" y="655" on="1"/>
        <pt x="292" y="580" on="1"/>
        <pt x="210" y="580" on="1"/>
        <pt x="210" y="266" on="1"/>
        <pt x="292" y="266" on="1"/>
        <pt x="292" y="191" on="1"/>
        <pt x="29" y="191" on="1"/>
        <pt x="29" y="266" on="1"/>
      </contour>
      <contour>
        <pt x="371" y="655" on="1"/>
        <pt x="469" y="655" on="1"/>
        <pt x="469" y="205" on="1"/>
        <pt x="469" y="94" on="0"/>
        <pt x="385" y="46" on="1"/>
        <pt x="343" y="22" on="0"/>
        <pt x="251" y="-2" on="0"/>
        <pt x="184" y="-10" on="1"/>
        <pt x="172" y="84" on="1"/>
        <pt x="280" y="100" on="0"/>
        <pt x="371" y="152" on="0"/>
        <pt x="371" y="203" on="1"/>
      </contour>
    </TTGlyph>
    <TTGlyph name="Iacute" xMin="72" yMin="0" xMax="425" yMax="900">
      <contour>
        <pt x="133" y="812" on="1"/>
        <pt x="338" y="900" on="1"/>
        <pt x="372" y="818" on="1"/>
        <pt x="166" y="734" on="1"/>
      </contour>
      <contour>
        <pt x="72" y="0" on="1"/>
        <pt x="72" y="93" on="1"/>
        <pt x="201" y="93" on="1"/>
        <pt x="201" y="562" on="1"/>
        <pt x="72" y="562" on="1"/>
        <pt x="72" y="655" on="1"/>
        <pt x="425" y="655" on="1"/>
        <pt x="425" y="562" on="1"/>
        <pt x="305" y="562" on="1"/>
        <pt x="305" y="93" on="1"/>
        <pt x="425" y="93" on="1"/>
        <pt x="425" y="0" on="1"/>
      </contour>
    </TTGlyph>
    <TTGlyph name="Ibreve" xMin="72" yMin="0" xMax="425" yMax="875">
      <contour>
        <pt x="386" y="754" on="0"/>
        <pt x="116" y="754" on="0"/>
        <pt x="108" y="875" on="1"/>
        <pt x="182" y="875" on="1"/>
        <pt x="187" y="845" on="0"/>
        <pt x="221" y="821" on="0"/>
        <pt x="281" y="821" on="0"/>
        <pt x="315" y="845" on="0"/>
        <pt x="320" y="875" on="1"/>
        <pt x="394" y="875" on="1"/>
      </contour>
      <contour>
        <pt x="72" y="0" on="1"/>
        <pt x="72" y="93" on="1"/>
        <pt x="201" y="93" on="1"/>
        <pt x="201" y="562" on="1"/>
        <pt x="72" y="562" on="1"/>
        <pt x="72" y="655" on="1"/>
        <pt x="425" y="655" on="1"/>
        <pt x="425" y="562" on="1"/>
        <pt x="305" y="562" on="1"/>
        <pt x="305" y="93" on="1"/>
        <pt x="425" y="93" on="1"/>
        <pt x="425" y="0" on="1"/>
      </contour>
    </TTGlyph>
    <TTGlyph name="Icircumflex" xMin="72" yMin="0" xMax="425" yMax="882">
      <contour>
        <pt x="87" y="742" on="1"/>
        <pt x="213" y="882" on="1"/>
        <pt x="293" y="882" on="1"/>
        <pt x="419" y="742" on="1"/>
        <pt x="321" y="742" on="1"/>
        <pt x="253" y="822" on="1"/>
        <pt x="185" y="742" on="1"/>
      </contour>
      <contour>
        <pt x="72" y="0" on="1"/>
        <pt x="72" y="93" on="1"/>
        <pt x="201" y="93" on="1"/>
        <pt x="201" y="562" on="1"/>
        <pt x="72" y="562" on="1"/>
        <pt x="72" y="655" on="1"/>
        <pt x="425" y="655" on="1"/>
        <pt x="425" y="562" on="1"/>
        <pt x="305" y="562" on="1"/>
        <pt x="305" y="93" on="1"/>
        <pt x="425" y="93" on="1"/>
        <pt x="425" y="0" on="1"/>
      </contour>
    </TTGlyph>
    <TTGlyph name="Idieresis" xMin="72" yMin="0" xMax="425" yMax="869">
      <contour>
        <pt x="97" y="789" on="0"/>
        <pt x="97" y="835" on="0"/>
        <pt x="130" y="869" on="0"/>
        <pt x="176" y="869" on="0"/>
        <pt x="209" y="835" on="0"/>
        <pt x="209" y="789" on="0"/>
        <pt x="177" y="755" on="0"/>
        <pt x="129" y="755" on="0"/>
      </contour>
      <contour>
        <pt x="290" y="789" on="0"/>
        <pt x="290" y="835" on="0"/>
        <pt x="322" y="869" on="0"/>
        <pt x="370" y="869" on="0"/>
        <pt x="402" y="835" on="0"/>
        <pt x="402" y="789" on="0"/>
        <pt x="370" y="755" on="0"/>
        <pt x="322" y="755" on="0"/>
      </contour>
      <contour>
        <pt x="72" y="0" on="1"/>
        <pt x="72" y="93" on="1"/>
        <pt x="201" y="93" on="1"/>
        <pt x="201" y="562" on="1"/>
        <pt x="72" y="562" on="1"/>
        <pt x="72" y="655" on="1"/>
        <pt x="425" y="655" on="1"/>
        <pt x="425" y="562" on="1"/>
        <pt x="305" y="562" on="1"/>
        <pt x="305" y="93" on="1"/>
        <pt x="425" y="93" on="1"/>
        <pt x="425" y="0" on="1"/>
      </contour>
    </TTGlyph>
    <TTGlyph name="Idotaccent" xMin="72" yMin="0" xMax="425" yMax="869">
      <contour>
        <pt x="194" y="789" on="0"/>
        <pt x="194" y="835" on="0"/>
        <pt x="226" y="869" on="0"/>
        <pt x="274" y="869" on="0"/>
        <pt x="306" y="835" on="0"/>
        <pt x="306" y="789" on="0"/>
        <pt x="274" y="755" on="0"/>
        <pt x="226" y="755" on="0"/>
      </contour>
      <contour>
        <pt x="72" y="0" on="1"/>
        <pt x="72" y="93" on="1"/>
        <pt x="201" y="93" on="1"/>
        <pt x="201" y="562" on="1"/>
        <pt x="72" y="562" on="1"/>
        <pt x="72" y="655" on="1"/>
        <pt x="425" y="655" on="1"/>
        <pt x="425" y="562" on="1"/>
        <pt x="305" y="562" on="1"/>
        <pt x="305" y="93" on="1"/>
        <pt x="425" y="93" on="1"/>
        <pt x="425" y="0" on="1"/>
      </contour>
    </TTGlyph>
    <TTGlyph name="Igrave" xMin="72" yMin="0" xMax="425" yMax="901">
      <contour>
        <pt x="159" y="901" on="1"/>
        <pt x="362" y="813" on="1"/>
        <pt x="330" y="735" on="1"/>
        <pt x="123" y="819" on="1"/>
      </contour>
      <contour>
        <pt x="72" y="0" on="1"/>
        <pt x="72" y="93" on="1"/>
        <pt x="201" y="93" on="1"/>
        <pt x="201" y="562" on="1"/>
        <pt x="72" y="562" on="1"/>
        <pt x="72" y="655" on="1"/>
        <pt x="425" y="655" on="1"/>
        <pt x="425" y="562" on="1"/>
        <pt x="305" y="562" on="1"/>
        <pt x="305" y="93" on="1"/>
        <pt x="425" y="93" on="1"/>
        <pt x="425" y="0" on="1"/>
      </contour>
    </TTGlyph>
    <TTGlyph name="Imacron" xMin="72" yMin="0" xMax="425" yMax="853">
      <contour>
        <pt x="84" y="853" on="1"/>
        <pt x="417" y="853" on="1"/>
        <pt x="417" y="771" on="1"/>
        <pt x="84" y="771" on="1"/>
      </contour>
      <contour>
        <pt x="72" y="0" on="1"/>
        <pt x="72" y="93" on="1"/>
        <pt x="201" y="93" on="1"/>
        <pt x="201" y="562" on="1"/>
        <pt x="72" y="562" on="1"/>
        <pt x="72" y="655" on="1"/>
        <pt x="425" y="655" on="1"/>
        <pt x="425" y="562" on="1"/>
        <pt x="305" y="562" on="1"/>
        <pt x="305" y="93" on="1"/>
        <pt x="425" y="93" on="1"/>
        <pt x="425" y="0" on="1"/>
      </contour>
    </TTGlyph>
    <TTGlyph name="Iogonek" xMin="72" yMin="-269" xMax="425" yMax="655">
      <contour>
        <pt x="218" y="-134" on="1"/>
        <pt x="218" y="-93" on="0"/>
        <pt x="265" y="-20" on="0"/>
        <pt x="309" y="0" on="1"/>
        <pt x="378" y="49" on="1"/>
        <pt x="415" y="0" on="1"/>
        <pt x="365" y="-38" on="1"/>
        <pt x="305" y="-82" on="0"/>
        <pt x="305" y="-136" on="1"/>
        <pt x="305" y="-158" on="0"/>
        <pt x="317" y="-174" on="1"/>
        <pt x="330" y="-191" on="0"/>
        <pt x="382" y="-191" on="0"/>
        <pt x="404" y="-187" on="1"/>
        <pt x="414" y="-262" on="1"/>
        <pt x="370" y="-269" on="0"/>
        <pt x="343" y="-269" on="1"/>
        <pt x="293" y="-269" on="0"/>
        <pt x="218" y="-202" on="0"/>
      </contour>
      <contour>
        <pt x="72" y="0" on="1"/>
        <pt x="72" y="93" on="1"/>
        <pt x="201" y="93" on="1"/>
        <pt x="201" y="562" on="1"/>
        <pt x="72" y="562" on="1"/>
        <pt x="72" y="655" on="1"/>
        <pt x="425" y="655" on="1"/>
        <pt x="425" y="562" on="1"/>
        <pt x="305" y="562" on="1"/>
        <pt x="305" y="93" on="1"/>
        <pt x="425" y="93" on="1"/>
        <pt x="425" y="0" on="1"/>
      </contour>
    </TTGlyph>
    <TTGlyph name="Itilde" xMin="72" yMin="0" xMax="425" yMax="885">
      <contour>
        <pt x="373" y="870" on="1"/>
        <pt x="414" y="814" on="1"/>
        <pt x="365" y="761" on="0"/>
        <pt x="318" y="761" on="1"/>
        <pt x="283" y="761" on="0"/>
        <pt x="245" y="782" on="1"/>
        <pt x="208" y="804" on="0"/>
        <pt x="164" y="804" on="0"/>
        <pt x="131" y="773" on="1"/>
        <pt x="86" y="828" on="1"/>
        <pt x="145" y="885" on="0"/>
        <pt x="192" y="885" on="1"/>
        <pt x="225" y="885" on="0"/>
        <pt x="264" y="864" on="1"/>
        <pt x="304" y="843" on="0"/>
        <pt x="344" y="843" on="0"/>
      </contour>
      <contour>
        <pt x="72" y="0" on="1"/>
        <pt x="72" y="93" on="1"/>
        <pt x="201" y="93" on="1"/>
        <pt x="201" y="562" on="1"/>
        <pt x="72" y="562" on="1"/>
        <pt x="72" y="655" on="1"/>
        <pt x="425" y="655" on="1"/>
        <pt x="425" y="562" on="1"/>
        <pt x="305" y="562" on="1"/>
        <pt x="305" y="93" on="1"/>
        <pt x="425" y="93" on="1"/>
        <pt x="425" y="0" on="1"/>
      </contour>
    </TTGlyph>
    <TTGlyph name="J" xMin="44" yMin="-11" xMax="393" yMax="655">
      <contour>
        <pt x="331" y="561" on="1"/>
        <pt x="331" y="215" on="1"/>
        <pt x="331" y="79" on="0"/>
        <pt x="283" y="-11" on="0"/>
        <pt x="196" y="-11" on="1"/>
        <pt x="140" y="-11" on="0"/>
        <pt x="44" y="16" on="1"/>
        <pt x="62" y="101" on="1"/>
        <pt x="109" y="87" on="0"/>
        <pt x="203" y="75" on="0"/>
        <pt x="227" y="124" on="0"/>
        <pt x="227" y="217" on="1"/>
        <pt x="227" y="561" on="1"/>
        <pt x="76" y="561" on="1"/>
        <pt x="76" y="655" on="1"/>
        <pt x="393" y="655" on="1"/>
        <pt x="393" y="561" on="1"/>
      </contour>
    </TTGlyph>
    <TTGlyph name="J.001" xMin="0" yMin="210" xMax="500" yMax="409">
      <contour>
        <pt x="472" y="409" on="1"/>
        <pt x="500" y="360" on="1"/>
        <pt x="396" y="288" on="0"/>
        <pt x="172" y="210" on="0"/>
        <pt x="22" y="210" on="1"/>
        <pt x="0" y="210" on="1"/>
        <pt x="0" y="265" on="1"/>
        <pt x="22" y="265" on="1"/>
        <pt x="166" y="265" on="0"/>
        <pt x="372" y="341" on="0"/>
      </contour>
    </TTGlyph>
    <TTGlyph name="J.001.bi" xMin="13" yMin="-11" xMax="247" yMax="655">
      <contour>
        <pt x="202" y="605" on="1"/>
        <pt x="202" y="215" on="1"/>
        <pt x="202" y="73" on="0"/>
        <pt x="156" y="-11" on="0"/>
        <pt x="68" y="-11" on="1"/>
        <pt x="13" y="-4" on="1"/>
        <pt x="19" y="47" on="1"/>
        <pt x="50" y="41" on="0"/>
        <pt x="67" y="41" on="1"/>
        <pt x="119" y="41" on="0"/>
        <pt x="147" y="102" on="0"/>
        <pt x="147" y="218" on="1"/>
        <pt x="147" y="605" on="1"/>
        <pt x="36" y="605" on="1"/>
        <pt x="36" y="655" on="1"/>
        <pt x="247" y="655" on="1"/>
        <pt x="247" y="605" on="1"/>
      </contour>
    </TTGlyph>
    <TTGlyph name="J.002.bi" xMin="43" yMin="-11" xMax="202" yMax="655">
      <contour>
        <pt x="202" y="655" on="1"/>
        <pt x="202" y="215" on="1"/>
        <pt x="202" y="74" on="0"/>
        <pt x="161" y="-11" on="0"/>
        <pt x="88" y="-11" on="1"/>
        <pt x="43" y="-8" on="1"/>
        <pt x="47" y="43" on="1"/>
        <pt x="70" y="41" on="0"/>
        <pt x="92" y="41" on="1"/>
        <pt x="112" y="41" on="0"/>
        <pt x="124" y="53" on="1"/>
        <pt x="146" y="76" on="0"/>
        <pt x="147" y="218" on="1"/>
        <pt x="147" y="655" on="1"/>
      </contour>
    </TTGlyph>
    <TTGlyph name="J.bi" xMin="13" yMin="-11" xMax="202" yMax="655">
      <contour>
        <pt x="202" y="655" on="1"/>
        <pt x="202" y="215" on="1"/>
        <pt x="202" y="73" on="0"/>
        <pt x="156" y="-11" on="0"/>
        <pt x="68" y="-11" on="1"/>
        <pt x="13" y="-4" on="1"/>
        <pt x="19" y="47" on="1"/>
        <pt x="50" y="41" on="0"/>
        <pt x="67" y="41" on="1"/>
        <pt x="119" y="41" on="0"/>
        <pt x="147" y="102" on="0"/>
        <pt x="147" y="218" on="1"/>
        <pt x="147" y="605" on="1"/>
        <pt x="36" y="605" on="1"/>
        <pt x="36" y="655" on="1"/>
      </contour>
    </TTGlyph>
    <TTGlyph name="J.bi.sc" xMin="30" yMin="-8" xMax="225" yMax="518">
      <contour>
        <pt x="188" y="478" on="1"/>
        <pt x="188" y="170" on="1"/>
        <pt x="188" y="58" on="0"/>
        <pt x="149" y="-8" on="0"/>
        <pt x="75" y="-8" on="1"/>
        <pt x="30" y="-3" on="1"/>
        <pt x="34" y="37" on="1"/>
        <pt x="60" y="33" on="0"/>
        <pt x="74" y="33" on="1"/>
        <pt x="118" y="33" on="0"/>
        <pt x="141" y="80" on="0"/>
        <pt x="141" y="172" on="1"/>
        <pt x="141" y="478" on="1"/>
        <pt x="48" y="478" on="1"/>
        <pt x="48" y="518" on="1"/>
        <pt x="225" y="518" on="1"/>
        <pt x="225" y="478" on="1"/>
      </contour>
    </TTGlyph>
    <TTGlyph name="J.calt" xMin="82" yMin="-10" xMax="382" yMax="655">
      <contour>
        <pt x="82" y="561" on="1"/>
        <pt x="82" y="655" on="1"/>
        <pt x="382" y="655" on="1"/>
        <pt x="382" y="205" on="1"/>
        <pt x="382" y="117" on="0"/>
        <pt x="328" y="67" on="1"/>
        <pt x="282" y="24" on="0"/>
        <pt x="187" y="5" on="1"/>
        <pt x="148" y="-3" on="0"/>
        <pt x="95" y="-10" on="1"/>
        <pt x="83" y="84" on="1"/>
        <pt x="190" y="100" on="0"/>
        <pt x="278" y="151" on="0"/>
        <pt x="278" y="203" on="1"/>
        <pt x="278" y="561" on="1"/>
      </contour>
    </TTGlyph>
    <TTGlyph name="Jcircumflex" xMin="44" yMin="-11" xMax="402" yMax="882">
      <contour>
        <pt x="70" y="752" on="1"/>
        <pt x="196" y="882" on="1"/>
        <pt x="276" y="882" on="1"/>
        <pt x="402" y="752" on="1"/>
        <pt x="304" y="752" on="1"/>
        <pt x="236" y="822" on="1"/>
        <pt x="168" y="752" on="1"/>
      </contour>
      <contour>
        <pt x="331" y="561" on="1"/>
        <pt x="331" y="215" on="1"/>
        <pt x="331" y="79" on="0"/>
        <pt x="283" y="-11" on="0"/>
        <pt x="196" y="-11" on="1"/>
        <pt x="140" y="-11" on="0"/>
        <pt x="44" y="16" on="1"/>
        <pt x="62" y="101" on="1"/>
        <pt x="109" y="87" on="0"/>
        <pt x="203" y="75" on="0"/>
        <pt x="227" y="124" on="0"/>
        <pt x="227" y="217" on="1"/>
        <pt x="227" y="561" on="1"/>
        <pt x="76" y="561" on="1"/>
        <pt x="76" y="655" on="1"/>
        <pt x="393" y="655" on="1"/>
        <pt x="393" y="561" on="1"/>
      </contour>
    </TTGlyph>
    <TTGlyph name="K" xMin="49" yMin="0" xMax="480" yMax="655">
      <contour>
        <pt x="360" y="655" on="1"/>
        <pt x="473" y="655" on="1"/>
        <pt x="372" y="455" on="0"/>
        <pt x="293" y="337" on="1"/>
        <pt x="322" y="292" on="0"/>
        <pt x="368" y="208" on="1"/>
        <pt x="480" y="0" on="1"/>
        <pt x="367" y="0" on="1"/>
        <pt x="266" y="195" on="0"/>
        <pt x="212" y="281" on="1"/>
        <pt x="150" y="275" on="1"/>
        <pt x="150" y="0" on="1"/>
        <pt x="49" y="0" on="1"/>
        <pt x="49" y="655" on="1"/>
        <pt x="150" y="655" on="1"/>
        <pt x="150" y="370" on="1"/>
        <pt x="204" y="378" on="1"/>
        <pt x="270" y="480" on="0"/>
        <pt x="337" y="610" on="1"/>
      </contour>
    </TTGlyph>
    <TTGlyph name="K.001" xMin="0" yMin="66" xMax="500" yMax="265">
      <contour>
        <pt x="500" y="115" on="1"/>
        <pt x="472" y="66" on="1"/>
        <pt x="372" y="134" on="0"/>
        <pt x="166" y="210" on="0"/>
        <pt x="22" y="210" on="1"/>
        <pt x="0" y="210" on="1"/>
        <pt x="0" y="265" on="1"/>
        <pt x="22" y="265" on="1"/>
        <pt x="172" y="265" on="0"/>
        <pt x="396" y="187" on="0"/>
      </contour>
    </TTGlyph>
    <TTGlyph name="K.calt" xMin="54" yMin="0" xMax="486" yMax="655">
      <contour>
        <pt x="54" y="0" on="1"/>
        <pt x="54" y="655" on="1"/>
        <pt x="158" y="655" on="1"/>
        <pt x="158" y="370" on="1"/>
        <pt x="211" y="377" on="1"/>
        <pt x="274" y="475" on="0"/>
        <pt x="342" y="610" on="1"/>
        <pt x="365" y="655" on="1"/>
        <pt x="477" y="655" on="1"/>
        <pt x="377" y="456" on="0"/>
        <pt x="298" y="338" on="1"/>
        <pt x="327" y="292" on="0"/>
        <pt x="374" y="208" on="1"/>
        <pt x="374" y="208" on="0"/>
        <pt x="486" y="0" on="1"/>
        <pt x="372" y="0" on="1"/>
        <pt x="273" y="196" on="0"/>
        <pt x="219" y="282" on="1"/>
        <pt x="158" y="275" on="1"/>
        <pt x="158" y="0" on="1"/>
      </contour>
    </TTGlyph>
    <TTGlyph name="Kcommaaccent" xMin="49" yMin="-251" xMax="480" yMax="655">
      <contour>
        <pt x="201" y="-160" on="1"/>
        <pt x="201" y="-59" on="1"/>
        <pt x="301" y="-59" on="1"/>
        <pt x="301" y="-128" on="1"/>
        <pt x="301" y="-167" on="0"/>
        <pt x="268" y="-222" on="0"/>
        <pt x="229" y="-251" on="1"/>
        <pt x="198" y="-216" on="1"/>
        <pt x="214" y="-202" on="0"/>
        <pt x="232" y="-174" on="0"/>
        <pt x="233" y="-160" on="1"/>
      </contour>
      <contour>
        <pt x="360" y="655" on="1"/>
        <pt x="473" y="655" on="1"/>
        <pt x="372" y="455" on="0"/>
        <pt x="293" y="337" on="1"/>
        <pt x="322" y="292" on="0"/>
        <pt x="368" y="208" on="1"/>
        <pt x="368" y="208" on="0"/>
        <pt x="480" y="0" on="1"/>
        <pt x="367" y="0" on="1"/>
        <pt x="266" y="195" on="0"/>
        <pt x="212" y="281" on="1"/>
        <pt x="150" y="275" on="1"/>
        <pt x="150" y="0" on="1"/>
        <pt x="49" y="0" on="1"/>
        <pt x="49" y="655" on="1"/>
        <pt x="150" y="655" on="1"/>
        <pt x="150" y="370" on="1"/>
        <pt x="204" y="378" on="1"/>
        <pt x="270" y="480" on="0"/>
        <pt x="337" y="610" on="1"/>
      </contour>
    </TTGlyph>
    <TTGlyph name="L" xMin="68" yMin="0" xMax="439" yMax="655">
      <contour>
        <pt x="439" y="94" on="1"/>
        <pt x="439" y="0" on="1"/>
        <pt x="68" y="0" on="1"/>
        <pt x="68" y="655" on="1"/>
        <pt x="172" y="655" on="1"/>
        <pt x="172" y="94" on="1"/>
      </contour>
    </TTGlyph>
    <TTGlyph name="L.001" xMin="0" yMin="210" xMax="1000" yMax="409">
      <contour>
        <pt x="972" y="409" on="1"/>
        <pt x="1000" y="360" on="1"/>
        <pt x="896" y="288" on="0"/>
        <pt x="672" y="210" on="0"/>
        <pt x="522" y="210" on="1"/>
        <pt x="0" y="210" on="1"/>
        <pt x="0" y="265" on="1"/>
        <pt x="522" y="265" on="1"/>
        <pt x="666" y="265" on="0"/>
        <pt x="872" y="341" on="0"/>
      </contour>
    </TTGlyph>
    <TTGlyph name="L_I" xMin="43" yMin="0" xMax="474" yMax="655">
      <contour>
        <pt x="474" y="94" on="1"/>
        <pt x="474" y="0" on="1"/>
        <pt x="43" y="0" on="1"/>
        <pt x="43" y="655" on="1"/>
        <pt x="145" y="655" on="1"/>
        <pt x="145" y="94" on="1"/>
      </contour>
      <contour>
        <pt x="400" y="580" on="1"/>
        <pt x="400" y="266" on="1"/>
        <pt x="474" y="266" on="1"/>
        <pt x="474" y="191" on="1"/>
        <pt x="231" y="191" on="1"/>
        <pt x="231" y="266" on="1"/>
        <pt x="303" y="266" on="1"/>
        <pt x="303" y="580" on="1"/>
        <pt x="231" y="580" on="1"/>
        <pt x="231" y="655" on="1"/>
        <pt x="474" y="655" on="1"/>
        <pt x="474" y="580" on="1"/>
      </contour>
    </TTGlyph>
    <TTGlyph name="Lacute" xMin="68" yMin="0" xMax="439" yMax="900">
      <contour>
        <pt x="136" y="812" on="1"/>
        <pt x="341" y="900" on="1"/>
        <pt x="375" y="818" on="1"/>
        <pt x="169" y="734" on="1"/>
      </contour>
      <contour>
        <pt x="439" y="94" on="1"/>
        <pt x="439" y="0" on="1"/>
        <pt x="68" y="0" on="1"/>
        <pt x="68" y="655" on="1"/>
        <pt x="172" y="655" on="1"/>
        <pt x="172" y="94" on="1"/>
      </contour>
    </TTGlyph>
    <TTGlyph name="Lcaron" xMin="68" yMin="0" xMax="439" yMax="687">
      <contour>
        <pt x="310" y="588" on="1"/>
        <pt x="310" y="687" on="1"/>
        <pt x="399" y="687" on="1"/>
        <pt x="399" y="617" on="1"/>
        <pt x="399" y="578" on="0"/>
        <pt x="370" y="522" on="0"/>
        <pt x="331" y="483" on="1"/>
        <pt x="304" y="508" on="1"/>
        <pt x="327" y="538" on="0"/>
        <pt x="344" y="570" on="0"/>
        <pt x="346" y="588" on="1"/>
      </contour>
      <contour>
        <pt x="439" y="94" on="1"/>
        <pt x="439" y="0" on="1"/>
        <pt x="68" y="0" on="1"/>
        <pt x="68" y="655" on="1"/>
        <pt x="172" y="655" on="1"/>
        <pt x="172" y="94" on="1"/>
      </contour>
    </TTGlyph>
    <TTGlyph name="Lcommaaccent" xMin="68" yMin="-251" xMax="439" yMax="655">
      <contour>
        <pt x="201" y="-160" on="1"/>
        <pt x="201" y="-59" on="1"/>
        <pt x="301" y="-59" on="1"/>
        <pt x="301" y="-128" on="1"/>
        <pt x="301" y="-167" on="0"/>
        <pt x="268" y="-222" on="0"/>
        <pt x="229" y="-251" on="1"/>
        <pt x="198" y="-216" on="1"/>
        <pt x="214" y="-202" on="0"/>
        <pt x="232" y="-174" on="0"/>
        <pt x="233" y="-160" on="1"/>
      </contour>
      <contour>
        <pt x="439" y="94" on="1"/>
        <pt x="439" y="0" on="1"/>
        <pt x="68" y="0" on="1"/>
        <pt x="68" y="655" on="1"/>
        <pt x="172" y="655" on="1"/>
        <pt x="172" y="94" on="1"/>
      </contour>
    </TTGlyph>
    <TTGlyph name="Lslash" xMin="0" yMin="0" xMax="449" yMax="655">
      <contour>
        <pt x="328" y="330" on="1"/>
        <pt x="0" y="249" on="1"/>
        <pt x="0" y="345" on="1"/>
        <pt x="328" y="425" on="1"/>
      </contour>
      <contour>
        <pt x="449" y="94" on="1"/>
        <pt x="449" y="0" on="1"/>
        <pt x="78" y="0" on="1"/>
        <pt x="78" y="655" on="1"/>
        <pt x="182" y="655" on="1"/>
        <pt x="182" y="94" on="1"/>
      </contour>
    </TTGlyph>
    <TTGlyph name="M" xMin="21" yMin="0" xMax="479" yMax="655">
      <contour>
        <pt x="21" y="0" on="1"/>
        <pt x="21" y="655" on="1"/>
        <pt x="120" y="655" on="1"/>
        <pt x="246" y="313" on="1"/>
        <pt x="254" y="313" on="1"/>
        <pt x="380" y="655" on="1"/>
        <pt x="479" y="655" on="1"/>
        <pt x="479" y="0" on="1"/>
        <pt x="385" y="0" on="1"/>
        <pt x="388" y="443" on="1"/>
        <pt x="384" y="443" on="1"/>
        <pt x="299" y="222" on="1"/>
        <pt x="201" y="222" on="1"/>
        <pt x="116" y="443" on="1"/>
        <pt x="112" y="443" on="1"/>
        <pt x="115" y="0" on="1"/>
      </contour>
    </TTGlyph>
    <TTGlyph name="M.001" xMin="0" yMin="66" xMax="1000" yMax="265">
      <contour>
        <pt x="1000" y="115" on="1"/>
        <pt x="972" y="66" on="1"/>
        <pt x="872" y="134" on="0"/>
        <pt x="666" y="210" on="0"/>
        <pt x="522" y="210" on="1"/>
        <pt x="0" y="210" on="1"/>
        <pt x="0" y="265" on="1"/>
        <pt x="522" y="265" on="1"/>
        <pt x="672" y="265" on="0"/>
        <pt x="896" y="187" on="0"/>
      </contour>
    </TTGlyph>
    <TTGlyph name="M.tri" xMin="63" yMin="0" xMax="686" yMax="655">
      <contour>
        <pt x="686" y="0" on="1"/>
        <pt x="631" y="0" on="1"/>
        <pt x="631" y="559" on="1"/>
        <pt x="407" y="132" on="1"/>
        <pt x="351" y="132" on="1"/>
        <pt x="118" y="559" on="1"/>
        <pt x="118" y="0" on="1"/>
        <pt x="63" y="0" on="1"/>
        <pt x="63" y="655" on="1"/>
        <pt x="124" y="655" on="1"/>
        <pt x="373" y="199" on="1"/>
        <pt x="384" y="199" on="1"/>
        <pt x="626" y="655" on="1"/>
        <pt x="686" y="655" on="1"/>
      </contour>
    </TTGlyph>
    <TTGlyph name="M.tri.sc" xMin="114" yMin="0" xMax="635" yMax="518">
      <contour>
        <pt x="635" y="0" on="1"/>
        <pt x="590" y="0" on="1"/>
        <pt x="590" y="442" on="1"/>
        <pt x="402" y="104" on="1"/>
        <pt x="355" y="104" on="1"/>
        <pt x="160" y="442" on="1"/>
        <pt x="160" y="0" on="1"/>
        <pt x="114" y="0" on="1"/>
        <pt x="114" y="518" on="1"/>
        <pt x="166" y="518" on="1"/>
        <pt x="374" y="157" on="1"/>
        <pt x="383" y="157" on="1"/>
        <pt x="585" y="518" on="1"/>
        <pt x="635" y="518" on="1"/>
      </contour>
    </TTGlyph>
    <TTGlyph name="N" xMin="31" yMin="0" xMax="469" yMax="655">
      <contour>
        <pt x="375" y="0" on="1"/>
        <pt x="375" y="87" on="1"/>
        <pt x="128" y="493" on="1"/>
        <pt x="125" y="493" on="1"/>
        <pt x="125" y="0" on="1"/>
        <pt x="31" y="0" on="1"/>
        <pt x="31" y="655" on="1"/>
        <pt x="125" y="655" on="1"/>
        <pt x="371" y="245" on="1"/>
        <pt x="375" y="245" on="1"/>
        <pt x="375" y="655" on="1"/>
        <pt x="469" y="655" on="1"/>
        <pt x="469" y="0" on="1"/>
      </contour>
    </TTGlyph>
    <TTGlyph name="N.001" xMin="0" yMin="210" xMax="500" yMax="405">
      <contour>
        <pt x="0" y="210" on="1"/>
        <pt x="0" y="265" on="1"/>
        <pt x="395" y="265" on="1"/>
        <pt x="423" y="265" on="0"/>
        <pt x="448" y="282" on="0"/>
        <pt x="448" y="303" on="1"/>
        <pt x="448" y="405" on="1"/>
        <pt x="500" y="405" on="1"/>
        <pt x="500" y="298" on="1"/>
        <pt x="500" y="256" on="0"/>
        <pt x="456" y="210" on="0"/>
        <pt x="402" y="210" on="1"/>
      </contour>
    </TTGlyph>
    <TTGlyph name="Nacute" xMin="31" yMin="0" xMax="469" yMax="900">
      <contour>
        <pt x="136" y="812" on="1"/>
        <pt x="341" y="900" on="1"/>
        <pt x="375" y="818" on="1"/>
        <pt x="169" y="734" on="1"/>
      </contour>
      <contour>
        <pt x="375" y="0" on="1"/>
        <pt x="375" y="87" on="1"/>
        <pt x="128" y="493" on="1"/>
        <pt x="125" y="493" on="1"/>
        <pt x="125" y="0" on="1"/>
        <pt x="31" y="0" on="1"/>
        <pt x="31" y="655" on="1"/>
        <pt x="125" y="655" on="1"/>
        <pt x="371" y="245" on="1"/>
        <pt x="375" y="245" on="1"/>
        <pt x="375" y="655" on="1"/>
        <pt x="469" y="655" on="1"/>
        <pt x="469" y="0" on="1"/>
      </contour>
    </TTGlyph>
    <TTGlyph name="Ncaron" xMin="31" yMin="0" xMax="469" yMax="882">
      <contour>
        <pt x="419" y="882" on="1"/>
        <pt x="293" y="752" on="1"/>
        <pt x="213" y="752" on="1"/>
        <pt x="87" y="882" on="1"/>
        <pt x="185" y="882" on="1"/>
        <pt x="253" y="812" on="1"/>
        <pt x="321" y="882" on="1"/>
      </contour>
      <contour>
        <pt x="375" y="0" on="1"/>
        <pt x="375" y="87" on="1"/>
        <pt x="128" y="493" on="1"/>
        <pt x="125" y="493" on="1"/>
        <pt x="125" y="0" on="1"/>
        <pt x="31" y="0" on="1"/>
        <pt x="31" y="655" on="1"/>
        <pt x="125" y="655" on="1"/>
        <pt x="371" y="245" on="1"/>
        <pt x="375" y="245" on="1"/>
        <pt x="375" y="655" on="1"/>
        <pt x="469" y="655" on="1"/>
        <pt x="469" y="0" on="1"/>
      </contour>
    </TTGlyph>
    <TTGlyph name="Ncommaaccent" xMin="31" yMin="-251" xMax="469" yMax="655">
      <contour>
        <pt x="199" y="-160" on="1"/>
        <pt x="199" y="-59" on="1"/>
        <pt x="299" y="-59" on="1"/>
        <pt x="299" y="-128" on="1"/>
        <pt x="299" y="-167" on="0"/>
        <pt x="266" y="-222" on="0"/>
        <pt x="227" y="-251" on="1"/>
        <pt x="196" y="-216" on="1"/>
        <pt x="212" y="-202" on="0"/>
        <pt x="230" y="-174" on="0"/>
        <pt x="231" y="-160" on="1"/>
      </contour>
      <contour>
        <pt x="375" y="0" on="1"/>
        <pt x="375" y="87" on="1"/>
        <pt x="128" y="493" on="1"/>
        <pt x="125" y="493" on="1"/>
        <pt x="125" y="0" on="1"/>
        <pt x="31" y="0" on="1"/>
        <pt x="31" y="655" on="1"/>
        <pt x="125" y="655" on="1"/>
        <pt x="371" y="245" on="1"/>
        <pt x="375" y="245" on="1"/>
        <pt x="375" y="655" on="1"/>
        <pt x="469" y="655" on="1"/>
        <pt x="469" y="0" on="1"/>
      </contour>
    </TTGlyph>
    <TTGlyph name="Ntilde" xMin="31" yMin="0" xMax="469" yMax="885">
      <contour>
        <pt x="373" y="870" on="1"/>
        <pt x="414" y="814" on="1"/>
        <pt x="365" y="761" on="0"/>
        <pt x="318" y="761" on="1"/>
        <pt x="283" y="761" on="0"/>
        <pt x="245" y="782" on="1"/>
        <pt x="208" y="804" on="0"/>
        <pt x="164" y="804" on="0"/>
        <pt x="131" y="773" on="1"/>
        <pt x="86" y="828" on="1"/>
        <pt x="145" y="885" on="0"/>
        <pt x="192" y="885" on="1"/>
        <pt x="225" y="885" on="0"/>
        <pt x="264" y="864" on="1"/>
        <pt x="304" y="843" on="0"/>
        <pt x="344" y="843" on="0"/>
      </contour>
      <contour>
        <pt x="375" y="0" on="1"/>
        <pt x="375" y="87" on="1"/>
        <pt x="128" y="493" on="1"/>
        <pt x="125" y="493" on="1"/>
        <pt x="125" y="0" on="1"/>
        <pt x="31" y="0" on="1"/>
        <pt x="31" y="655" on="1"/>
        <pt x="125" y="655" on="1"/>
        <pt x="371" y="245" on="1"/>
        <pt x="375" y="245" on="1"/>
        <pt x="375" y="655" on="1"/>
        <pt x="469" y="655" on="1"/>
        <pt x="469" y="0" on="1"/>
      </contour>
    </TTGlyph>
    <TTGlyph name="O" xMin="25" yMin="-10" xMax="475" yMax="665">
      <contour>
        <pt x="129" y="-10" on="0"/>
        <pt x="25" y="158" on="0"/>
        <pt x="25" y="505" on="0"/>
        <pt x="132" y="665" on="0"/>
        <pt x="373" y="665" on="0"/>
        <pt x="475" y="507" on="0"/>
        <pt x="475" y="152" on="0"/>
        <pt x="373" y="-10" on="0"/>
      </contour>
      <contour>
        <pt x="319" y="84" on="0"/>
        <pt x="369" y="187" on="0"/>
        <pt x="369" y="475" on="0"/>
        <pt x="320" y="571" on="0"/>
        <pt x="185" y="571" on="0"/>
        <pt x="131" y="467" on="0"/>
        <pt x="131" y="200" on="0"/>
        <pt x="179" y="84" on="0"/>
      </contour>
    </TTGlyph>
    <TTGlyph name="O.001" xMin="0" yMin="70" xMax="500" yMax="265">
      <contour>
        <pt x="0" y="210" on="1"/>
        <pt x="0" y="265" on="1"/>
        <pt x="402" y="265" on="1"/>
        <pt x="456" y="265" on="0"/>
        <pt x="500" y="219" on="0"/>
        <pt x="500" y="177" on="1"/>
        <pt x="500" y="70" on="1"/>
        <pt x="448" y="70" on="1"/>
        <pt x="448" y="172" on="1"/>
        <pt x="448" y="193" on="0"/>
        <pt x="423" y="210" on="0"/>
        <pt x="395" y="210" on="1"/>
      </contour>
    </TTGlyph>
    <TTGlyph name="OE" xMin="26" yMin="0" xMax="481" yMax="665">
      <contour>
        <pt x="258" y="665" on="1"/>
        <pt x="478" y="665" on="1"/>
        <pt x="478" y="566" on="1"/>
        <pt x="353" y="566" on="1"/>
        <pt x="353" y="379" on="1"/>
        <pt x="451" y="379" on="1"/>
        <pt x="451" y="289" on="1"/>
        <pt x="353" y="289" on="1"/>
        <pt x="353" y="89" on="1"/>
        <pt x="481" y="89" on="1"/>
        <pt x="481" y="0" on="1"/>
        <pt x="258" y="0" on="1"/>
        <pt x="127" y="0" on="0"/>
        <pt x="26" y="168" on="0"/>
        <pt x="26" y="508" on="0"/>
        <pt x="124" y="665" on="0"/>
      </contour>
      <contour>
        <pt x="128" y="341" on="1"/>
        <pt x="128" y="84" on="0"/>
        <pt x="233" y="84" on="1"/>
        <pt x="249" y="84" on="1"/>
        <pt x="249" y="570" on="1"/>
        <pt x="236" y="571" on="0"/>
        <pt x="233" y="571" on="1"/>
        <pt x="128" y="571" on="0"/>
      </contour>
    </TTGlyph>
    <TTGlyph name="OE.001" xMin="31" yMin="-10" xMax="475" yMax="665">
      <contour>
        <pt x="127" y="-10" on="0"/>
        <pt x="31" y="143" on="0"/>
        <pt x="31" y="509" on="0"/>
        <pt x="132" y="665" on="0"/>
        <pt x="239" y="665" on="1"/>
        <pt x="262" y="665" on="0"/>
        <pt x="294" y="655" on="1"/>
        <pt x="472" y="655" on="1"/>
        <pt x="472" y="561" on="1"/>
        <pt x="353" y="561" on="1"/>
        <pt x="353" y="379" on="1"/>
        <pt x="445" y="379" on="1"/>
        <pt x="445" y="289" on="1"/>
        <pt x="353" y="289" on="1"/>
        <pt x="353" y="94" on="1"/>
        <pt x="475" y="94" on="1"/>
        <pt x="475" y="0" on="1"/>
        <pt x="290" y="0" on="1"/>
        <pt x="262" y="-10" on="0"/>
        <pt x="239" y="-10" on="1"/>
      </contour>
      <contour>
        <pt x="184" y="571" on="0"/>
        <pt x="137" y="471" on="0"/>
        <pt x="137" y="234" on="0"/>
        <pt x="160" y="123" on="0"/>
        <pt x="202" y="84" on="0"/>
        <pt x="239" y="84" on="1"/>
        <pt x="249" y="84" on="1"/>
        <pt x="249" y="571" on="1"/>
        <pt x="239" y="571" on="1"/>
      </contour>
    </TTGlyph>
    <TTGlyph name="Oacute" xMin="25" yMin="-10" xMax="475" yMax="900">
      <contour>
        <pt x="147" y="812" on="1"/>
        <pt x="352" y="900" on="1"/>
        <pt x="386" y="818" on="1"/>
        <pt x="180" y="734" on="1"/>
      </contour>
      <contour>
        <pt x="129" y="-10" on="0"/>
        <pt x="25" y="158" on="0"/>
        <pt x="25" y="505" on="0"/>
        <pt x="132" y="665" on="0"/>
        <pt x="373" y="665" on="0"/>
        <pt x="475" y="507" on="0"/>
        <pt x="475" y="152" on="0"/>
        <pt x="373" y="-10" on="0"/>
      </contour>
      <contour>
        <pt x="319" y="84" on="0"/>
        <pt x="369" y="187" on="0"/>
        <pt x="369" y="475" on="0"/>
        <pt x="320" y="571" on="0"/>
        <pt x="185" y="571" on="0"/>
        <pt x="131" y="467" on="0"/>
        <pt x="131" y="200" on="0"/>
        <pt x="179" y="84" on="0"/>
      </contour>
    </TTGlyph>
    <TTGlyph name="Obreve" xMin="25" yMin="-10" xMax="475" yMax="875">
      <contour>
        <pt x="386" y="754" on="0"/>
        <pt x="116" y="754" on="0"/>
        <pt x="108" y="875" on="1"/>
        <pt x="182" y="875" on="1"/>
        <pt x="187" y="845" on="0"/>
        <pt x="221" y="821" on="0"/>
        <pt x="281" y="821" on="0"/>
        <pt x="315" y="845" on="0"/>
        <pt x="320" y="875" on="1"/>
        <pt x="394" y="875" on="1"/>
      </contour>
      <contour>
        <pt x="129" y="-10" on="0"/>
        <pt x="25" y="158" on="0"/>
        <pt x="25" y="505" on="0"/>
        <pt x="132" y="665" on="0"/>
        <pt x="373" y="665" on="0"/>
        <pt x="475" y="507" on="0"/>
        <pt x="475" y="152" on="0"/>
        <pt x="373" y="-10" on="0"/>
      </contour>
      <contour>
        <pt x="319" y="84" on="0"/>
        <pt x="369" y="187" on="0"/>
        <pt x="369" y="475" on="0"/>
        <pt x="320" y="571" on="0"/>
        <pt x="185" y="571" on="0"/>
        <pt x="131" y="467" on="0"/>
        <pt x="131" y="200" on="0"/>
        <pt x="179" y="84" on="0"/>
      </contour>
    </TTGlyph>
    <TTGlyph name="Ocircumflex" xMin="25" yMin="-10" xMax="475" yMax="882">
      <contour>
        <pt x="87" y="752" on="1"/>
        <pt x="213" y="882" on="1"/>
        <pt x="293" y="882" on="1"/>
        <pt x="419" y="752" on="1"/>
        <pt x="321" y="752" on="1"/>
        <pt x="253" y="822" on="1"/>
        <pt x="185" y="752" on="1"/>
      </contour>
      <contour>
        <pt x="129" y="-10" on="0"/>
        <pt x="25" y="158" on="0"/>
        <pt x="25" y="505" on="0"/>
        <pt x="132" y="665" on="0"/>
        <pt x="373" y="665" on="0"/>
        <pt x="475" y="507" on="0"/>
        <pt x="475" y="152" on="0"/>
        <pt x="373" y="-10" on="0"/>
      </contour>
      <contour>
        <pt x="319" y="84" on="0"/>
        <pt x="369" y="187" on="0"/>
        <pt x="369" y="475" on="0"/>
        <pt x="320" y="571" on="0"/>
        <pt x="185" y="571" on="0"/>
        <pt x="131" y="467" on="0"/>
        <pt x="131" y="200" on="0"/>
        <pt x="179" y="84" on="0"/>
      </contour>
    </TTGlyph>
    <TTGlyph name="Odieresis" xMin="25" yMin="-10" xMax="475" yMax="869">
      <contour>
        <pt x="97" y="789" on="0"/>
        <pt x="97" y="835" on="0"/>
        <pt x="130" y="869" on="0"/>
        <pt x="176" y="869" on="0"/>
        <pt x="209" y="835" on="0"/>
        <pt x="209" y="789" on="0"/>
        <pt x="177" y="755" on="0"/>
        <pt x="129" y="755" on="0"/>
      </contour>
      <contour>
        <pt x="290" y="789" on="0"/>
        <pt x="290" y="835" on="0"/>
        <pt x="322" y="869" on="0"/>
        <pt x="370" y="869" on="0"/>
        <pt x="402" y="835" on="0"/>
        <pt x="402" y="789" on="0"/>
        <pt x="370" y="755" on="0"/>
        <pt x="322" y="755" on="0"/>
      </contour>
      <contour>
        <pt x="129" y="-10" on="0"/>
        <pt x="25" y="158" on="0"/>
        <pt x="25" y="505" on="0"/>
        <pt x="132" y="665" on="0"/>
        <pt x="373" y="665" on="0"/>
        <pt x="475" y="507" on="0"/>
        <pt x="475" y="152" on="0"/>
        <pt x="373" y="-10" on="0"/>
      </contour>
      <contour>
        <pt x="319" y="84" on="0"/>
        <pt x="369" y="187" on="0"/>
        <pt x="369" y="475" on="0"/>
        <pt x="320" y="571" on="0"/>
        <pt x="185" y="571" on="0"/>
        <pt x="131" y="467" on="0"/>
        <pt x="131" y="200" on="0"/>
        <pt x="179" y="84" on="0"/>
      </contour>
    </TTGlyph>
    <TTGlyph name="Ograve" xMin="25" yMin="-10" xMax="475" yMax="901">
      <contour>
        <pt x="168" y="901" on="1"/>
        <pt x="371" y="813" on="1"/>
        <pt x="339" y="735" on="1"/>
        <pt x="132" y="819" on="1"/>
      </contour>
      <contour>
        <pt x="129" y="-10" on="0"/>
        <pt x="25" y="158" on="0"/>
        <pt x="25" y="505" on="0"/>
        <pt x="132" y="665" on="0"/>
        <pt x="373" y="665" on="0"/>
        <pt x="475" y="507" on="0"/>
        <pt x="475" y="152" on="0"/>
        <pt x="373" y="-10" on="0"/>
      </contour>
      <contour>
        <pt x="319" y="84" on="0"/>
        <pt x="369" y="187" on="0"/>
        <pt x="369" y="475" on="0"/>
        <pt x="320" y="571" on="0"/>
        <pt x="185" y="571" on="0"/>
        <pt x="131" y="467" on="0"/>
        <pt x="131" y="200" on="0"/>
        <pt x="179" y="84" on="0"/>
      </contour>
    </TTGlyph>
    <TTGlyph name="Ohungarumlaut" xMin="25" yMin="-10" xMax="480" yMax="874">
      <contour>
        <pt x="44" y="757" on="1"/>
        <pt x="215" y="874" on="1"/>
        <pt x="266" y="791" on="1"/>
        <pt x="90" y="688" on="1"/>
      </contour>
      <contour>
        <pt x="258" y="757" on="1"/>
        <pt x="429" y="874" on="1"/>
        <pt x="480" y="791" on="1"/>
        <pt x="304" y="688" on="1"/>
      </contour>
      <contour>
        <pt x="129" y="-10" on="0"/>
        <pt x="25" y="158" on="0"/>
        <pt x="25" y="505" on="0"/>
        <pt x="132" y="665" on="0"/>
        <pt x="373" y="665" on="0"/>
        <pt x="475" y="507" on="0"/>
        <pt x="475" y="152" on="0"/>
        <pt x="373" y="-10" on="0"/>
      </contour>
      <contour>
        <pt x="319" y="84" on="0"/>
        <pt x="369" y="187" on="0"/>
        <pt x="369" y="475" on="0"/>
        <pt x="320" y="571" on="0"/>
        <pt x="185" y="571" on="0"/>
        <pt x="131" y="467" on="0"/>
        <pt x="131" y="200" on="0"/>
        <pt x="179" y="84" on="0"/>
      </contour>
    </TTGlyph>
    <TTGlyph name="Omacron" xMin="25" yMin="-10" xMax="475" yMax="853">
      <contour>
        <pt x="84" y="853" on="1"/>
        <pt x="417" y="853" on="1"/>
        <pt x="417" y="771" on="1"/>
        <pt x="84" y="771" on="1"/>
      </contour>
      <contour>
        <pt x="129" y="-10" on="0"/>
        <pt x="25" y="158" on="0"/>
        <pt x="25" y="505" on="0"/>
        <pt x="132" y="665" on="0"/>
        <pt x="373" y="665" on="0"/>
        <pt x="475" y="507" on="0"/>
        <pt x="475" y="152" on="0"/>
        <pt x="373" y="-10" on="0"/>
      </contour>
      <contour>
        <pt x="319" y="84" on="0"/>
        <pt x="369" y="187" on="0"/>
        <pt x="369" y="475" on="0"/>
        <pt x="320" y="571" on="0"/>
        <pt x="185" y="571" on="0"/>
        <pt x="131" y="467" on="0"/>
        <pt x="131" y="200" on="0"/>
        <pt x="179" y="84" on="0"/>
      </contour>
    </TTGlyph>
    <TTGlyph name="Omega" xMin="25" yMin="0" xMax="475" yMax="665">
      <contour>
        <pt x="118" y="79" on="1"/>
        <pt x="118" y="84" on="1"/>
        <pt x="25" y="148" on="0"/>
        <pt x="25" y="346" on="1"/>
        <pt x="25" y="512" on="0"/>
        <pt x="122" y="665" on="0"/>
        <pt x="378" y="665" on="0"/>
        <pt x="475" y="511" on="0"/>
        <pt x="475" y="346" on="1"/>
        <pt x="475" y="146" on="0"/>
        <pt x="382" y="84" on="1"/>
        <pt x="382" y="79" on="1"/>
        <pt x="452" y="94" on="1"/>
        <pt x="452" y="0" on="1"/>
        <pt x="279" y="0" on="1"/>
        <pt x="279" y="94" on="1"/>
        <pt x="342" y="110" on="0"/>
        <pt x="358" y="192" on="1"/>
        <pt x="371" y="257" on="0"/>
        <pt x="371" y="377" on="0"/>
        <pt x="369" y="418" on="0"/>
        <pt x="363" y="478" on="0"/>
        <pt x="347" y="517" on="0"/>
        <pt x="321" y="555" on="0"/>
        <pt x="278" y="574" on="0"/>
        <pt x="222" y="574" on="0"/>
        <pt x="179" y="555" on="0"/>
        <pt x="153" y="517" on="0"/>
        <pt x="137" y="478" on="0"/>
        <pt x="134" y="448" on="1"/>
        <pt x="129" y="398" on="0"/>
        <pt x="129" y="298" on="0"/>
        <pt x="134" y="232" on="0"/>
        <pt x="142" y="192" on="1"/>
        <pt x="158" y="112" on="0"/>
        <pt x="221" y="94" on="1"/>
        <pt x="221" y="0" on="1"/>
        <pt x="54" y="0" on="1"/>
        <pt x="54" y="94" on="1"/>
      </contour>
    </TTGlyph>
    <TTGlyph name="Omega.001" xMin="33" yMin="0" xMax="470" yMax="481">
      <contour>
        <pt x="33" y="0" on="1"/>
        <pt x="33" y="76" on="1"/>
        <pt x="143" y="66" on="1"/>
        <pt x="143" y="71" on="1"/>
        <pt x="93" y="98" on="0"/>
        <pt x="38" y="177" on="0"/>
        <pt x="38" y="252" on="1"/>
        <pt x="38" y="355" on="0"/>
        <pt x="153" y="481" on="0"/>
        <pt x="349" y="481" on="0"/>
        <pt x="463" y="359" on="0"/>
        <pt x="463" y="252" on="1"/>
        <pt x="463" y="174" on="0"/>
        <pt x="404" y="94" on="0"/>
        <pt x="352" y="71" on="1"/>
        <pt x="352" y="66" on="1"/>
        <pt x="470" y="76" on="1"/>
        <pt x="470" y="0" on="1"/>
        <pt x="279" y="0" on="1"/>
        <pt x="279" y="77" on="1"/>
        <pt x="327" y="97" on="0"/>
        <pt x="381" y="187" on="0"/>
        <pt x="381" y="325" on="0"/>
        <pt x="310" y="411" on="0"/>
        <pt x="190" y="411" on="0"/>
        <pt x="120" y="327" on="0"/>
        <pt x="120" y="252" on="1"/>
        <pt x="120" y="121" on="0"/>
        <pt x="221" y="79" on="1"/>
        <pt x="221" y="0" on="1"/>
      </contour>
    </TTGlyph>
    <TTGlyph name="Oslash" xMin="25" yMin="-10" xMax="475" yMax="665">
      <contour>
        <pt x="72" y="83" on="1"/>
        <pt x="25" y="164" on="0"/>
        <pt x="25" y="505" on="0"/>
        <pt x="132" y="665" on="0"/>
        <pt x="250" y="665" on="1"/>
        <pt x="334" y="665" on="0"/>
        <pt x="384" y="628" on="1"/>
        <pt x="405" y="665" on="1"/>
        <pt x="466" y="631" on="1"/>
        <pt x="432" y="572" on="1"/>
        <pt x="475" y="493" on="0"/>
        <pt x="475" y="152" on="0"/>
        <pt x="373" y="-10" on="0"/>
        <pt x="250" y="-10" on="1"/>
        <pt x="169" y="-10" on="0"/>
        <pt x="120" y="27" on="1"/>
        <pt x="99" y="-10" on="1"/>
        <pt x="38" y="23" on="1"/>
      </contour>
      <contour>
        <pt x="185" y="571" on="0"/>
        <pt x="131" y="467" on="0"/>
        <pt x="131" y="248" on="0"/>
        <pt x="139" y="200" on="1"/>
        <pt x="333" y="540" on="1"/>
        <pt x="309" y="571" on="0"/>
      </contour>
      <contour>
        <pt x="369" y="334" on="1"/>
        <pt x="369" y="404" on="0"/>
        <pt x="363" y="452" on="1"/>
        <pt x="171" y="116" on="1"/>
        <pt x="197" y="84" on="0"/>
        <pt x="250" y="84" on="1"/>
        <pt x="319" y="84" on="0"/>
        <pt x="369" y="187" on="0"/>
      </contour>
    </TTGlyph>
    <TTGlyph name="Oslashacute" xMin="25" yMin="-10" xMax="475" yMax="900">
      <contour>
        <pt x="147" y="812" on="1"/>
        <pt x="352" y="900" on="1"/>
        <pt x="386" y="818" on="1"/>
        <pt x="180" y="734" on="1"/>
      </contour>
      <contour>
        <pt x="72" y="83" on="1"/>
        <pt x="25" y="164" on="0"/>
        <pt x="25" y="505" on="0"/>
        <pt x="132" y="665" on="0"/>
        <pt x="250" y="665" on="1"/>
        <pt x="334" y="665" on="0"/>
        <pt x="384" y="628" on="1"/>
        <pt x="405" y="665" on="1"/>
        <pt x="466" y="631" on="1"/>
        <pt x="432" y="572" on="1"/>
        <pt x="475" y="493" on="0"/>
        <pt x="475" y="152" on="0"/>
        <pt x="373" y="-10" on="0"/>
        <pt x="250" y="-10" on="1"/>
        <pt x="169" y="-10" on="0"/>
        <pt x="120" y="27" on="1"/>
        <pt x="99" y="-10" on="1"/>
        <pt x="38" y="23" on="1"/>
      </contour>
      <contour>
        <pt x="185" y="571" on="0"/>
        <pt x="131" y="467" on="0"/>
        <pt x="131" y="248" on="0"/>
        <pt x="139" y="200" on="1"/>
        <pt x="333" y="540" on="1"/>
        <pt x="309" y="571" on="0"/>
      </contour>
      <contour>
        <pt x="369" y="334" on="1"/>
        <pt x="369" y="404" on="0"/>
        <pt x="363" y="452" on="1"/>
        <pt x="171" y="116" on="1"/>
        <pt x="197" y="84" on="0"/>
        <pt x="250" y="84" on="1"/>
        <pt x="319" y="84" on="0"/>
        <pt x="369" y="187" on="0"/>
      </contour>
    </TTGlyph>
    <TTGlyph name="Otilde" xMin="25" yMin="-10" xMax="475" yMax="885">
      <contour>
        <pt x="373" y="870" on="1"/>
        <pt x="414" y="814" on="1"/>
        <pt x="365" y="761" on="0"/>
        <pt x="318" y="761" on="1"/>
        <pt x="283" y="761" on="0"/>
        <pt x="207" y="804" on="0"/>
        <pt x="164" y="804" on="0"/>
        <pt x="131" y="773" on="1"/>
        <pt x="86" y="828" on="1"/>
        <pt x="145" y="885" on="0"/>
        <pt x="192" y="885" on="1"/>
        <pt x="225" y="885" on="0"/>
        <pt x="303" y="843" on="0"/>
        <pt x="344" y="843" on="0"/>
      </contour>
      <contour>
        <pt x="129" y="-10" on="0"/>
        <pt x="25" y="158" on="0"/>
        <pt x="25" y="505" on="0"/>
        <pt x="132" y="665" on="0"/>
        <pt x="373" y="665" on="0"/>
        <pt x="475" y="507" on="0"/>
        <pt x="475" y="152" on="0"/>
        <pt x="373" y="-10" on="0"/>
      </contour>
      <contour>
        <pt x="319" y="84" on="0"/>
        <pt x="369" y="187" on="0"/>
        <pt x="369" y="475" on="0"/>
        <pt x="320" y="571" on="0"/>
        <pt x="185" y="571" on="0"/>
        <pt x="131" y="467" on="0"/>
        <pt x="131" y="200" on="0"/>
        <pt x="179" y="84" on="0"/>
      </contour>
    </TTGlyph>
    <TTGlyph name="P" xMin="45" yMin="0" xMax="470" yMax="655">
      <contour>
        <pt x="248" y="210" on="1"/>
        <pt x="149" y="210" on="1"/>
        <pt x="149" y="0" on="1"/>
        <pt x="45" y="0" on="1"/>
        <pt x="45" y="655" on="1"/>
        <pt x="251" y="655" on="1"/>
        <pt x="365" y="655" on="0"/>
        <pt x="470" y="550" on="0"/>
        <pt x="470" y="438" on="1"/>
        <pt x="470" y="210" on="0"/>
      </contour>
      <contour>
        <pt x="235" y="563" on="1"/>
        <pt x="149" y="563" on="1"/>
        <pt x="149" y="305" on="1"/>
        <pt x="235" y="305" on="1"/>
        <pt x="302" y="305" on="0"/>
        <pt x="364" y="368" on="0"/>
        <pt x="364" y="508" on="0"/>
        <pt x="301" y="563" on="0"/>
      </contour>
    </TTGlyph>
    <TTGlyph name="P.001" xMin="0" yMin="210" xMax="1000" yMax="405">
      <contour>
        <pt x="0" y="210" on="1"/>
        <pt x="0" y="265" on="1"/>
        <pt x="895" y="265" on="1"/>
        <pt x="923" y="265" on="0"/>
        <pt x="948" y="282" on="0"/>
        <pt x="948" y="303" on="1"/>
        <pt x="948" y="405" on="1"/>
        <pt x="1000" y="405" on="1"/>
        <pt x="1000" y="298" on="1"/>
        <pt x="1000" y="256" on="0"/>
        <pt x="956" y="210" on="0"/>
        <pt x="902" y="210" on="1"/>
      </contour>
    </TTGlyph>
    <TTGlyph name="Q" xMin="25" yMin="-73" xMax="478" yMax="665">
      <contour>
        <pt x="425" y="-73" on="1"/>
        <pt x="355" y="11" on="1"/>
        <pt x="311" y="-10" on="0"/>
        <pt x="250" y="-10" on="1"/>
        <pt x="130" y="-10" on="0"/>
        <pt x="25" y="155" on="0"/>
        <pt x="25" y="509" on="0"/>
        <pt x="126" y="665" on="0"/>
        <pt x="373" y="665" on="0"/>
        <pt x="475" y="509" on="0"/>
        <pt x="475" y="153" on="0"/>
        <pt x="423" y="71" on="1"/>
        <pt x="478" y="-4" on="1"/>
      </contour>
      <contour>
        <pt x="129" y="212" on="0"/>
        <pt x="180" y="81" on="0"/>
        <pt x="250" y="81" on="1"/>
        <pt x="271" y="81" on="0"/>
        <pt x="284" y="85" on="1"/>
        <pt x="247" y="122" on="1"/>
        <pt x="296" y="205" on="1"/>
        <pt x="348" y="153" on="1"/>
        <pt x="371" y="210" on="0"/>
        <pt x="371" y="336" on="1"/>
        <pt x="372" y="474" on="0"/>
        <pt x="340" y="526" on="1"/>
        <pt x="328" y="546" on="0"/>
        <pt x="281" y="574" on="0"/>
        <pt x="219" y="574" on="0"/>
        <pt x="173" y="547" on="0"/>
        <pt x="148" y="506" on="0"/>
        <pt x="140" y="473" on="1"/>
        <pt x="128" y="422" on="0"/>
      </contour>
    </TTGlyph>
    <TTGlyph name="Q.001" xMin="0" yMin="70" xMax="1000" yMax="265">
      <contour>
        <pt x="0" y="210" on="1"/>
        <pt x="0" y="265" on="1"/>
        <pt x="902" y="265" on="1"/>
        <pt x="956" y="265" on="0"/>
        <pt x="1000" y="219" on="0"/>
        <pt x="1000" y="177" on="1"/>
        <pt x="1000" y="70" on="1"/>
        <pt x="948" y="70" on="1"/>
        <pt x="948" y="172" on="1"/>
        <pt x="948" y="193" on="0"/>
        <pt x="923" y="210" on="0"/>
        <pt x="895" y="210" on="1"/>
      </contour>
    </TTGlyph>
    <TTGlyph name="Q.calt" xMin="25" yMin="-11" xMax="481" yMax="665">
      <contour>
        <pt x="129" y="-10" on="0"/>
        <pt x="25" y="158" on="0"/>
        <pt x="25" y="505" on="0"/>
        <pt x="132" y="665" on="0"/>
        <pt x="373" y="665" on="0"/>
        <pt x="475" y="507" on="0"/>
        <pt x="475" y="174" on="0"/>
        <pt x="436" y="93" on="1"/>
        <pt x="481" y="46" on="1"/>
        <pt x="422" y="-11" on="1"/>
        <pt x="388" y="30" on="1"/>
        <pt x="338" y="-10" on="0"/>
        <pt x="250" y="-10" on="1"/>
      </contour>
      <contour>
        <pt x="185" y="571" on="0"/>
        <pt x="131" y="467" on="0"/>
        <pt x="131" y="200" on="0"/>
        <pt x="179" y="84" on="0"/>
        <pt x="250" y="84" on="1"/>
        <pt x="299" y="84" on="0"/>
        <pt x="323" y="107" on="1"/>
        <pt x="228" y="211" on="1"/>
        <pt x="293" y="265" on="1"/>
        <pt x="358" y="183" on="1"/>
        <pt x="369" y="234" on="0"/>
        <pt x="369" y="475" on="0"/>
        <pt x="320" y="571" on="0"/>
      </contour>
    </TTGlyph>
    <TTGlyph name="R" xMin="37" yMin="0" xMax="468" yMax="655">
      <contour>
        <pt x="248" y="239" on="1"/>
        <pt x="194" y="236" on="0"/>
        <pt x="188" y="236" on="1"/>
        <pt x="141" y="236" on="1"/>
        <pt x="141" y="0" on="1"/>
        <pt x="37" y="0" on="1"/>
        <pt x="37" y="655" on="1"/>
        <pt x="243" y="655" on="1"/>
        <pt x="352" y="655" on="0"/>
        <pt x="464" y="558" on="0"/>
        <pt x="464" y="445" on="1"/>
        <pt x="464" y="315" on="0"/>
        <pt x="352" y="262" on="1"/>
        <pt x="421" y="131" on="0"/>
        <pt x="468" y="0" on="1"/>
        <pt x="356" y="0" on="1"/>
        <pt x="311" y="121" on="0"/>
      </contour>
      <contour>
        <pt x="223" y="563" on="1"/>
        <pt x="141" y="563" on="1"/>
        <pt x="141" y="332" on="1"/>
        <pt x="224" y="332" on="1"/>
        <pt x="358" y="332" on="0"/>
        <pt x="358" y="445" on="1"/>
        <pt x="358" y="508" on="0"/>
        <pt x="294" y="563" on="0"/>
      </contour>
    </TTGlyph>
    <TTGlyph name="R.001" xMin="0" yMin="209" xMax="500" yMax="415">
      <contour>
        <pt x="0" y="265" on="1"/>
        <pt x="452" y="264" on="1"/>
        <pt x="452" y="415" on="1"/>
        <pt x="500" y="415" on="1"/>
        <pt x="500" y="209" on="1"/>
        <pt x="0" y="210" on="1"/>
      </contour>
    </TTGlyph>
    <TTGlyph name="Racute" xMin="37" yMin="0" xMax="468" yMax="900">
      <contour>
        <pt x="116" y="812" on="1"/>
        <pt x="321" y="900" on="1"/>
        <pt x="355" y="818" on="1"/>
        <pt x="149" y="734" on="1"/>
      </contour>
      <contour>
        <pt x="248" y="239" on="1"/>
        <pt x="194" y="236" on="0"/>
        <pt x="188" y="236" on="1"/>
        <pt x="141" y="236" on="1"/>
        <pt x="141" y="0" on="1"/>
        <pt x="37" y="0" on="1"/>
        <pt x="37" y="655" on="1"/>
        <pt x="243" y="655" on="1"/>
        <pt x="352" y="655" on="0"/>
        <pt x="464" y="558" on="0"/>
        <pt x="464" y="445" on="1"/>
        <pt x="464" y="315" on="0"/>
        <pt x="352" y="262" on="1"/>
        <pt x="421" y="131" on="0"/>
        <pt x="468" y="0" on="1"/>
        <pt x="356" y="0" on="1"/>
        <pt x="311" y="121" on="0"/>
      </contour>
      <contour>
        <pt x="223" y="563" on="1"/>
        <pt x="141" y="563" on="1"/>
        <pt x="141" y="332" on="1"/>
        <pt x="224" y="332" on="1"/>
        <pt x="358" y="332" on="0"/>
        <pt x="358" y="445" on="1"/>
        <pt x="358" y="508" on="0"/>
        <pt x="294" y="563" on="0"/>
      </contour>
    </TTGlyph>
    <TTGlyph name="Rcaron" xMin="37" yMin="0" xMax="468" yMax="882">
      <contour>
        <pt x="399" y="882" on="1"/>
        <pt x="273" y="752" on="1"/>
        <pt x="193" y="752" on="1"/>
        <pt x="67" y="882" on="1"/>
        <pt x="165" y="882" on="1"/>
        <pt x="233" y="812" on="1"/>
        <pt x="301" y="882" on="1"/>
      </contour>
      <contour>
        <pt x="248" y="239" on="1"/>
        <pt x="194" y="236" on="0"/>
        <pt x="188" y="236" on="1"/>
        <pt x="141" y="236" on="1"/>
        <pt x="141" y="0" on="1"/>
        <pt x="37" y="0" on="1"/>
        <pt x="37" y="655" on="1"/>
        <pt x="243" y="655" on="1"/>
        <pt x="352" y="655" on="0"/>
        <pt x="464" y="558" on="0"/>
        <pt x="464" y="445" on="1"/>
        <pt x="464" y="315" on="0"/>
        <pt x="352" y="262" on="1"/>
        <pt x="421" y="131" on="0"/>
        <pt x="468" y="0" on="1"/>
        <pt x="356" y="0" on="1"/>
        <pt x="311" y="121" on="0"/>
      </contour>
      <contour>
        <pt x="223" y="563" on="1"/>
        <pt x="141" y="563" on="1"/>
        <pt x="141" y="332" on="1"/>
        <pt x="224" y="332" on="1"/>
        <pt x="358" y="332" on="0"/>
        <pt x="358" y="445" on="1"/>
        <pt x="358" y="508" on="0"/>
        <pt x="294" y="563" on="0"/>
      </contour>
    </TTGlyph>
    <TTGlyph name="Rcommaaccent" xMin="37" yMin="-251" xMax="468" yMax="655">
      <contour>
        <pt x="201" y="-160" on="1"/>
        <pt x="201" y="-59" on="1"/>
        <pt x="301" y="-59" on="1"/>
        <pt x="301" y="-128" on="1"/>
        <pt x="301" y="-167" on="0"/>
        <pt x="268" y="-222" on="0"/>
        <pt x="229" y="-251" on="1"/>
        <pt x="198" y="-216" on="1"/>
        <pt x="214" y="-202" on="0"/>
        <pt x="232" y="-174" on="0"/>
        <pt x="233" y="-160" on="1"/>
      </contour>
      <contour>
        <pt x="248" y="239" on="1"/>
        <pt x="194" y="236" on="0"/>
        <pt x="188" y="236" on="1"/>
        <pt x="141" y="236" on="1"/>
        <pt x="141" y="0" on="1"/>
        <pt x="37" y="0" on="1"/>
        <pt x="37" y="655" on="1"/>
        <pt x="243" y="655" on="1"/>
        <pt x="352" y="655" on="0"/>
        <pt x="464" y="558" on="0"/>
        <pt x="464" y="445" on="1"/>
        <pt x="464" y="315" on="0"/>
        <pt x="352" y="262" on="1"/>
        <pt x="421" y="131" on="0"/>
        <pt x="468" y="0" on="1"/>
        <pt x="356" y="0" on="1"/>
        <pt x="311" y="121" on="0"/>
      </contour>
      <contour>
        <pt x="223" y="563" on="1"/>
        <pt x="141" y="563" on="1"/>
        <pt x="141" y="332" on="1"/>
        <pt x="224" y="332" on="1"/>
        <pt x="358" y="332" on="0"/>
        <pt x="358" y="445" on="1"/>
        <pt x="358" y="508" on="0"/>
        <pt x="294" y="563" on="0"/>
      </contour>
    </TTGlyph>
    <TTGlyph name="S" xMin="42" yMin="-9" xMax="458" yMax="665">
      <contour>
        <pt x="42" y="480" on="1"/>
        <pt x="42" y="665" on="0"/>
        <pt x="264" y="665" on="1"/>
        <pt x="342" y="665" on="0"/>
        <pt x="442" y="630" on="1"/>
        <pt x="419" y="539" on="1"/>
        <pt x="317" y="571" on="0"/>
        <pt x="200" y="572" on="0"/>
        <pt x="148" y="532" on="0"/>
        <pt x="148" y="482" on="1"/>
        <pt x="148" y="448" on="0"/>
        <pt x="206" y="401" on="0"/>
        <pt x="275" y="383" on="1"/>
        <pt x="380" y="355" on="0"/>
        <pt x="458" y="267" on="0"/>
        <pt x="458" y="180" on="1"/>
        <pt x="458" y="-9" on="0"/>
        <pt x="232" y="-9" on="1"/>
        <pt x="157" y="-9" on="0"/>
        <pt x="43" y="23" on="1"/>
        <pt x="64" y="118" on="1"/>
        <pt x="64" y="117" on="0"/>
        <pt x="95" y="109" on="1"/>
        <pt x="192" y="84" on="0"/>
        <pt x="299" y="84" on="0"/>
        <pt x="352" y="138" on="0"/>
        <pt x="352" y="220" on="0"/>
        <pt x="307" y="264" on="0"/>
        <pt x="247" y="281" on="1"/>
        <pt x="139" y="311" on="0"/>
        <pt x="42" y="399" on="0"/>
      </contour>
    </TTGlyph>
    <TTGlyph name="S.001" xMin="0" yMin="60" xMax="500" yMax="266">
      <contour>
        <pt x="452" y="211" on="1"/>
        <pt x="0" y="210" on="1"/>
        <pt x="0" y="265" on="1"/>
        <pt x="500" y="266" on="1"/>
        <pt x="500" y="60" on="1"/>
        <pt x="452" y="60" on="1"/>
      </contour>
    </TTGlyph>
    <TTGlyph name="Sacute" xMin="42" yMin="-9" xMax="458" yMax="880">
      <contour>
        <pt x="148" y="779" on="1"/>
        <pt x="329" y="880" on="1"/>
        <pt x="372" y="793" on="1"/>
        <pt x="188" y="706" on="1"/>
      </contour>
      <contour>
        <pt x="42" y="480" on="1"/>
        <pt x="42" y="665" on="0"/>
        <pt x="264" y="665" on="1"/>
        <pt x="342" y="665" on="0"/>
        <pt x="442" y="630" on="1"/>
        <pt x="419" y="539" on="1"/>
        <pt x="317" y="571" on="0"/>
        <pt x="200" y="572" on="0"/>
        <pt x="148" y="532" on="0"/>
        <pt x="148" y="482" on="1"/>
        <pt x="148" y="448" on="0"/>
        <pt x="206" y="401" on="0"/>
        <pt x="275" y="383" on="1"/>
        <pt x="380" y="355" on="0"/>
        <pt x="458" y="267" on="0"/>
        <pt x="458" y="180" on="1"/>
        <pt x="458" y="-9" on="0"/>
        <pt x="232" y="-9" on="1"/>
        <pt x="157" y="-9" on="0"/>
        <pt x="43" y="23" on="1"/>
        <pt x="64" y="118" on="1"/>
        <pt x="64" y="117" on="0"/>
        <pt x="95" y="109" on="1"/>
        <pt x="192" y="84" on="0"/>
        <pt x="299" y="84" on="0"/>
        <pt x="352" y="138" on="0"/>
        <pt x="352" y="220" on="0"/>
        <pt x="307" y="264" on="0"/>
        <pt x="247" y="281" on="1"/>
        <pt x="139" y="311" on="0"/>
        <pt x="42" y="399" on="0"/>
      </contour>
    </TTGlyph>
    <TTGlyph name="Scaron" xMin="42" yMin="-9" xMax="458" yMax="882">
      <contour>
        <pt x="409" y="882" on="1"/>
        <pt x="283" y="752" on="1"/>
        <pt x="203" y="752" on="1"/>
        <pt x="77" y="882" on="1"/>
        <pt x="175" y="882" on="1"/>
        <pt x="243" y="812" on="1"/>
        <pt x="311" y="882" on="1"/>
      </contour>
      <contour>
        <pt x="42" y="480" on="1"/>
        <pt x="42" y="665" on="0"/>
        <pt x="264" y="665" on="1"/>
        <pt x="342" y="665" on="0"/>
        <pt x="442" y="630" on="1"/>
        <pt x="419" y="539" on="1"/>
        <pt x="317" y="571" on="0"/>
        <pt x="200" y="572" on="0"/>
        <pt x="148" y="532" on="0"/>
        <pt x="148" y="482" on="1"/>
        <pt x="148" y="448" on="0"/>
        <pt x="206" y="401" on="0"/>
        <pt x="275" y="383" on="1"/>
        <pt x="380" y="355" on="0"/>
        <pt x="458" y="267" on="0"/>
        <pt x="458" y="180" on="1"/>
        <pt x="458" y="-9" on="0"/>
        <pt x="232" y="-9" on="1"/>
        <pt x="157" y="-9" on="0"/>
        <pt x="43" y="23" on="1"/>
        <pt x="64" y="118" on="1"/>
        <pt x="64" y="117" on="0"/>
        <pt x="95" y="109" on="1"/>
        <pt x="192" y="84" on="0"/>
        <pt x="299" y="84" on="0"/>
        <pt x="352" y="138" on="0"/>
        <pt x="352" y="220" on="0"/>
        <pt x="307" y="264" on="0"/>
        <pt x="247" y="281" on="1"/>
        <pt x="139" y="311" on="0"/>
        <pt x="42" y="399" on="0"/>
      </contour>
    </TTGlyph>
    <TTGlyph name="Scedilla" xMin="42" yMin="-257" xMax="458" yMax="665">
      <contour>
        <pt x="274" y="-42" on="0"/>
        <pt x="337" y="-97" on="0"/>
        <pt x="337" y="-200" on="0"/>
        <pt x="277" y="-257" on="0"/>
        <pt x="225" y="-257" on="1"/>
        <pt x="204" y="-257" on="0"/>
        <pt x="164" y="-250" on="1"/>
        <pt x="172" y="-187" on="1"/>
        <pt x="207" y="-190" on="0"/>
        <pt x="218" y="-190" on="1"/>
        <pt x="263" y="-190" on="0"/>
        <pt x="263" y="-148" on="1"/>
        <pt x="263" y="-126" on="0"/>
        <pt x="242" y="-108" on="0"/>
        <pt x="218" y="-108" on="1"/>
        <pt x="176" y="-111" on="1"/>
        <pt x="167" y="-50" on="1"/>
        <pt x="199" y="-42" on="0"/>
        <pt x="225" y="-42" on="1"/>
      </contour>
      <contour>
        <pt x="42" y="480" on="1"/>
        <pt x="42" y="665" on="0"/>
        <pt x="264" y="665" on="1"/>
        <pt x="342" y="665" on="0"/>
        <pt x="442" y="630" on="1"/>
        <pt x="419" y="539" on="1"/>
        <pt x="317" y="571" on="0"/>
        <pt x="200" y="572" on="0"/>
        <pt x="148" y="532" on="0"/>
        <pt x="148" y="482" on="1"/>
        <pt x="148" y="448" on="0"/>
        <pt x="206" y="401" on="0"/>
        <pt x="275" y="383" on="1"/>
        <pt x="380" y="355" on="0"/>
        <pt x="458" y="267" on="0"/>
        <pt x="458" y="180" on="1"/>
        <pt x="458" y="-9" on="0"/>
        <pt x="232" y="-9" on="1"/>
        <pt x="157" y="-9" on="0"/>
        <pt x="43" y="23" on="1"/>
        <pt x="64" y="118" on="1"/>
        <pt x="64" y="117" on="0"/>
        <pt x="95" y="109" on="1"/>
        <pt x="192" y="84" on="0"/>
        <pt x="299" y="84" on="0"/>
        <pt x="352" y="138" on="0"/>
        <pt x="352" y="220" on="0"/>
        <pt x="307" y="264" on="0"/>
        <pt x="247" y="281" on="1"/>
        <pt x="139" y="311" on="0"/>
        <pt x="42" y="399" on="0"/>
      </contour>
    </TTGlyph>
    <TTGlyph name="Scircumflex" xMin="42" yMin="-9" xMax="458" yMax="882">
      <contour>
        <pt x="87" y="752" on="1"/>
        <pt x="213" y="882" on="1"/>
        <pt x="293" y="882" on="1"/>
        <pt x="419" y="752" on="1"/>
        <pt x="321" y="752" on="1"/>
        <pt x="253" y="822" on="1"/>
        <pt x="185" y="752" on="1"/>
      </contour>
      <contour>
        <pt x="42" y="480" on="1"/>
        <pt x="42" y="665" on="0"/>
        <pt x="264" y="665" on="1"/>
        <pt x="342" y="665" on="0"/>
        <pt x="442" y="630" on="1"/>
        <pt x="419" y="539" on="1"/>
        <pt x="317" y="571" on="0"/>
        <pt x="200" y="572" on="0"/>
        <pt x="148" y="532" on="0"/>
        <pt x="148" y="482" on="1"/>
        <pt x="148" y="448" on="0"/>
        <pt x="206" y="401" on="0"/>
        <pt x="275" y="383" on="1"/>
        <pt x="380" y="355" on="0"/>
        <pt x="458" y="267" on="0"/>
        <pt x="458" y="180" on="1"/>
        <pt x="458" y="-9" on="0"/>
        <pt x="232" y="-9" on="1"/>
        <pt x="157" y="-9" on="0"/>
        <pt x="43" y="23" on="1"/>
        <pt x="64" y="118" on="1"/>
        <pt x="64" y="117" on="0"/>
        <pt x="95" y="109" on="1"/>
        <pt x="192" y="84" on="0"/>
        <pt x="299" y="84" on="0"/>
        <pt x="352" y="138" on="0"/>
        <pt x="352" y="220" on="0"/>
        <pt x="307" y="264" on="0"/>
        <pt x="247" y="281" on="1"/>
        <pt x="139" y="311" on="0"/>
        <pt x="42" y="399" on="0"/>
      </contour>
    </TTGlyph>
    <TTGlyph name="Scommaaccent" xMin="42" yMin="-251" xMax="458" yMax="665">
      <contour>
        <pt x="181" y="-160" on="1"/>
        <pt x="181" y="-59" on="1"/>
        <pt x="281" y="-59" on="1"/>
        <pt x="281" y="-128" on="1"/>
        <pt x="281" y="-167" on="0"/>
        <pt x="248" y="-222" on="0"/>
        <pt x="209" y="-251" on="1"/>
        <pt x="178" y="-216" on="1"/>
        <pt x="194" y="-202" on="0"/>
        <pt x="212" y="-174" on="0"/>
        <pt x="213" y="-160" on="1"/>
      </contour>
      <contour>
        <pt x="42" y="480" on="1"/>
        <pt x="42" y="665" on="0"/>
        <pt x="264" y="665" on="1"/>
        <pt x="342" y="665" on="0"/>
        <pt x="442" y="630" on="1"/>
        <pt x="419" y="539" on="1"/>
        <pt x="317" y="571" on="0"/>
        <pt x="200" y="572" on="0"/>
        <pt x="148" y="532" on="0"/>
        <pt x="148" y="482" on="1"/>
        <pt x="148" y="448" on="0"/>
        <pt x="206" y="401" on="0"/>
        <pt x="275" y="383" on="1"/>
        <pt x="380" y="355" on="0"/>
        <pt x="458" y="267" on="0"/>
        <pt x="458" y="180" on="1"/>
        <pt x="458" y="-9" on="0"/>
        <pt x="232" y="-9" on="1"/>
        <pt x="157" y="-9" on="0"/>
        <pt x="43" y="23" on="1"/>
        <pt x="64" y="118" on="1"/>
        <pt x="64" y="117" on="0"/>
        <pt x="95" y="109" on="1"/>
        <pt x="192" y="84" on="0"/>
        <pt x="299" y="84" on="0"/>
        <pt x="352" y="138" on="0"/>
        <pt x="352" y="220" on="0"/>
        <pt x="307" y="264" on="0"/>
        <pt x="247" y="281" on="1"/>
        <pt x="139" y="311" on="0"/>
        <pt x="42" y="399" on="0"/>
      </contour>
    </TTGlyph>
    <TTGlyph name="T" xMin="28" yMin="0" xMax="470" yMax="655">
      <contour>
        <pt x="28" y="561" on="1"/>
        <pt x="28" y="655" on="1"/>
        <pt x="470" y="655" on="1"/>
        <pt x="470" y="561" on="1"/>
        <pt x="301" y="561" on="1"/>
        <pt x="301" y="0" on="1"/>
        <pt x="197" y="0" on="1"/>
        <pt x="197" y="561" on="1"/>
      </contour>
    </TTGlyph>
    <TTGlyph name="T.001" xMin="0" yMin="209" xMax="1000" yMax="415">
      <contour>
        <pt x="0" y="265" on="1"/>
        <pt x="952" y="264" on="1"/>
        <pt x="952" y="415" on="1"/>
        <pt x="1000" y="415" on="1"/>
        <pt x="1000" y="209" on="1"/>
        <pt x="0" y="210" on="1"/>
      </contour>
    </TTGlyph>
    <TTGlyph name="Tbar" xMin="28" yMin="0" xMax="470" yMax="655">
      <contour>
        <pt x="84" y="454" on="1"/>
        <pt x="417" y="454" on="1"/>
        <pt x="417" y="372" on="1"/>
        <pt x="84" y="372" on="1"/>
      </contour>
      <contour>
        <pt x="28" y="561" on="1"/>
        <pt x="28" y="655" on="1"/>
        <pt x="470" y="655" on="1"/>
        <pt x="470" y="561" on="1"/>
        <pt x="301" y="561" on="1"/>
        <pt x="301" y="0" on="1"/>
        <pt x="197" y="0" on="1"/>
        <pt x="197" y="561" on="1"/>
      </contour>
    </TTGlyph>
    <TTGlyph name="Tcaron" xMin="28" yMin="0" xMax="470" yMax="882">
      <contour>
        <pt x="419" y="882" on="1"/>
        <pt x="293" y="752" on="1"/>
        <pt x="213" y="752" on="1"/>
        <pt x="87" y="882" on="1"/>
        <pt x="185" y="882" on="1"/>
        <pt x="253" y="812" on="1"/>
        <pt x="321" y="882" on="1"/>
      </contour>
      <contour>
        <pt x="28" y="561" on="1"/>
        <pt x="28" y="655" on="1"/>
        <pt x="470" y="655" on="1"/>
        <pt x="470" y="561" on="1"/>
        <pt x="301" y="561" on="1"/>
        <pt x="301" y="0" on="1"/>
        <pt x="197" y="0" on="1"/>
        <pt x="197" y="561" on="1"/>
      </contour>
    </TTGlyph>
    <TTGlyph name="Tcommaaccent" xMin="28" yMin="-251" xMax="470" yMax="655">
      <contour>
        <pt x="201" y="-160" on="1"/>
        <pt x="201" y="-59" on="1"/>
        <pt x="301" y="-59" on="1"/>
        <pt x="301" y="-128" on="1"/>
        <pt x="301" y="-167" on="0"/>
        <pt x="268" y="-222" on="0"/>
        <pt x="229" y="-251" on="1"/>
        <pt x="198" y="-216" on="1"/>
        <pt x="214" y="-202" on="0"/>
        <pt x="232" y="-174" on="0"/>
        <pt x="233" y="-160" on="1"/>
      </contour>
      <contour>
        <pt x="28" y="561" on="1"/>
        <pt x="28" y="655" on="1"/>
        <pt x="470" y="655" on="1"/>
        <pt x="470" y="561" on="1"/>
        <pt x="301" y="561" on="1"/>
        <pt x="301" y="0" on="1"/>
        <pt x="197" y="0" on="1"/>
        <pt x="197" y="561" on="1"/>
      </contour>
    </TTGlyph>
    <TTGlyph name="Thorn" xMin="44" yMin="0" xMax="425" yMax="655">
      <contour>
        <pt x="143" y="115" on="1"/>
        <pt x="143" y="0" on="1"/>
        <pt x="44" y="0" on="1"/>
        <pt x="44" y="655" on="1"/>
        <pt x="143" y="655" on="1"/>
        <pt x="143" y="550" on="1"/>
        <pt x="224" y="550" on="1"/>
        <pt x="281" y="550" on="0"/>
        <pt x="370" y="502" on="0"/>
        <pt x="415" y="425" on="0"/>
        <pt x="435" y="333" on="0"/>
        <pt x="412" y="240" on="0"/>
        <pt x="366" y="163" on="0"/>
        <pt x="277" y="115" on="0"/>
        <pt x="222" y="115" on="1"/>
      </contour>
      <contour>
        <pt x="204" y="460" on="1"/>
        <pt x="143" y="460" on="1"/>
        <pt x="143" y="205" on="1"/>
        <pt x="202" y="205" on="1"/>
        <pt x="246" y="205" on="0"/>
        <pt x="306" y="258" on="0"/>
        <pt x="320" y="332" on="0"/>
        <pt x="307" y="407" on="0"/>
        <pt x="248" y="460" on="0"/>
      </contour>
    </TTGlyph>
    <TTGlyph name="Thorn.calt" xMin="45" yMin="0" xMax="470" yMax="655">
      <contour>
        <pt x="45" y="0" on="1"/>
        <pt x="45" y="655" on="1"/>
        <pt x="149" y="655" on="1"/>
        <pt x="149" y="564" on="1"/>
        <pt x="251" y="564" on="1"/>
        <pt x="364" y="564" on="0"/>
        <pt x="470" y="460" on="0"/>
        <pt x="470" y="352" on="1"/>
        <pt x="470" y="119" on="0"/>
        <pt x="248" y="119" on="1"/>
        <pt x="149" y="119" on="1"/>
        <pt x="149" y="0" on="1"/>
      </contour>
      <contour>
        <pt x="304" y="214" on="0"/>
        <pt x="364" y="277" on="0"/>
        <pt x="364" y="418" on="0"/>
        <pt x="302" y="472" on="0"/>
        <pt x="235" y="472" on="1"/>
        <pt x="149" y="472" on="1"/>
        <pt x="149" y="214" on="1"/>
        <pt x="235" y="214" on="1"/>
      </contour>
    </TTGlyph>
    <TTGlyph name="U" xMin="26" yMin="-9" xMax="473" yMax="655">
      <contour>
        <pt x="26" y="220" on="1"/>
        <pt x="26" y="655" on="1"/>
        <pt x="131" y="655" on="1"/>
        <pt x="131" y="232" on="1"/>
        <pt x="131" y="155" on="0"/>
        <pt x="156" y="120" on="1"/>
        <pt x="180" y="85" on="0"/>
        <pt x="316" y="85" on="0"/>
        <pt x="368" y="153" on="0"/>
        <pt x="368" y="232" on="1"/>
        <pt x="368" y="655" on="1"/>
        <pt x="473" y="655" on="1"/>
        <pt x="473" y="220" on="1"/>
        <pt x="473" y="103" on="0"/>
        <pt x="372" y="-9" on="0"/>
        <pt x="120" y="-9" on="0"/>
        <pt x="26" y="105" on="0"/>
      </contour>
    </TTGlyph>
    <TTGlyph name="U.001" xMin="0" yMin="60" xMax="1000" yMax="266">
      <contour>
        <pt x="952" y="211" on="1"/>
        <pt x="0" y="210" on="1"/>
        <pt x="0" y="265" on="1"/>
        <pt x="1000" y="266" on="1"/>
        <pt x="1000" y="60" on="1"/>
        <pt x="952" y="60" on="1"/>
      </contour>
    </TTGlyph>
    <TTGlyph name="Uacute" xMin="26" yMin="-9" xMax="473" yMax="900">
      <contour>
        <pt x="151" y="812" on="1"/>
        <pt x="356" y="900" on="1"/>
        <pt x="390" y="818" on="1"/>
        <pt x="184" y="734" on="1"/>
      </contour>
      <contour>
        <pt x="26" y="220" on="1"/>
        <pt x="26" y="655" on="1"/>
        <pt x="131" y="655" on="1"/>
        <pt x="131" y="232" on="1"/>
        <pt x="131" y="155" on="0"/>
        <pt x="156" y="120" on="1"/>
        <pt x="180" y="85" on="0"/>
        <pt x="316" y="85" on="0"/>
        <pt x="368" y="153" on="0"/>
        <pt x="368" y="232" on="1"/>
        <pt x="368" y="655" on="1"/>
        <pt x="473" y="655" on="1"/>
        <pt x="473" y="220" on="1"/>
        <pt x="473" y="103" on="0"/>
        <pt x="372" y="-9" on="0"/>
        <pt x="120" y="-9" on="0"/>
        <pt x="26" y="105" on="0"/>
      </contour>
    </TTGlyph>
    <TTGlyph name="Ubreve" xMin="26" yMin="-9" xMax="473" yMax="875">
      <contour>
        <pt x="385" y="754" on="0"/>
        <pt x="115" y="754" on="0"/>
        <pt x="107" y="875" on="1"/>
        <pt x="181" y="875" on="1"/>
        <pt x="186" y="845" on="0"/>
        <pt x="220" y="821" on="0"/>
        <pt x="280" y="821" on="0"/>
        <pt x="314" y="845" on="0"/>
        <pt x="319" y="875" on="1"/>
        <pt x="393" y="875" on="1"/>
      </contour>
      <contour>
        <pt x="26" y="220" on="1"/>
        <pt x="26" y="655" on="1"/>
        <pt x="131" y="655" on="1"/>
        <pt x="131" y="232" on="1"/>
        <pt x="131" y="155" on="0"/>
        <pt x="156" y="120" on="1"/>
        <pt x="180" y="85" on="0"/>
        <pt x="316" y="85" on="0"/>
        <pt x="368" y="153" on="0"/>
        <pt x="368" y="232" on="1"/>
        <pt x="368" y="655" on="1"/>
        <pt x="473" y="655" on="1"/>
        <pt x="473" y="220" on="1"/>
        <pt x="473" y="103" on="0"/>
        <pt x="372" y="-9" on="0"/>
        <pt x="120" y="-9" on="0"/>
        <pt x="26" y="105" on="0"/>
      </contour>
    </TTGlyph>
    <TTGlyph name="Ucircumflex" xMin="26" yMin="-9" xMax="473" yMax="882">
      <contour>
        <pt x="87" y="752" on="1"/>
        <pt x="213" y="882" on="1"/>
        <pt x="293" y="882" on="1"/>
        <pt x="419" y="752" on="1"/>
        <pt x="321" y="752" on="1"/>
        <pt x="253" y="822" on="1"/>
        <pt x="185" y="752" on="1"/>
      </contour>
      <contour>
        <pt x="26" y="220" on="1"/>
        <pt x="26" y="655" on="1"/>
        <pt x="131" y="655" on="1"/>
        <pt x="131" y="232" on="1"/>
        <pt x="131" y="155" on="0"/>
        <pt x="156" y="120" on="1"/>
        <pt x="180" y="85" on="0"/>
        <pt x="316" y="85" on="0"/>
        <pt x="368" y="153" on="0"/>
        <pt x="368" y="232" on="1"/>
        <pt x="368" y="655" on="1"/>
        <pt x="473" y="655" on="1"/>
        <pt x="473" y="220" on="1"/>
        <pt x="473" y="103" on="0"/>
        <pt x="372" y="-9" on="0"/>
        <pt x="120" y="-9" on="0"/>
        <pt x="26" y="105" on="0"/>
      </contour>
    </TTGlyph>
    <TTGlyph name="Udieresis" xMin="26" yMin="-9" xMax="473" yMax="869">
      <contour>
        <pt x="97" y="789" on="0"/>
        <pt x="97" y="835" on="0"/>
        <pt x="130" y="869" on="0"/>
        <pt x="176" y="869" on="0"/>
        <pt x="209" y="835" on="0"/>
        <pt x="209" y="789" on="0"/>
        <pt x="177" y="755" on="0"/>
        <pt x="129" y="755" on="0"/>
      </contour>
      <contour>
        <pt x="290" y="789" on="0"/>
        <pt x="290" y="835" on="0"/>
        <pt x="322" y="869" on="0"/>
        <pt x="370" y="869" on="0"/>
        <pt x="402" y="835" on="0"/>
        <pt x="402" y="789" on="0"/>
        <pt x="370" y="755" on="0"/>
        <pt x="322" y="755" on="0"/>
      </contour>
      <contour>
        <pt x="26" y="220" on="1"/>
        <pt x="26" y="655" on="1"/>
        <pt x="131" y="655" on="1"/>
        <pt x="131" y="232" on="1"/>
        <pt x="131" y="155" on="0"/>
        <pt x="156" y="120" on="1"/>
        <pt x="180" y="85" on="0"/>
        <pt x="316" y="85" on="0"/>
        <pt x="368" y="153" on="0"/>
        <pt x="368" y="232" on="1"/>
        <pt x="368" y="655" on="1"/>
        <pt x="473" y="655" on="1"/>
        <pt x="473" y="220" on="1"/>
        <pt x="473" y="103" on="0"/>
        <pt x="372" y="-9" on="0"/>
        <pt x="120" y="-9" on="0"/>
        <pt x="26" y="105" on="0"/>
      </contour>
    </TTGlyph>
    <TTGlyph name="Ugrave" xMin="26" yMin="-9" xMax="473" yMax="901">
      <contour>
        <pt x="157" y="901" on="1"/>
        <pt x="360" y="813" on="1"/>
        <pt x="328" y="735" on="1"/>
        <pt x="121" y="819" on="1"/>
      </contour>
      <contour>
        <pt x="26" y="220" on="1"/>
        <pt x="26" y="655" on="1"/>
        <pt x="131" y="655" on="1"/>
        <pt x="131" y="232" on="1"/>
        <pt x="131" y="155" on="0"/>
        <pt x="156" y="120" on="1"/>
        <pt x="180" y="85" on="0"/>
        <pt x="316" y="85" on="0"/>
        <pt x="368" y="153" on="0"/>
        <pt x="368" y="232" on="1"/>
        <pt x="368" y="655" on="1"/>
        <pt x="473" y="655" on="1"/>
        <pt x="473" y="220" on="1"/>
        <pt x="473" y="103" on="0"/>
        <pt x="372" y="-9" on="0"/>
        <pt x="120" y="-9" on="0"/>
        <pt x="26" y="105" on="0"/>
      </contour>
    </TTGlyph>
    <TTGlyph name="Uhungarumlaut" xMin="26" yMin="-9" xMax="490" yMax="874">
      <contour>
        <pt x="54" y="757" on="1"/>
        <pt x="225" y="874" on="1"/>
        <pt x="276" y="791" on="1"/>
        <pt x="100" y="688" on="1"/>
      </contour>
      <contour>
        <pt x="268" y="757" on="1"/>
        <pt x="439" y="874" on="1"/>
        <pt x="490" y="791" on="1"/>
        <pt x="314" y="688" on="1"/>
      </contour>
      <contour>
        <pt x="26" y="220" on="1"/>
        <pt x="26" y="655" on="1"/>
        <pt x="131" y="655" on="1"/>
        <pt x="131" y="232" on="1"/>
        <pt x="131" y="155" on="0"/>
        <pt x="156" y="120" on="1"/>
        <pt x="180" y="85" on="0"/>
        <pt x="316" y="85" on="0"/>
        <pt x="368" y="153" on="0"/>
        <pt x="368" y="232" on="1"/>
        <pt x="368" y="655" on="1"/>
        <pt x="473" y="655" on="1"/>
        <pt x="473" y="220" on="1"/>
        <pt x="473" y="103" on="0"/>
        <pt x="372" y="-9" on="0"/>
        <pt x="120" y="-9" on="0"/>
        <pt x="26" y="105" on="0"/>
      </contour>
    </TTGlyph>
    <TTGlyph name="Umacron" xMin="26" yMin="-9" xMax="473" yMax="853">
      <contour>
        <pt x="84" y="853" on="1"/>
        <pt x="417" y="853" on="1"/>
        <pt x="417" y="771" on="1"/>
        <pt x="84" y="771" on="1"/>
      </contour>
      <contour>
        <pt x="26" y="220" on="1"/>
        <pt x="26" y="655" on="1"/>
        <pt x="131" y="655" on="1"/>
        <pt x="131" y="232" on="1"/>
        <pt x="131" y="155" on="0"/>
        <pt x="156" y="120" on="1"/>
        <pt x="180" y="85" on="0"/>
        <pt x="316" y="85" on="0"/>
        <pt x="368" y="153" on="0"/>
        <pt x="368" y="232" on="1"/>
        <pt x="368" y="655" on="1"/>
        <pt x="473" y="655" on="1"/>
        <pt x="473" y="220" on="1"/>
        <pt x="473" y="103" on="0"/>
        <pt x="372" y="-9" on="0"/>
        <pt x="120" y="-9" on="0"/>
        <pt x="26" y="105" on="0"/>
      </contour>
    </TTGlyph>
    <TTGlyph name="Uogonek" xMin="26" yMin="-269" xMax="473" yMax="655">
      <contour>
        <pt x="277" y="-9" on="1"/>
        <pt x="250" y="-9" on="1"/>
        <pt x="128" y="-9" on="0"/>
        <pt x="26" y="100" on="0"/>
        <pt x="26" y="203" on="1"/>
        <pt x="26" y="655" on="1"/>
        <pt x="129" y="655" on="1"/>
        <pt x="129" y="217" on="1"/>
        <pt x="129" y="89" on="0"/>
        <pt x="250" y="89" on="1"/>
        <pt x="308" y="89" on="0"/>
        <pt x="335" y="110" on="1"/>
        <pt x="371" y="138" on="0"/>
        <pt x="371" y="220" on="1"/>
        <pt x="371" y="655" on="1"/>
        <pt x="473" y="655" on="1"/>
        <pt x="473" y="226" on="1"/>
        <pt x="472" y="108" on="0"/>
        <pt x="432" y="58" on="1"/>
        <pt x="414" y="36" on="0"/>
        <pt x="362" y="-13" on="0"/>
        <pt x="358" y="-17" on="1"/>
        <pt x="283" y="-88" on="0"/>
        <pt x="286" y="-143" on="1"/>
        <pt x="287" y="-160" on="0"/>
        <pt x="310" y="-191" on="0"/>
        <pt x="367" y="-191" on="0"/>
        <pt x="385" y="-187" on="1"/>
        <pt x="395" y="-262" on="1"/>
        <pt x="352" y="-269" on="0"/>
        <pt x="321" y="-269" on="1"/>
        <pt x="265" y="-269" on="0"/>
        <pt x="199" y="-192" on="0"/>
        <pt x="199" y="-98" on="0"/>
        <pt x="234" y="-40" on="0"/>
      </contour>
    </TTGlyph>
    <TTGlyph name="Uring" xMin="26" yMin="-9" xMax="473" yMax="929">
      <contour>
        <pt x="303" y="929" on="0"/>
        <pt x="369" y="869" on="0"/>
        <pt x="369" y="768" on="0"/>
        <pt x="303" y="708" on="0"/>
        <pt x="196" y="708" on="0"/>
        <pt x="130" y="768" on="0"/>
        <pt x="130" y="869" on="0"/>
        <pt x="196" y="929" on="0"/>
      </contour>
      <contour>
        <pt x="199" y="863" on="0"/>
        <pt x="199" y="773" on="0"/>
        <pt x="299" y="773" on="0"/>
        <pt x="299" y="863" on="0"/>
      </contour>
      <contour>
        <pt x="26" y="220" on="1"/>
        <pt x="26" y="655" on="1"/>
        <pt x="131" y="655" on="1"/>
        <pt x="131" y="232" on="1"/>
        <pt x="131" y="155" on="0"/>
        <pt x="181" y="85" on="0"/>
        <pt x="316" y="85" on="0"/>
        <pt x="368" y="153" on="0"/>
        <pt x="368" y="232" on="1"/>
        <pt x="368" y="655" on="1"/>
        <pt x="473" y="655" on="1"/>
        <pt x="473" y="220" on="1"/>
        <pt x="473" y="103" on="0"/>
        <pt x="372" y="-9" on="0"/>
        <pt x="121" y="-9" on="0"/>
        <pt x="26" y="105" on="0"/>
      </contour>
    </TTGlyph>
    <TTGlyph name="Utilde" xMin="26" yMin="-9" xMax="473" yMax="885">
      <contour>
        <pt x="373" y="870" on="1"/>
        <pt x="414" y="814" on="1"/>
        <pt x="365" y="761" on="0"/>
        <pt x="318" y="761" on="1"/>
        <pt x="283" y="761" on="0"/>
        <pt x="245" y="782" on="1"/>
        <pt x="208" y="804" on="0"/>
        <pt x="164" y="804" on="0"/>
        <pt x="131" y="773" on="1"/>
        <pt x="86" y="828" on="1"/>
        <pt x="145" y="885" on="0"/>
        <pt x="192" y="885" on="1"/>
        <pt x="225" y="885" on="0"/>
        <pt x="264" y="864" on="1"/>
        <pt x="304" y="843" on="0"/>
        <pt x="344" y="843" on="0"/>
      </contour>
      <contour>
        <pt x="26" y="220" on="1"/>
        <pt x="26" y="655" on="1"/>
        <pt x="131" y="655" on="1"/>
        <pt x="131" y="232" on="1"/>
        <pt x="131" y="155" on="0"/>
        <pt x="156" y="120" on="1"/>
        <pt x="180" y="85" on="0"/>
        <pt x="316" y="85" on="0"/>
        <pt x="368" y="153" on="0"/>
        <pt x="368" y="232" on="1"/>
        <pt x="368" y="655" on="1"/>
        <pt x="473" y="655" on="1"/>
        <pt x="473" y="220" on="1"/>
        <pt x="473" y="103" on="0"/>
        <pt x="372" y="-9" on="0"/>
        <pt x="120" y="-9" on="0"/>
        <pt x="26" y="105" on="0"/>
      </contour>
    </TTGlyph>
    <TTGlyph name="V" xMin="13" yMin="0" xMax="489" yMax="655">
      <contour>
        <pt x="13" y="655" on="1"/>
        <pt x="130" y="655" on="1"/>
        <pt x="253" y="105" on="1"/>
        <pt x="373" y="655" on="1"/>
        <pt x="489" y="655" on="1"/>
        <pt x="329" y="0" on="1"/>
        <pt x="175" y="0" on="1"/>
      </contour>
    </TTGlyph>
    <TTGlyph name="V.001" xMin="0" yMin="210" xMax="500" yMax="409">
      <contour>
        <pt x="0" y="360" on="1"/>
        <pt x="28" y="409" on="1"/>
        <pt x="128" y="341" on="0"/>
        <pt x="334" y="265" on="0"/>
        <pt x="478" y="265" on="1"/>
        <pt x="500" y="265" on="1"/>
        <pt x="500" y="210" on="1"/>
        <pt x="478" y="210" on="1"/>
        <pt x="328" y="210" on="0"/>
        <pt x="104" y="288" on="0"/>
      </contour>
    </TTGlyph>
    <TTGlyph name="V.calt" xMin="10" yMin="0" xMax="489" yMax="655">
      <contour>
        <pt x="155" y="0" on="1"/>
        <pt x="10" y="655" on="1"/>
        <pt x="120" y="655" on="1"/>
        <pt x="243" y="93" on="1"/>
        <pt x="264" y="93" on="1"/>
        <pt x="382" y="655" on="1"/>
        <pt x="489" y="655" on="1"/>
        <pt x="349" y="0" on="1"/>
      </contour>
    </TTGlyph>
    <TTGlyph name="W" xMin="0" yMin="0" xMax="499" yMax="655">
      <contour>
        <pt x="57" y="0" on="1"/>
        <pt x="0" y="655" on="1"/>
        <pt x="100" y="655" on="1"/>
        <pt x="144" y="92" on="1"/>
        <pt x="150" y="92" on="1"/>
        <pt x="212" y="383" on="1"/>
        <pt x="301" y="383" on="1"/>
        <pt x="360" y="92" on="1"/>
        <pt x="367" y="92" on="1"/>
        <pt x="402" y="655" on="1"/>
        <pt x="499" y="655" on="1"/>
        <pt x="454" y="0" on="1"/>
        <pt x="302" y="0" on="1"/>
        <pt x="256" y="258" on="1"/>
        <pt x="253" y="258" on="1"/>
        <pt x="205" y="0" on="1"/>
      </contour>
    </TTGlyph>
    <TTGlyph name="W.001" xMin="0" yMin="66" xMax="500" yMax="265">
      <contour>
        <pt x="28" y="66" on="1"/>
        <pt x="0" y="115" on="1"/>
        <pt x="104" y="187" on="0"/>
        <pt x="328" y="265" on="0"/>
        <pt x="478" y="265" on="1"/>
        <pt x="500" y="265" on="1"/>
        <pt x="500" y="210" on="1"/>
        <pt x="478" y="210" on="1"/>
        <pt x="334" y="210" on="0"/>
        <pt x="128" y="134" on="0"/>
      </contour>
    </TTGlyph>
    <TTGlyph name="W.titl" xMin="3" yMin="0" xMax="495" yMax="655">
      <contour>
        <pt x="437" y="655" on="1"/>
        <pt x="495" y="655" on="1"/>
        <pt x="424" y="0" on="1"/>
        <pt x="325" y="0" on="1"/>
        <pt x="249" y="256" on="1"/>
        <pt x="175" y="0" on="1"/>
        <pt x="74" y="0" on="1"/>
        <pt x="3" y="655" on="1"/>
        <pt x="61" y="655" on="1"/>
        <pt x="125" y="50" on="1"/>
        <pt x="138" y="50" on="1"/>
        <pt x="221" y="323" on="1"/>
        <pt x="221" y="381" on="1"/>
        <pt x="277" y="381" on="1"/>
        <pt x="277" y="323" on="1"/>
        <pt x="361" y="50" on="1"/>
        <pt x="373" y="50" on="1"/>
      </contour>
    </TTGlyph>
    <TTGlyph name="W.titl.sc" xMin="44" yMin="0" xMax="456" yMax="518">
      <contour>
        <pt x="407" y="518" on="1"/>
        <pt x="456" y="518" on="1"/>
        <pt x="397" y="0" on="1"/>
        <pt x="314" y="0" on="1"/>
        <pt x="250" y="203" on="1"/>
        <pt x="188" y="0" on="1"/>
        <pt x="104" y="0" on="1"/>
        <pt x="44" y="518" on="1"/>
        <pt x="92" y="518" on="1"/>
        <pt x="146" y="40" on="1"/>
        <pt x="157" y="40" on="1"/>
        <pt x="226" y="256" on="1"/>
        <pt x="226" y="301" on="1"/>
        <pt x="273" y="301" on="1"/>
        <pt x="273" y="256" on="1"/>
        <pt x="344" y="40" on="1"/>
        <pt x="354" y="40" on="1"/>
      </contour>
    </TTGlyph>
    <TTGlyph name="W.tri" xMin="5" yMin="0" xMax="741" yMax="655">
      <contour>
        <pt x="683" y="655" on="1"/>
        <pt x="741" y="655" on="1"/>
        <pt x="601" y="0" on="1"/>
        <pt x="509" y="0" on="1"/>
        <pt x="377" y="566" on="1"/>
        <pt x="371" y="566" on="1"/>
        <pt x="236" y="0" on="1"/>
        <pt x="145" y="0" on="1"/>
        <pt x="5" y="655" on="1"/>
        <pt x="63" y="655" on="1"/>
        <pt x="187" y="50" on="1"/>
        <pt x="193" y="50" on="1"/>
        <pt x="336" y="623" on="1"/>
        <pt x="412" y="623" on="1"/>
        <pt x="553" y="50" on="1"/>
        <pt x="559" y="50" on="1"/>
      </contour>
    </TTGlyph>
    <TTGlyph name="W.tri.sc" xMin="67" yMin="0" xMax="683" yMax="518">
      <contour>
        <pt x="634" y="518" on="1"/>
        <pt x="683" y="518" on="1"/>
        <pt x="565" y="0" on="1"/>
        <pt x="488" y="0" on="1"/>
        <pt x="378" y="447" on="1"/>
        <pt x="373" y="447" on="1"/>
        <pt x="259" y="0" on="1"/>
        <pt x="184" y="0" on="1"/>
        <pt x="67" y="518" on="1"/>
        <pt x="115" y="518" on="1"/>
        <pt x="219" y="40" on="1"/>
        <pt x="224" y="40" on="1"/>
        <pt x="343" y="493" on="1"/>
        <pt x="407" y="493" on="1"/>
        <pt x="525" y="40" on="1"/>
        <pt x="530" y="40" on="1"/>
      </contour>
    </TTGlyph>
    <TTGlyph name="Wacute" xMin="0" yMin="0" xMax="499" yMax="900">
      <contour>
        <pt x="147" y="812" on="1"/>
        <pt x="352" y="900" on="1"/>
        <pt x="386" y="818" on="1"/>
        <pt x="180" y="734" on="1"/>
      </contour>
      <contour>
        <pt x="57" y="0" on="1"/>
        <pt x="0" y="655" on="1"/>
        <pt x="100" y="655" on="1"/>
        <pt x="144" y="92" on="1"/>
        <pt x="150" y="92" on="1"/>
        <pt x="212" y="383" on="1"/>
        <pt x="301" y="383" on="1"/>
        <pt x="360" y="92" on="1"/>
        <pt x="367" y="92" on="1"/>
        <pt x="402" y="655" on="1"/>
        <pt x="499" y="655" on="1"/>
        <pt x="454" y="0" on="1"/>
        <pt x="302" y="0" on="1"/>
        <pt x="256" y="258" on="1"/>
        <pt x="253" y="258" on="1"/>
        <pt x="205" y="0" on="1"/>
      </contour>
    </TTGlyph>
    <TTGlyph name="Wcircumflex" xMin="0" yMin="0" xMax="499" yMax="882">
      <contour>
        <pt x="87" y="752" on="1"/>
        <pt x="213" y="882" on="1"/>
        <pt x="293" y="882" on="1"/>
        <pt x="419" y="752" on="1"/>
        <pt x="321" y="752" on="1"/>
        <pt x="253" y="822" on="1"/>
        <pt x="185" y="752" on="1"/>
      </contour>
      <contour>
        <pt x="57" y="0" on="1"/>
        <pt x="0" y="655" on="1"/>
        <pt x="100" y="655" on="1"/>
        <pt x="144" y="92" on="1"/>
        <pt x="150" y="92" on="1"/>
        <pt x="212" y="383" on="1"/>
        <pt x="301" y="383" on="1"/>
        <pt x="360" y="92" on="1"/>
        <pt x="367" y="92" on="1"/>
        <pt x="402" y="655" on="1"/>
        <pt x="499" y="655" on="1"/>
        <pt x="454" y="0" on="1"/>
        <pt x="302" y="0" on="1"/>
        <pt x="256" y="258" on="1"/>
        <pt x="253" y="258" on="1"/>
        <pt x="205" y="0" on="1"/>
      </contour>
    </TTGlyph>
    <TTGlyph name="Wdieresis" xMin="0" yMin="0" xMax="499" yMax="869">
      <contour>
        <pt x="97" y="789" on="0"/>
        <pt x="97" y="835" on="0"/>
        <pt x="130" y="869" on="0"/>
        <pt x="176" y="869" on="0"/>
        <pt x="209" y="835" on="0"/>
        <pt x="209" y="789" on="0"/>
        <pt x="177" y="755" on="0"/>
        <pt x="129" y="755" on="0"/>
      </contour>
      <contour>
        <pt x="290" y="789" on="0"/>
        <pt x="290" y="835" on="0"/>
        <pt x="322" y="869" on="0"/>
        <pt x="370" y="869" on="0"/>
        <pt x="402" y="835" on="0"/>
        <pt x="402" y="789" on="0"/>
        <pt x="370" y="755" on="0"/>
        <pt x="322" y="755" on="0"/>
      </contour>
      <contour>
        <pt x="57" y="0" on="1"/>
        <pt x="0" y="655" on="1"/>
        <pt x="100" y="655" on="1"/>
        <pt x="144" y="92" on="1"/>
        <pt x="150" y="92" on="1"/>
        <pt x="212" y="383" on="1"/>
        <pt x="301" y="383" on="1"/>
        <pt x="360" y="92" on="1"/>
        <pt x="367" y="92" on="1"/>
        <pt x="402" y="655" on="1"/>
        <pt x="499" y="655" on="1"/>
        <pt x="454" y="0" on="1"/>
        <pt x="302" y="0" on="1"/>
        <pt x="256" y="258" on="1"/>
        <pt x="253" y="258" on="1"/>
        <pt x="205" y="0" on="1"/>
      </contour>
    </TTGlyph>
    <TTGlyph name="Wgrave" xMin="0" yMin="0" xMax="499" yMax="901">
      <contour>
        <pt x="168" y="901" on="1"/>
        <pt x="371" y="813" on="1"/>
        <pt x="339" y="735" on="1"/>
        <pt x="132" y="819" on="1"/>
      </contour>
      <contour>
        <pt x="57" y="0" on="1"/>
        <pt x="0" y="655" on="1"/>
        <pt x="100" y="655" on="1"/>
        <pt x="144" y="92" on="1"/>
        <pt x="150" y="92" on="1"/>
        <pt x="212" y="383" on="1"/>
        <pt x="301" y="383" on="1"/>
        <pt x="360" y="92" on="1"/>
        <pt x="367" y="92" on="1"/>
        <pt x="402" y="655" on="1"/>
        <pt x="499" y="655" on="1"/>
        <pt x="454" y="0" on="1"/>
        <pt x="302" y="0" on="1"/>
        <pt x="256" y="258" on="1"/>
        <pt x="253" y="258" on="1"/>
        <pt x="205" y="0" on="1"/>
      </contour>
    </TTGlyph>
    <TTGlyph name="X" xMin="9" yMin="0" xMax="485" yMax="655">
      <contour>
        <pt x="238" y="250" on="1"/>
        <pt x="132" y="0" on="1"/>
        <pt x="9" y="0" on="1"/>
        <pt x="170" y="336" on="1"/>
        <pt x="17" y="655" on="1"/>
        <pt x="142" y="655" on="1"/>
        <pt x="243" y="415" on="1"/>
        <pt x="247" y="415" on="1"/>
        <pt x="347" y="655" on="1"/>
        <pt x="469" y="655" on="1"/>
        <pt x="315" y="336" on="1"/>
        <pt x="485" y="0" on="1"/>
        <pt x="358" y="0" on="1"/>
        <pt x="241" y="250" on="1"/>
      </contour>
    </TTGlyph>
    <TTGlyph name="X.001" xMin="-500" yMin="210" xMax="500" yMax="409">
      <contour>
        <pt x="-500" y="360" on="1"/>
        <pt x="-472" y="409" on="1"/>
        <pt x="-372" y="341" on="0"/>
        <pt x="-166" y="265" on="0"/>
        <pt x="-22" y="265" on="1"/>
        <pt x="500" y="265" on="1"/>
        <pt x="500" y="210" on="1"/>
        <pt x="-22" y="210" on="1"/>
        <pt x="-172" y="210" on="0"/>
        <pt x="-396" y="288" on="0"/>
      </contour>
    </TTGlyph>
    <TTGlyph name="Y" xMin="0" yMin="0" xMax="500" yMax="655">
      <contour>
        <pt x="302" y="283" on="1"/>
        <pt x="302" y="0" on="1"/>
        <pt x="198" y="0" on="1"/>
        <pt x="198" y="283" on="1"/>
        <pt x="0" y="655" on="1"/>
        <pt x="116" y="655" on="1"/>
        <pt x="246" y="380" on="1"/>
        <pt x="254" y="380" on="1"/>
        <pt x="384" y="655" on="1"/>
        <pt x="500" y="655" on="1"/>
      </contour>
    </TTGlyph>
    <TTGlyph name="Y.001" xMin="-500" yMin="66" xMax="500" yMax="265">
      <contour>
        <pt x="-472" y="66" on="1"/>
        <pt x="-500" y="115" on="1"/>
        <pt x="-396" y="187" on="0"/>
        <pt x="-172" y="265" on="0"/>
        <pt x="-22" y="265" on="1"/>
        <pt x="500" y="265" on="1"/>
        <pt x="500" y="210" on="1"/>
        <pt x="-22" y="210" on="1"/>
        <pt x="-166" y="210" on="0"/>
        <pt x="-372" y="134" on="0"/>
      </contour>
    </TTGlyph>
    <TTGlyph name="Yacute" xMin="0" yMin="0" xMax="500" yMax="880">
      <contour>
        <pt x="148" y="779" on="1"/>
        <pt x="329" y="880" on="1"/>
        <pt x="372" y="793" on="1"/>
        <pt x="188" y="706" on="1"/>
      </contour>
      <contour>
        <pt x="302" y="283" on="1"/>
        <pt x="302" y="0" on="1"/>
        <pt x="198" y="0" on="1"/>
        <pt x="198" y="283" on="1"/>
        <pt x="0" y="655" on="1"/>
        <pt x="116" y="655" on="1"/>
        <pt x="246" y="380" on="1"/>
        <pt x="254" y="380" on="1"/>
        <pt x="384" y="655" on="1"/>
        <pt x="500" y="655" on="1"/>
      </contour>
    </TTGlyph>
    <TTGlyph name="Ycircumflex" xMin="0" yMin="0" xMax="500" yMax="882">
      <contour>
        <pt x="87" y="752" on="1"/>
        <pt x="213" y="882" on="1"/>
        <pt x="293" y="882" on="1"/>
        <pt x="419" y="752" on="1"/>
        <pt x="321" y="752" on="1"/>
        <pt x="253" y="822" on="1"/>
        <pt x="185" y="752" on="1"/>
      </contour>
      <contour>
        <pt x="302" y="283" on="1"/>
        <pt x="302" y="0" on="1"/>
        <pt x="198" y="0" on="1"/>
        <pt x="198" y="283" on="1"/>
        <pt x="0" y="655" on="1"/>
        <pt x="116" y="655" on="1"/>
        <pt x="246" y="380" on="1"/>
        <pt x="254" y="380" on="1"/>
        <pt x="384" y="655" on="1"/>
        <pt x="500" y="655" on="1"/>
      </contour>
    </TTGlyph>
    <TTGlyph name="Ydieresis" xMin="-1" yMin="0" xMax="499" yMax="869">
      <contour>
        <pt x="301" y="283" on="1"/>
        <pt x="301" y="0" on="1"/>
        <pt x="199" y="0" on="1"/>
        <pt x="199" y="283" on="1"/>
        <pt x="-1" y="655" on="1"/>
        <pt x="118" y="655" on="1"/>
        <pt x="251" y="380" on="1"/>
        <pt x="386" y="655" on="1"/>
        <pt x="499" y="655" on="1"/>
      </contour>
      <contour>
        <pt x="290" y="789" on="0"/>
        <pt x="290" y="835" on="0"/>
        <pt x="322" y="869" on="0"/>
        <pt x="370" y="869" on="0"/>
        <pt x="402" y="835" on="0"/>
        <pt x="402" y="789" on="0"/>
        <pt x="370" y="755" on="0"/>
        <pt x="322" y="755" on="0"/>
      </contour>
      <contour>
        <pt x="97" y="789" on="0"/>
        <pt x="97" y="835" on="0"/>
        <pt x="130" y="869" on="0"/>
        <pt x="176" y="869" on="0"/>
        <pt x="209" y="835" on="0"/>
        <pt x="209" y="789" on="0"/>
        <pt x="177" y="755" on="0"/>
        <pt x="129" y="755" on="0"/>
      </contour>
    </TTGlyph>
    <TTGlyph name="Ygrave" xMin="0" yMin="0" xMax="500" yMax="901">
      <contour>
        <pt x="168" y="901" on="1"/>
        <pt x="371" y="813" on="1"/>
        <pt x="339" y="735" on="1"/>
        <pt x="132" y="819" on="1"/>
      </contour>
      <contour>
        <pt x="302" y="283" on="1"/>
        <pt x="302" y="0" on="1"/>
        <pt x="198" y="0" on="1"/>
        <pt x="198" y="283" on="1"/>
        <pt x="0" y="655" on="1"/>
        <pt x="116" y="655" on="1"/>
        <pt x="246" y="380" on="1"/>
        <pt x="254" y="380" on="1"/>
        <pt x="384" y="655" on="1"/>
        <pt x="500" y="655" on="1"/>
      </contour>
    </TTGlyph>
    <TTGlyph name="Z" xMin="61" yMin="0" xMax="452" yMax="655">
      <contour>
        <pt x="64" y="561" on="1"/>
        <pt x="64" y="655" on="1"/>
        <pt x="437" y="655" on="1"/>
        <pt x="437" y="573" on="1"/>
        <pt x="192" y="94" on="1"/>
        <pt x="452" y="94" on="1"/>
        <pt x="452" y="0" on="1"/>
        <pt x="61" y="0" on="1"/>
        <pt x="61" y="71" on="1"/>
        <pt x="312" y="561" on="1"/>
      </contour>
    </TTGlyph>
    <TTGlyph name="Z.001" xMin="0" yMin="210" xMax="500" yMax="405">
      <contour>
        <pt x="500" y="265" on="1"/>
        <pt x="500" y="210" on="1"/>
        <pt x="98" y="210" on="1"/>
        <pt x="44" y="210" on="0"/>
        <pt x="0" y="256" on="0"/>
        <pt x="0" y="298" on="1"/>
        <pt x="0" y="405" on="1"/>
        <pt x="52" y="405" on="1"/>
        <pt x="52" y="303" on="1"/>
        <pt x="52" y="282" on="0"/>
        <pt x="77" y="265" on="0"/>
        <pt x="105" y="265" on="1"/>
      </contour>
    </TTGlyph>
    <TTGlyph name="Z.calt" xMin="62" yMin="0" xMax="452" yMax="655">
      <contour>
        <pt x="64" y="561" on="1"/>
        <pt x="64" y="655" on="1"/>
        <pt x="425" y="655" on="1"/>
        <pt x="437" y="573" on="1"/>
        <pt x="192" y="94" on="1"/>
        <pt x="452" y="94" on="1"/>
        <pt x="452" y="0" on="1"/>
        <pt x="75" y="0" on="1"/>
        <pt x="62" y="76" on="1"/>
        <pt x="312" y="561" on="1"/>
      </contour>
    </TTGlyph>
    <TTGlyph name="Zacute" xMin="61" yMin="0" xMax="452" yMax="880">
      <contour>
        <pt x="64" y="561" on="1"/>
        <pt x="64" y="655" on="1"/>
        <pt x="437" y="655" on="1"/>
        <pt x="437" y="573" on="1"/>
        <pt x="192" y="94" on="1"/>
        <pt x="452" y="94" on="1"/>
        <pt x="452" y="0" on="1"/>
        <pt x="61" y="0" on="1"/>
        <pt x="61" y="71" on="1"/>
        <pt x="312" y="561" on="1"/>
      </contour>
      <contour>
        <pt x="148" y="779" on="1"/>
        <pt x="329" y="880" on="1"/>
        <pt x="372" y="793" on="1"/>
        <pt x="188" y="706" on="1"/>
      </contour>
    </TTGlyph>
    <TTGlyph name="Zcaron" xMin="61" yMin="0" xMax="452" yMax="882">
      <contour>
        <pt x="419" y="882" on="1"/>
        <pt x="293" y="752" on="1"/>
        <pt x="213" y="752" on="1"/>
        <pt x="87" y="882" on="1"/>
        <pt x="185" y="882" on="1"/>
        <pt x="253" y="812" on="1"/>
        <pt x="321" y="882" on="1"/>
      </contour>
      <contour>
        <pt x="64" y="561" on="1"/>
        <pt x="64" y="655" on="1"/>
        <pt x="437" y="655" on="1"/>
        <pt x="437" y="573" on="1"/>
        <pt x="192" y="94" on="1"/>
        <pt x="452" y="94" on="1"/>
        <pt x="452" y="0" on="1"/>
        <pt x="61" y="0" on="1"/>
        <pt x="61" y="71" on="1"/>
        <pt x="312" y="561" on="1"/>
      </contour>
    </TTGlyph>
    <TTGlyph name="Zdotaccent" xMin="61" yMin="0" xMax="452" yMax="869">
      <contour>
        <pt x="64" y="561" on="1"/>
        <pt x="64" y="655" on="1"/>
        <pt x="437" y="655" on="1"/>
        <pt x="437" y="573" on="1"/>
        <pt x="192" y="94" on="1"/>
        <pt x="452" y="94" on="1"/>
        <pt x="452" y="0" on="1"/>
        <pt x="61" y="0" on="1"/>
        <pt x="61" y="71" on="1"/>
        <pt x="312" y="561" on="1"/>
      </contour>
      <contour>
        <pt x="194" y="789" on="0"/>
        <pt x="194" y="835" on="0"/>
        <pt x="226" y="869" on="0"/>
        <pt x="274" y="869" on="0"/>
        <pt x="306" y="835" on="0"/>
        <pt x="306" y="789" on="0"/>
        <pt x="274" y="755" on="0"/>
        <pt x="226" y="755" on="0"/>
      </contour>
    </TTGlyph>
    <TTGlyph name="a" xMin="40" yMin="-11" xMax="446" yMax="483">
      <contour>
        <pt x="216" y="86" on="1"/>
        <pt x="244" y="86" on="0"/>
        <pt x="312" y="112" on="0"/>
        <pt x="332" y="128" on="1"/>
        <pt x="332" y="198" on="1"/>
        <pt x="272" y="203" on="0"/>
        <pt x="234" y="203" on="1"/>
        <pt x="151" y="203" on="0"/>
        <pt x="151" y="141" on="1"/>
        <pt x="151" y="86" on="0"/>
      </contour>
      <contour>
        <pt x="200" y="-11" on="1"/>
        <pt x="40" y="-11" on="0"/>
        <pt x="40" y="141" on="1"/>
        <pt x="40" y="222" on="0"/>
        <pt x="143" y="287" on="0"/>
        <pt x="234" y="287" on="1"/>
        <pt x="277" y="287" on="0"/>
        <pt x="332" y="282" on="1"/>
        <pt x="332" y="342" on="0"/>
        <pt x="298" y="386" on="0"/>
        <pt x="214" y="386" on="0"/>
        <pt x="102" y="366" on="0"/>
        <pt x="72" y="356" on="1"/>
        <pt x="53" y="451" on="1"/>
        <pt x="158" y="483" on="0"/>
        <pt x="358" y="483" on="0"/>
        <pt x="435" y="395" on="0"/>
        <pt x="435" y="290" on="1"/>
        <pt x="435" y="87" on="1"/>
        <pt x="446" y="-1" on="1"/>
        <pt x="343" y="-11" on="1"/>
        <pt x="333" y="35" on="1"/>
        <pt x="249" y="-11" on="0"/>
      </contour>
    </TTGlyph>
    <TTGlyph name="a.001" xMin="0" yMin="70" xMax="500" yMax="265">
      <contour>
        <pt x="500" y="265" on="1"/>
        <pt x="500" y="210" on="1"/>
        <pt x="105" y="210" on="1"/>
        <pt x="77" y="210" on="0"/>
        <pt x="52" y="193" on="0"/>
        <pt x="52" y="172" on="1"/>
        <pt x="52" y="70" on="1"/>
        <pt x="0" y="70" on="1"/>
        <pt x="0" y="177" on="1"/>
        <pt x="0" y="219" on="0"/>
        <pt x="44" y="265" on="0"/>
        <pt x="98" y="265" on="1"/>
      </contour>
    </TTGlyph>
    <TTGlyph name="a.sc" xMin="32" yMin="0" xMax="465" yMax="517">
      <contour>
        <pt x="32" y="0" on="1"/>
        <pt x="152" y="517" on="1"/>
        <pt x="343" y="517" on="1"/>
        <pt x="465" y="0" on="1"/>
        <pt x="358" y="0" on="1"/>
        <pt x="337" y="93" on="1"/>
        <pt x="158" y="93" on="1"/>
        <pt x="136" y="0" on="1"/>
      </contour>
      <contour>
        <pt x="318" y="183" on="1"/>
        <pt x="263" y="428" on="1"/>
        <pt x="232" y="428" on="1"/>
        <pt x="177" y="183" on="1"/>
      </contour>
    </TTGlyph>
    <TTGlyph name="aacute" xMin="40" yMin="-11" xMax="446" yMax="735">
      <contour>
        <pt x="216" y="86" on="1"/>
        <pt x="244" y="86" on="0"/>
        <pt x="312" y="112" on="0"/>
        <pt x="332" y="128" on="1"/>
        <pt x="332" y="198" on="1"/>
        <pt x="272" y="203" on="0"/>
        <pt x="234" y="203" on="1"/>
        <pt x="151" y="203" on="0"/>
        <pt x="151" y="141" on="1"/>
        <pt x="151" y="86" on="0"/>
      </contour>
      <contour>
        <pt x="200" y="-11" on="1"/>
        <pt x="40" y="-11" on="0"/>
        <pt x="40" y="141" on="1"/>
        <pt x="40" y="222" on="0"/>
        <pt x="143" y="287" on="0"/>
        <pt x="234" y="287" on="1"/>
        <pt x="277" y="287" on="0"/>
        <pt x="332" y="282" on="1"/>
        <pt x="332" y="342" on="0"/>
        <pt x="298" y="386" on="0"/>
        <pt x="214" y="386" on="0"/>
        <pt x="102" y="366" on="0"/>
        <pt x="72" y="356" on="1"/>
        <pt x="53" y="451" on="1"/>
        <pt x="158" y="483" on="0"/>
        <pt x="358" y="483" on="0"/>
        <pt x="435" y="395" on="0"/>
        <pt x="435" y="290" on="1"/>
        <pt x="435" y="87" on="1"/>
        <pt x="446" y="-1" on="1"/>
        <pt x="343" y="-11" on="1"/>
        <pt x="333" y="35" on="1"/>
        <pt x="249" y="-11" on="0"/>
      </contour>
      <contour>
        <pt x="125" y="634" on="1"/>
        <pt x="306" y="735" on="1"/>
        <pt x="349" y="648" on="1"/>
        <pt x="165" y="561" on="1"/>
      </contour>
    </TTGlyph>
    <TTGlyph name="aacute.sc" xMin="32" yMin="0" xMax="465" yMax="718">
      <contour>
        <pt x="32" y="0" on="1"/>
        <pt x="152" y="517" on="1"/>
        <pt x="343" y="517" on="1"/>
        <pt x="465" y="0" on="1"/>
        <pt x="358" y="0" on="1"/>
        <pt x="337" y="93" on="1"/>
        <pt x="158" y="93" on="1"/>
        <pt x="136" y="0" on="1"/>
      </contour>
      <contour>
        <pt x="318" y="183" on="1"/>
        <pt x="263" y="428" on="1"/>
        <pt x="232" y="428" on="1"/>
        <pt x="177" y="183" on="1"/>
      </contour>
      <contour>
        <pt x="137" y="617" on="1"/>
        <pt x="318" y="718" on="1"/>
        <pt x="361" y="631" on="1"/>
        <pt x="177" y="544" on="1"/>
      </contour>
    </TTGlyph>
    <TTGlyph name="abreve" xMin="40" yMin="-11" xMax="446" yMax="700">
      <contour>
        <pt x="216" y="86" on="1"/>
        <pt x="244" y="86" on="0"/>
        <pt x="312" y="112" on="0"/>
        <pt x="332" y="128" on="1"/>
        <pt x="332" y="198" on="1"/>
        <pt x="272" y="203" on="0"/>
        <pt x="234" y="203" on="1"/>
        <pt x="151" y="203" on="0"/>
        <pt x="151" y="141" on="1"/>
        <pt x="151" y="86" on="0"/>
      </contour>
      <contour>
        <pt x="200" y="-11" on="1"/>
        <pt x="40" y="-11" on="0"/>
        <pt x="40" y="141" on="1"/>
        <pt x="40" y="222" on="0"/>
        <pt x="143" y="287" on="0"/>
        <pt x="234" y="287" on="1"/>
        <pt x="277" y="287" on="0"/>
        <pt x="332" y="282" on="1"/>
        <pt x="332" y="342" on="0"/>
        <pt x="298" y="386" on="0"/>
        <pt x="214" y="386" on="0"/>
        <pt x="102" y="366" on="0"/>
        <pt x="72" y="356" on="1"/>
        <pt x="53" y="451" on="1"/>
        <pt x="158" y="483" on="0"/>
        <pt x="358" y="483" on="0"/>
        <pt x="435" y="395" on="0"/>
        <pt x="435" y="290" on="1"/>
        <pt x="435" y="87" on="1"/>
        <pt x="446" y="-1" on="1"/>
        <pt x="343" y="-11" on="1"/>
        <pt x="333" y="35" on="1"/>
        <pt x="249" y="-11" on="0"/>
      </contour>
      <contour>
        <pt x="385" y="579" on="0"/>
        <pt x="115" y="579" on="0"/>
        <pt x="107" y="700" on="1"/>
        <pt x="181" y="700" on="1"/>
        <pt x="186" y="670" on="0"/>
        <pt x="220" y="646" on="0"/>
        <pt x="280" y="646" on="0"/>
        <pt x="314" y="670" on="0"/>
        <pt x="319" y="700" on="1"/>
        <pt x="393" y="700" on="1"/>
      </contour>
    </TTGlyph>
    <TTGlyph name="abreve.sc" xMin="32" yMin="0" xMax="465" yMax="682">
      <contour>
        <pt x="385" y="561" on="0"/>
        <pt x="115" y="561" on="0"/>
        <pt x="107" y="682" on="1"/>
        <pt x="181" y="682" on="1"/>
        <pt x="186" y="652" on="0"/>
        <pt x="220" y="628" on="0"/>
        <pt x="280" y="628" on="0"/>
        <pt x="314" y="652" on="0"/>
        <pt x="319" y="682" on="1"/>
        <pt x="393" y="682" on="1"/>
      </contour>
      <contour>
        <pt x="32" y="0" on="1"/>
        <pt x="152" y="517" on="1"/>
        <pt x="343" y="517" on="1"/>
        <pt x="465" y="0" on="1"/>
        <pt x="358" y="0" on="1"/>
        <pt x="337" y="93" on="1"/>
        <pt x="158" y="93" on="1"/>
        <pt x="136" y="0" on="1"/>
      </contour>
      <contour>
        <pt x="318" y="183" on="1"/>
        <pt x="263" y="428" on="1"/>
        <pt x="232" y="428" on="1"/>
        <pt x="177" y="183" on="1"/>
      </contour>
    </TTGlyph>
    <TTGlyph name="acircumflex" xMin="40" yMin="-11" xMax="446" yMax="745">
      <contour>
        <pt x="216" y="86" on="1"/>
        <pt x="244" y="86" on="0"/>
        <pt x="312" y="112" on="0"/>
        <pt x="332" y="128" on="1"/>
        <pt x="332" y="198" on="1"/>
        <pt x="272" y="203" on="0"/>
        <pt x="234" y="203" on="1"/>
        <pt x="151" y="203" on="0"/>
        <pt x="151" y="141" on="1"/>
        <pt x="151" y="86" on="0"/>
      </contour>
      <contour>
        <pt x="200" y="-11" on="1"/>
        <pt x="40" y="-11" on="0"/>
        <pt x="40" y="141" on="1"/>
        <pt x="40" y="222" on="0"/>
        <pt x="143" y="287" on="0"/>
        <pt x="234" y="287" on="1"/>
        <pt x="277" y="287" on="0"/>
        <pt x="332" y="282" on="1"/>
        <pt x="332" y="342" on="0"/>
        <pt x="298" y="386" on="0"/>
        <pt x="214" y="386" on="0"/>
        <pt x="102" y="366" on="0"/>
        <pt x="72" y="356" on="1"/>
        <pt x="53" y="451" on="1"/>
        <pt x="158" y="483" on="0"/>
        <pt x="358" y="483" on="0"/>
        <pt x="435" y="395" on="0"/>
        <pt x="435" y="290" on="1"/>
        <pt x="435" y="87" on="1"/>
        <pt x="446" y="-1" on="1"/>
        <pt x="343" y="-11" on="1"/>
        <pt x="333" y="35" on="1"/>
        <pt x="249" y="-11" on="0"/>
      </contour>
      <contour>
        <pt x="297" y="745" on="1"/>
        <pt x="405" y="588" on="1"/>
        <pt x="303" y="588" on="1"/>
        <pt x="250" y="674" on="1"/>
        <pt x="197" y="588" on="1"/>
        <pt x="95" y="588" on="1"/>
        <pt x="203" y="745" on="1"/>
      </contour>
    </TTGlyph>
    <TTGlyph name="acircumflex.sc" xMin="32" yMin="0" xMax="465" yMax="693">
      <contour>
        <pt x="32" y="0" on="1"/>
        <pt x="152" y="517" on="1"/>
        <pt x="343" y="517" on="1"/>
        <pt x="465" y="0" on="1"/>
        <pt x="358" y="0" on="1"/>
        <pt x="337" y="93" on="1"/>
        <pt x="158" y="93" on="1"/>
        <pt x="136" y="0" on="1"/>
      </contour>
      <contour>
        <pt x="318" y="183" on="1"/>
        <pt x="263" y="428" on="1"/>
        <pt x="232" y="428" on="1"/>
        <pt x="177" y="183" on="1"/>
      </contour>
      <contour>
        <pt x="83" y="606" on="1"/>
        <pt x="202" y="693" on="1"/>
        <pt x="294" y="693" on="1"/>
        <pt x="413" y="610" on="1"/>
        <pt x="368" y="542" on="1"/>
        <pt x="248" y="614" on="1"/>
        <pt x="128" y="541" on="1"/>
      </contour>
    </TTGlyph>
    <TTGlyph name="acorn.left" xMin="23" yMin="-28" xMax="470" yMax="662">
      <contour>
        <pt x="365" y="628" on="1"/>
        <pt x="346" y="627" on="1"/>
        <pt x="338" y="581" on="0"/>
        <pt x="282" y="506" on="0"/>
        <pt x="240" y="486" on="1"/>
        <pt x="244" y="450" on="0"/>
        <pt x="256" y="396" on="1"/>
        <pt x="266" y="352" on="1"/>
        <pt x="273" y="352" on="1"/>
        <pt x="335" y="347" on="0"/>
        <pt x="396" y="293" on="0"/>
        <pt x="388" y="197" on="0"/>
        <pt x="360" y="174" on="1"/>
        <pt x="351" y="94" on="1"/>
        <pt x="347" y="53" on="0"/>
        <pt x="297" y="6" on="0"/>
        <pt x="261" y="4" on="1"/>
        <pt x="258" y="-28" on="1"/>
        <pt x="229" y="-26" on="1"/>
        <pt x="231" y="6" on="1"/>
        <pt x="197" y="13" on="0"/>
        <pt x="155" y="70" on="0"/>
        <pt x="159" y="109" on="1"/>
        <pt x="159" y="189" on="1"/>
        <pt x="133" y="217" on="0"/>
        <pt x="137" y="261" on="1"/>
        <pt x="143" y="343" on="0"/>
        <pt x="233" y="351" on="1"/>
        <pt x="225" y="388" on="1"/>
        <pt x="214" y="431" on="0"/>
        <pt x="209" y="474" on="1"/>
        <pt x="182" y="465" on="0"/>
        <pt x="151" y="465" on="1"/>
        <pt x="30" y="465" on="1"/>
        <pt x="30" y="494" on="1"/>
        <pt x="151" y="494" on="1"/>
        <pt x="183" y="494" on="0"/>
        <pt x="207" y="504" on="1"/>
        <pt x="205" y="583" on="0"/>
        <pt x="281" y="659" on="0"/>
        <pt x="364" y="659" on="1"/>
        <pt x="470" y="659" on="1"/>
        <pt x="470" y="628" on="1"/>
      </contour>
      <contour>
        <pt x="159" y="533" on="1"/>
        <pt x="150" y="495" on="1"/>
        <pt x="28" y="495" on="0"/>
        <pt x="23" y="601" on="1"/>
        <pt x="22" y="628" on="0"/>
        <pt x="29" y="661" on="1"/>
        <pt x="30" y="659" on="0"/>
        <pt x="62" y="664" on="0"/>
        <pt x="107" y="650" on="0"/>
        <pt x="148" y="629" on="0"/>
        <pt x="168" y="573" on="0"/>
      </contour>
      <contour>
        <pt x="170" y="232" on="1"/>
        <pt x="200" y="216" on="1"/>
        <pt x="221" y="239" on="0"/>
        <pt x="307" y="231" on="0"/>
        <pt x="323" y="208" on="1"/>
        <pt x="354" y="221" on="1"/>
        <pt x="332" y="263" on="0"/>
        <pt x="198" y="271" on="0"/>
      </contour>
      <contour>
        <pt x="313" y="622" on="1"/>
        <pt x="242" y="604" on="0"/>
        <pt x="239" y="520" on="1"/>
        <pt x="296" y="555" on="0"/>
      </contour>
    </TTGlyph>
    <TTGlyph name="acorn.right" xMin="30" yMin="-28" xMax="470" yMax="660">
      <contour>
        <pt x="154" y="627" on="1"/>
        <pt x="135" y="628" on="1"/>
        <pt x="30" y="628" on="1"/>
        <pt x="30" y="659" on="1"/>
        <pt x="136" y="659" on="1"/>
        <pt x="219" y="659" on="0"/>
        <pt x="294" y="583" on="0"/>
        <pt x="292" y="504" on="1"/>
        <pt x="318" y="494" on="0"/>
        <pt x="349" y="494" on="1"/>
        <pt x="340" y="532" on="1"/>
        <pt x="331" y="572" on="0"/>
        <pt x="341" y="600" on="1"/>
        <pt x="352" y="626" on="0"/>
        <pt x="372" y="638" on="1"/>
        <pt x="414" y="660" on="0"/>
        <pt x="454" y="660" on="1"/>
        <pt x="470" y="660" on="1"/>
        <pt x="486" y="592" on="0"/>
        <pt x="458" y="540" on="1"/>
        <pt x="448" y="522" on="0"/>
        <pt x="430" y="512" on="1"/>
        <pt x="402" y="497" on="0"/>
        <pt x="368" y="494" on="1"/>
        <pt x="470" y="494" on="1"/>
        <pt x="470" y="465" on="1"/>
        <pt x="349" y="465" on="1"/>
        <pt x="318" y="465" on="0"/>
        <pt x="290" y="474" on="1"/>
        <pt x="288" y="444" on="0"/>
        <pt x="275" y="388" on="1"/>
        <pt x="266" y="351" on="1"/>
        <pt x="357" y="343" on="0"/>
        <pt x="363" y="261" on="1"/>
        <pt x="366" y="215" on="0"/>
        <pt x="341" y="189" on="1"/>
        <pt x="341" y="109" on="1"/>
        <pt x="344" y="70" on="0"/>
        <pt x="302" y="13" on="0"/>
        <pt x="269" y="6" on="1"/>
        <pt x="271" y="-26" on="1"/>
        <pt x="242" y="-28" on="1"/>
        <pt x="239" y="4" on="1"/>
        <pt x="202" y="6" on="0"/>
        <pt x="152" y="53" on="0"/>
        <pt x="149" y="94" on="1"/>
        <pt x="139" y="174" on="1"/>
        <pt x="111" y="197" on="0"/>
        <pt x="104" y="293" on="0"/>
        <pt x="165" y="347" on="0"/>
        <pt x="227" y="352" on="1"/>
        <pt x="234" y="352" on="1"/>
        <pt x="244" y="396" on="1"/>
        <pt x="257" y="452" on="0"/>
        <pt x="259" y="486" on="1"/>
        <pt x="218" y="506" on="0"/>
        <pt x="162" y="581" on="0"/>
      </contour>
      <contour>
        <pt x="300" y="216" on="1"/>
        <pt x="330" y="232" on="1"/>
        <pt x="302" y="271" on="0"/>
        <pt x="168" y="263" on="0"/>
        <pt x="146" y="221" on="1"/>
        <pt x="177" y="208" on="1"/>
        <pt x="193" y="231" on="0"/>
        <pt x="279" y="239" on="0"/>
      </contour>
      <contour>
        <pt x="187" y="622" on="1"/>
        <pt x="202" y="557" on="0"/>
        <pt x="260" y="520" on="1"/>
        <pt x="258" y="603" on="0"/>
      </contour>
    </TTGlyph>
    <TTGlyph name="adieresis" xMin="40" yMin="-11" xMax="446" yMax="704">
      <contour>
        <pt x="216" y="86" on="1"/>
        <pt x="244" y="86" on="0"/>
        <pt x="312" y="112" on="0"/>
        <pt x="332" y="128" on="1"/>
        <pt x="332" y="198" on="1"/>
        <pt x="272" y="203" on="0"/>
        <pt x="234" y="203" on="1"/>
        <pt x="151" y="203" on="0"/>
        <pt x="151" y="141" on="1"/>
        <pt x="151" y="86" on="0"/>
      </contour>
      <contour>
        <pt x="200" y="-11" on="1"/>
        <pt x="40" y="-11" on="0"/>
        <pt x="40" y="141" on="1"/>
        <pt x="40" y="222" on="0"/>
        <pt x="143" y="287" on="0"/>
        <pt x="234" y="287" on="1"/>
        <pt x="277" y="287" on="0"/>
        <pt x="332" y="282" on="1"/>
        <pt x="332" y="342" on="0"/>
        <pt x="298" y="386" on="0"/>
        <pt x="214" y="386" on="0"/>
        <pt x="102" y="366" on="0"/>
        <pt x="72" y="356" on="1"/>
        <pt x="53" y="451" on="1"/>
        <pt x="158" y="483" on="0"/>
        <pt x="358" y="483" on="0"/>
        <pt x="435" y="395" on="0"/>
        <pt x="435" y="290" on="1"/>
        <pt x="435" y="87" on="1"/>
        <pt x="446" y="-1" on="1"/>
        <pt x="343" y="-11" on="1"/>
        <pt x="333" y="35" on="1"/>
        <pt x="249" y="-11" on="0"/>
      </contour>
      <contour>
        <pt x="97" y="624" on="0"/>
        <pt x="97" y="670" on="0"/>
        <pt x="130" y="704" on="0"/>
        <pt x="176" y="704" on="0"/>
        <pt x="209" y="670" on="0"/>
        <pt x="209" y="624" on="0"/>
        <pt x="177" y="590" on="0"/>
        <pt x="129" y="590" on="0"/>
      </contour>
      <contour>
        <pt x="290" y="624" on="0"/>
        <pt x="290" y="670" on="0"/>
        <pt x="322" y="704" on="0"/>
        <pt x="370" y="704" on="0"/>
        <pt x="402" y="670" on="0"/>
        <pt x="402" y="624" on="0"/>
        <pt x="370" y="590" on="0"/>
        <pt x="322" y="590" on="0"/>
      </contour>
    </TTGlyph>
    <TTGlyph name="adieresis.sc" xMin="32" yMin="0" xMax="465" yMax="684">
      <contour>
        <pt x="32" y="0" on="1"/>
        <pt x="152" y="517" on="1"/>
        <pt x="343" y="517" on="1"/>
        <pt x="465" y="0" on="1"/>
        <pt x="358" y="0" on="1"/>
        <pt x="337" y="93" on="1"/>
        <pt x="158" y="93" on="1"/>
        <pt x="136" y="0" on="1"/>
      </contour>
      <contour>
        <pt x="318" y="183" on="1"/>
        <pt x="263" y="428" on="1"/>
        <pt x="232" y="428" on="1"/>
        <pt x="177" y="183" on="1"/>
      </contour>
      <contour>
        <pt x="97" y="604" on="0"/>
        <pt x="97" y="650" on="0"/>
        <pt x="130" y="684" on="0"/>
        <pt x="176" y="684" on="0"/>
        <pt x="209" y="650" on="0"/>
        <pt x="209" y="604" on="0"/>
        <pt x="177" y="570" on="0"/>
        <pt x="129" y="570" on="0"/>
      </contour>
      <contour>
        <pt x="290" y="604" on="0"/>
        <pt x="290" y="650" on="0"/>
        <pt x="322" y="684" on="0"/>
        <pt x="370" y="684" on="0"/>
        <pt x="402" y="650" on="0"/>
        <pt x="402" y="604" on="0"/>
        <pt x="370" y="570" on="0"/>
        <pt x="322" y="570" on="0"/>
      </contour>
    </TTGlyph>
    <TTGlyph name="ae" xMin="19" yMin="-10" xMax="485" yMax="480">
      <contour>
        <pt x="226" y="14" on="0"/>
        <pt x="179" y="-10" on="0"/>
        <pt x="82" y="-10" on="0"/>
        <pt x="19" y="67" on="0"/>
        <pt x="19" y="198" on="0"/>
        <pt x="94" y="283" on="0"/>
        <pt x="156" y="283" on="1"/>
        <pt x="204" y="283" on="1"/>
        <pt x="204" y="359" on="0"/>
        <pt x="188" y="404" on="0"/>
        <pt x="160" y="404" on="1"/>
        <pt x="118" y="404" on="0"/>
        <pt x="59" y="377" on="1"/>
        <pt x="34" y="440" on="1"/>
        <pt x="106" y="475" on="0"/>
        <pt x="200" y="475" on="0"/>
        <pt x="245" y="456" on="0"/>
        <pt x="259" y="425" on="1"/>
        <pt x="290" y="480" on="0"/>
        <pt x="425" y="480" on="0"/>
        <pt x="485" y="379" on="0"/>
        <pt x="485" y="269" on="1"/>
        <pt x="482" y="201" on="1"/>
        <pt x="299" y="201" on="1"/>
        <pt x="300" y="133" on="0"/>
        <pt x="331" y="63" on="0"/>
        <pt x="371" y="62" on="1"/>
        <pt x="396" y="62" on="0"/>
        <pt x="444" y="77" on="1"/>
        <pt x="460" y="82" on="1"/>
        <pt x="481" y="15" on="1"/>
        <pt x="416" y="-10" on="0"/>
        <pt x="332" y="-10" on="0"/>
        <pt x="284" y="11" on="0"/>
        <pt x="255" y="45" on="1"/>
      </contour>
      <contour>
        <pt x="206" y="102" on="1"/>
        <pt x="206" y="201" on="1"/>
        <pt x="156" y="201" on="1"/>
        <pt x="128" y="201" on="0"/>
        <pt x="95" y="166" on="0"/>
        <pt x="95" y="134" on="1"/>
        <pt x="95" y="61" on="0"/>
        <pt x="140" y="61" on="1"/>
        <pt x="163" y="61" on="0"/>
        <pt x="196" y="82" on="0"/>
        <pt x="201" y="92" on="1"/>
      </contour>
      <contour>
        <pt x="404" y="352" on="0"/>
        <pt x="384" y="405" on="0"/>
        <pt x="327" y="405" on="0"/>
        <pt x="298" y="353" on="0"/>
        <pt x="297" y="282" on="1"/>
        <pt x="404" y="282" on="1"/>
      </contour>
    </TTGlyph>
    <TTGlyph name="ae.sc" xMin="11" yMin="0" xMax="462" yMax="517">
      <contour>
        <pt x="11" y="0" on="1"/>
        <pt x="131" y="517" on="1"/>
        <pt x="459" y="517" on="1"/>
        <pt x="459" y="428" on="1"/>
        <pt x="333" y="428" on="1"/>
        <pt x="333" y="309" on="1"/>
        <pt x="437" y="309" on="1"/>
        <pt x="437" y="219" on="1"/>
        <pt x="333" y="219" on="1"/>
        <pt x="333" y="89" on="1"/>
        <pt x="462" y="89" on="1"/>
        <pt x="462" y="0" on="1"/>
        <pt x="229" y="0" on="1"/>
        <pt x="229" y="93" on="1"/>
        <pt x="127" y="93" on="1"/>
        <pt x="105" y="0" on="1"/>
      </contour>
      <contour>
        <pt x="229" y="183" on="1"/>
        <pt x="229" y="428" on="1"/>
        <pt x="198" y="428" on="1"/>
        <pt x="149" y="183" on="1"/>
      </contour>
    </TTGlyph>
    <TTGlyph name="aeacute" xMin="19" yMin="-10" xMax="485" yMax="735">
      <contour>
        <pt x="138" y="634" on="1"/>
        <pt x="319" y="735" on="1"/>
        <pt x="362" y="648" on="1"/>
        <pt x="178" y="561" on="1"/>
      </contour>
      <contour>
        <pt x="226" y="14" on="0"/>
        <pt x="179" y="-10" on="0"/>
        <pt x="82" y="-10" on="0"/>
        <pt x="19" y="67" on="0"/>
        <pt x="19" y="198" on="0"/>
        <pt x="94" y="283" on="0"/>
        <pt x="156" y="283" on="1"/>
        <pt x="204" y="283" on="1"/>
        <pt x="204" y="359" on="0"/>
        <pt x="188" y="404" on="0"/>
        <pt x="160" y="404" on="1"/>
        <pt x="118" y="404" on="0"/>
        <pt x="59" y="377" on="1"/>
        <pt x="34" y="440" on="1"/>
        <pt x="106" y="475" on="0"/>
        <pt x="200" y="475" on="0"/>
        <pt x="245" y="456" on="0"/>
        <pt x="259" y="425" on="1"/>
        <pt x="290" y="480" on="0"/>
        <pt x="425" y="480" on="0"/>
        <pt x="485" y="379" on="0"/>
        <pt x="485" y="269" on="1"/>
        <pt x="482" y="201" on="1"/>
        <pt x="299" y="201" on="1"/>
        <pt x="300" y="133" on="0"/>
        <pt x="331" y="63" on="0"/>
        <pt x="371" y="62" on="1"/>
        <pt x="396" y="62" on="0"/>
        <pt x="444" y="77" on="1"/>
        <pt x="460" y="82" on="1"/>
        <pt x="481" y="15" on="1"/>
        <pt x="416" y="-10" on="0"/>
        <pt x="332" y="-10" on="0"/>
        <pt x="284" y="11" on="0"/>
        <pt x="255" y="45" on="1"/>
      </contour>
      <contour>
        <pt x="206" y="102" on="1"/>
        <pt x="206" y="201" on="1"/>
        <pt x="156" y="201" on="1"/>
        <pt x="128" y="201" on="0"/>
        <pt x="95" y="166" on="0"/>
        <pt x="95" y="134" on="1"/>
        <pt x="95" y="61" on="0"/>
        <pt x="140" y="61" on="1"/>
        <pt x="163" y="61" on="0"/>
        <pt x="196" y="82" on="0"/>
        <pt x="201" y="92" on="1"/>
      </contour>
      <contour>
        <pt x="404" y="352" on="0"/>
        <pt x="384" y="405" on="0"/>
        <pt x="327" y="405" on="0"/>
        <pt x="298" y="353" on="0"/>
        <pt x="297" y="282" on="1"/>
        <pt x="404" y="282" on="1"/>
      </contour>
    </TTGlyph>
    <TTGlyph name="aeacute.sc" xMin="11" yMin="0" xMax="462" yMax="718">
      <contour>
        <pt x="147" y="617" on="1"/>
        <pt x="328" y="718" on="1"/>
        <pt x="371" y="631" on="1"/>
        <pt x="187" y="544" on="1"/>
      </contour>
      <contour>
        <pt x="11" y="0" on="1"/>
        <pt x="131" y="517" on="1"/>
        <pt x="459" y="517" on="1"/>
        <pt x="459" y="428" on="1"/>
        <pt x="333" y="428" on="1"/>
        <pt x="333" y="309" on="1"/>
        <pt x="437" y="309" on="1"/>
        <pt x="437" y="219" on="1"/>
        <pt x="333" y="219" on="1"/>
        <pt x="333" y="89" on="1"/>
        <pt x="462" y="89" on="1"/>
        <pt x="462" y="0" on="1"/>
        <pt x="229" y="0" on="1"/>
        <pt x="229" y="93" on="1"/>
        <pt x="127" y="93" on="1"/>
        <pt x="105" y="0" on="1"/>
      </contour>
      <contour>
        <pt x="229" y="183" on="1"/>
        <pt x="229" y="428" on="1"/>
        <pt x="198" y="428" on="1"/>
        <pt x="149" y="183" on="1"/>
      </contour>
    </TTGlyph>
    <TTGlyph name="agrave" xMin="40" yMin="-11" xMax="446" yMax="735">
      <contour>
        <pt x="216" y="86" on="1"/>
        <pt x="244" y="86" on="0"/>
        <pt x="312" y="112" on="0"/>
        <pt x="332" y="128" on="1"/>
        <pt x="332" y="198" on="1"/>
        <pt x="272" y="203" on="0"/>
        <pt x="234" y="203" on="1"/>
        <pt x="151" y="203" on="0"/>
        <pt x="151" y="141" on="1"/>
        <pt x="151" y="86" on="0"/>
      </contour>
      <contour>
        <pt x="200" y="-11" on="1"/>
        <pt x="40" y="-11" on="0"/>
        <pt x="40" y="141" on="1"/>
        <pt x="40" y="222" on="0"/>
        <pt x="143" y="287" on="0"/>
        <pt x="234" y="287" on="1"/>
        <pt x="277" y="287" on="0"/>
        <pt x="332" y="282" on="1"/>
        <pt x="332" y="342" on="0"/>
        <pt x="298" y="386" on="0"/>
        <pt x="214" y="386" on="0"/>
        <pt x="102" y="366" on="0"/>
        <pt x="72" y="356" on="1"/>
        <pt x="53" y="451" on="1"/>
        <pt x="158" y="483" on="0"/>
        <pt x="358" y="483" on="0"/>
        <pt x="435" y="395" on="0"/>
        <pt x="435" y="290" on="1"/>
        <pt x="435" y="87" on="1"/>
        <pt x="446" y="-1" on="1"/>
        <pt x="343" y="-11" on="1"/>
        <pt x="333" y="35" on="1"/>
        <pt x="249" y="-11" on="0"/>
      </contour>
      <contour>
        <pt x="181" y="735" on="1"/>
        <pt x="362" y="634" on="1"/>
        <pt x="322" y="561" on="1"/>
        <pt x="138" y="648" on="1"/>
      </contour>
    </TTGlyph>
    <TTGlyph name="agrave.sc" xMin="32" yMin="0" xMax="465" yMax="715">
      <contour>
        <pt x="32" y="0" on="1"/>
        <pt x="152" y="517" on="1"/>
        <pt x="343" y="517" on="1"/>
        <pt x="465" y="0" on="1"/>
        <pt x="358" y="0" on="1"/>
        <pt x="337" y="93" on="1"/>
        <pt x="158" y="93" on="1"/>
        <pt x="136" y="0" on="1"/>
      </contour>
      <contour>
        <pt x="318" y="183" on="1"/>
        <pt x="263" y="428" on="1"/>
        <pt x="232" y="428" on="1"/>
        <pt x="177" y="183" on="1"/>
      </contour>
      <contour>
        <pt x="147" y="628" on="1"/>
        <pt x="190" y="715" on="1"/>
        <pt x="371" y="614" on="1"/>
        <pt x="331" y="541" on="1"/>
      </contour>
    </TTGlyph>
    <TTGlyph name="amacron" xMin="40" yMin="-11" xMax="446" yMax="688">
      <contour>
        <pt x="216" y="86" on="1"/>
        <pt x="244" y="86" on="0"/>
        <pt x="312" y="112" on="0"/>
        <pt x="332" y="128" on="1"/>
        <pt x="332" y="198" on="1"/>
        <pt x="272" y="203" on="0"/>
        <pt x="234" y="203" on="1"/>
        <pt x="151" y="203" on="0"/>
        <pt x="151" y="141" on="1"/>
        <pt x="151" y="86" on="0"/>
      </contour>
      <contour>
        <pt x="200" y="-11" on="1"/>
        <pt x="40" y="-11" on="0"/>
        <pt x="40" y="141" on="1"/>
        <pt x="40" y="222" on="0"/>
        <pt x="143" y="287" on="0"/>
        <pt x="234" y="287" on="1"/>
        <pt x="277" y="287" on="0"/>
        <pt x="332" y="282" on="1"/>
        <pt x="332" y="342" on="0"/>
        <pt x="298" y="386" on="0"/>
        <pt x="214" y="386" on="0"/>
        <pt x="102" y="366" on="0"/>
        <pt x="72" y="356" on="1"/>
        <pt x="53" y="451" on="1"/>
        <pt x="158" y="483" on="0"/>
        <pt x="358" y="483" on="0"/>
        <pt x="435" y="395" on="0"/>
        <pt x="435" y="290" on="1"/>
        <pt x="435" y="87" on="1"/>
        <pt x="446" y="-1" on="1"/>
        <pt x="343" y="-11" on="1"/>
        <pt x="333" y="35" on="1"/>
        <pt x="249" y="-11" on="0"/>
      </contour>
      <contour>
        <pt x="84" y="688" on="1"/>
        <pt x="417" y="688" on="1"/>
        <pt x="417" y="606" on="1"/>
        <pt x="84" y="606" on="1"/>
      </contour>
    </TTGlyph>
    <TTGlyph name="amacron.sc" xMin="32" yMin="0" xMax="465" yMax="658">
      <contour>
        <pt x="100" y="658" on="1"/>
        <pt x="393" y="658" on="1"/>
        <pt x="393" y="576" on="1"/>
        <pt x="100" y="576" on="1"/>
      </contour>
      <contour>
        <pt x="32" y="0" on="1"/>
        <pt x="152" y="517" on="1"/>
        <pt x="343" y="517" on="1"/>
        <pt x="465" y="0" on="1"/>
        <pt x="358" y="0" on="1"/>
        <pt x="337" y="93" on="1"/>
        <pt x="158" y="93" on="1"/>
        <pt x="136" y="0" on="1"/>
      </contour>
      <contour>
        <pt x="318" y="183" on="1"/>
        <pt x="263" y="428" on="1"/>
        <pt x="232" y="428" on="1"/>
        <pt x="177" y="183" on="1"/>
      </contour>
    </TTGlyph>
    <TTGlyph name="ampersand" xMin="4" yMin="-10" xMax="498" yMax="665">
      <contour>
        <pt x="4" y="197" on="1"/>
        <pt x="4" y="344" on="0"/>
        <pt x="140" y="405" on="1"/>
        <pt x="104" y="466" on="0"/>
        <pt x="99" y="487" on="1"/>
        <pt x="95" y="508" on="0"/>
        <pt x="95" y="525" on="1"/>
        <pt x="95" y="588" on="0"/>
        <pt x="179" y="665" on="0"/>
        <pt x="323" y="665" on="0"/>
        <pt x="364" y="627" on="1"/>
        <pt x="406" y="588" on="0"/>
        <pt x="406" y="468" on="0"/>
        <pt x="344" y="395" on="0"/>
        <pt x="265" y="360" on="1"/>
        <pt x="368" y="212" on="1"/>
        <pt x="388" y="261" on="0"/>
        <pt x="406" y="388" on="1"/>
        <pt x="491" y="376" on="1"/>
        <pt x="473" y="229" on="0"/>
        <pt x="426" y="138" on="1"/>
        <pt x="498" y="44" on="1"/>
        <pt x="429" y="-10" on="1"/>
        <pt x="400" y="26" on="0"/>
        <pt x="373" y="65" on="1"/>
        <pt x="304" y="-10" on="0"/>
        <pt x="108" y="-10" on="0"/>
        <pt x="4" y="94" on="0"/>
      </contour>
      <contour>
        <pt x="316" y="522" on="1"/>
        <pt x="316" y="584" on="0"/>
        <pt x="188" y="584" on="0"/>
        <pt x="188" y="525" on="1"/>
        <pt x="188" y="495" on="0"/>
        <pt x="202" y="454" on="0"/>
        <pt x="224" y="424" on="1"/>
        <pt x="276" y="445" on="0"/>
        <pt x="316" y="490" on="0"/>
      </contour>
      <contour>
        <pt x="95" y="197" on="1"/>
        <pt x="95" y="131" on="0"/>
        <pt x="147" y="71" on="0"/>
        <pt x="205" y="71" on="1"/>
        <pt x="280" y="71" on="0"/>
        <pt x="325" y="132" on="1"/>
        <pt x="179" y="339" on="1"/>
        <pt x="95" y="297" on="0"/>
      </contour>
    </TTGlyph>
    <TTGlyph name="ampersand.alt" xMin="17" yMin="-9" xMax="488" yMax="665">
      <contour>
        <pt x="154" y="395" on="1"/>
        <pt x="488" y="395" on="1"/>
        <pt x="488" y="344" on="1"/>
        <pt x="431" y="344" on="1"/>
        <pt x="431" y="13" on="1"/>
        <pt x="328" y="-9" on="0"/>
        <pt x="223" y="-9" on="1"/>
        <pt x="17" y="-9" on="0"/>
        <pt x="17" y="199" on="1"/>
        <pt x="17" y="271" on="0"/>
        <pt x="61" y="353" on="0"/>
        <pt x="105" y="376" on="1"/>
        <pt x="94" y="438" on="0"/>
        <pt x="94" y="464" on="1"/>
        <pt x="94" y="561" on="0"/>
        <pt x="172" y="665" on="0"/>
        <pt x="262" y="665" on="1"/>
        <pt x="302" y="665" on="0"/>
        <pt x="378" y="652" on="1"/>
        <pt x="371" y="600" on="1"/>
        <pt x="310" y="613" on="0"/>
        <pt x="262" y="613" on="1"/>
        <pt x="196" y="613" on="0"/>
        <pt x="147" y="535" on="0"/>
        <pt x="147" y="460" on="1"/>
        <pt x="147" y="439" on="0"/>
      </contour>
      <contour>
        <pt x="378" y="57" on="1"/>
        <pt x="378" y="344" on="1"/>
        <pt x="177" y="344" on="1"/>
        <pt x="72" y="344" on="0"/>
        <pt x="72" y="199" on="1"/>
        <pt x="77" y="115" on="0"/>
        <pt x="112" y="79" on="1"/>
        <pt x="148" y="43" on="0"/>
        <pt x="296" y="43" on="0"/>
      </contour>
    </TTGlyph>
    <TTGlyph name="ampersand.calt" xMin="20" yMin="-10" xMax="493" yMax="665">
      <contour>
        <pt x="20" y="195" on="1"/>
        <pt x="20" y="325" on="0"/>
        <pt x="124" y="364" on="1"/>
        <pt x="71" y="406" on="0"/>
        <pt x="71" y="491" on="1"/>
        <pt x="71" y="665" on="0"/>
        <pt x="277" y="665" on="1"/>
        <pt x="334" y="665" on="0"/>
        <pt x="388" y="654" on="1"/>
        <pt x="407" y="650" on="1"/>
        <pt x="386" y="557" on="1"/>
        <pt x="322" y="573" on="0"/>
        <pt x="223" y="573" on="0"/>
        <pt x="177" y="532" on="0"/>
        <pt x="177" y="430" on="0"/>
        <pt x="208" y="398" on="1"/>
        <pt x="493" y="398" on="1"/>
        <pt x="493" y="307" on="1"/>
        <pt x="424" y="307" on="1"/>
        <pt x="424" y="16" on="1"/>
        <pt x="331" y="-10" on="0"/>
        <pt x="242" y="-10" on="1"/>
        <pt x="123" y="-10" on="0"/>
        <pt x="20" y="90" on="0"/>
      </contour>
      <contour>
        <pt x="175" y="307" on="0"/>
        <pt x="127" y="255" on="0"/>
        <pt x="127" y="133" on="0"/>
        <pt x="177" y="82" on="0"/>
        <pt x="245" y="82" on="1"/>
        <pt x="287" y="82" on="0"/>
        <pt x="320" y="92" on="1"/>
        <pt x="320" y="307" on="1"/>
        <pt x="229" y="307" on="1"/>
      </contour>
    </TTGlyph>
    <TTGlyph name="aogonek" xMin="40" yMin="-270" xMax="446" yMax="483">
      <contour>
        <pt x="200" y="-11" on="1"/>
        <pt x="40" y="-11" on="0"/>
        <pt x="40" y="141" on="1"/>
        <pt x="40" y="222" on="0"/>
        <pt x="143" y="287" on="0"/>
        <pt x="234" y="287" on="1"/>
        <pt x="277" y="287" on="0"/>
        <pt x="332" y="282" on="1"/>
        <pt x="332" y="342" on="0"/>
        <pt x="298" y="386" on="0"/>
        <pt x="214" y="386" on="0"/>
        <pt x="102" y="366" on="0"/>
        <pt x="72" y="356" on="1"/>
        <pt x="53" y="451" on="1"/>
        <pt x="158" y="483" on="0"/>
        <pt x="358" y="483" on="0"/>
        <pt x="435" y="395" on="0"/>
        <pt x="435" y="290" on="1"/>
        <pt x="435" y="87" on="1"/>
        <pt x="446" y="-1" on="1"/>
        <pt x="380" y="-50" on="0"/>
        <pt x="336" y="-108" on="0"/>
        <pt x="336" y="-160" on="0"/>
        <pt x="360" y="-192" on="0"/>
        <pt x="412" y="-192" on="0"/>
        <pt x="435" y="-188" on="1"/>
        <pt x="445" y="-263" on="1"/>
        <pt x="401" y="-270" on="0"/>
        <pt x="374" y="-270" on="1"/>
        <pt x="324" y="-270" on="0"/>
        <pt x="249" y="-203" on="0"/>
        <pt x="249" y="-67" on="0"/>
        <pt x="340" y="0" on="1"/>
        <pt x="333" y="35" on="1"/>
        <pt x="249" y="-11" on="0"/>
      </contour>
      <contour>
        <pt x="216" y="86" on="1"/>
        <pt x="244" y="86" on="0"/>
        <pt x="312" y="112" on="0"/>
        <pt x="332" y="128" on="1"/>
        <pt x="332" y="198" on="1"/>
        <pt x="272" y="203" on="0"/>
        <pt x="234" y="203" on="1"/>
        <pt x="151" y="203" on="0"/>
        <pt x="151" y="141" on="1"/>
        <pt x="151" y="86" on="0"/>
      </contour>
    </TTGlyph>
    <TTGlyph name="aogonek.sc" xMin="32" yMin="-270" xMax="465" yMax="517">
      <contour>
        <pt x="32" y="0" on="1"/>
        <pt x="157" y="517" on="1"/>
        <pt x="338" y="517" on="1"/>
        <pt x="465" y="0" on="1"/>
        <pt x="400" y="-49" on="0"/>
        <pt x="355" y="-108" on="0"/>
        <pt x="355" y="-160" on="0"/>
        <pt x="367" y="-176" on="1"/>
        <pt x="380" y="-192" on="0"/>
        <pt x="432" y="-192" on="0"/>
        <pt x="454" y="-188" on="1"/>
        <pt x="464" y="-263" on="1"/>
        <pt x="420" y="-270" on="0"/>
        <pt x="393" y="-270" on="1"/>
        <pt x="343" y="-270" on="0"/>
        <pt x="268" y="-203" on="0"/>
        <pt x="268" y="-135" on="1"/>
        <pt x="268" y="-56" on="0"/>
        <pt x="357" y="5" on="1"/>
        <pt x="337" y="93" on="1"/>
        <pt x="158" y="93" on="1"/>
        <pt x="136" y="0" on="1"/>
      </contour>
      <contour>
        <pt x="318" y="183" on="1"/>
        <pt x="263" y="428" on="1"/>
        <pt x="232" y="428" on="1"/>
        <pt x="177" y="183" on="1"/>
      </contour>
    </TTGlyph>
    <TTGlyph name="approxequal" xMin="31" yMin="77" xMax="468" yMax="425">
      <contour>
        <pt x="399" y="408" on="1"/>
        <pt x="465" y="358" on="1"/>
        <pt x="398" y="269" on="0"/>
        <pt x="333" y="269" on="1"/>
        <pt x="294" y="270" on="0"/>
        <pt x="183" y="336" on="0"/>
        <pt x="170" y="336" on="1"/>
        <pt x="133" y="336" on="0"/>
        <pt x="90" y="283" on="1"/>
        <pt x="31" y="335" on="1"/>
        <pt x="101" y="425" on="0"/>
        <pt x="169" y="425" on="1"/>
        <pt x="209" y="425" on="0"/>
        <pt x="260" y="393" on="1"/>
        <pt x="312" y="361" on="0"/>
        <pt x="348" y="361" on="0"/>
        <pt x="378" y="383" on="0"/>
      </contour>
      <contour>
        <pt x="402" y="216" on="1"/>
        <pt x="468" y="166" on="1"/>
        <pt x="401" y="77" on="0"/>
        <pt x="336" y="77" on="1"/>
        <pt x="297" y="78" on="0"/>
        <pt x="186" y="144" on="0"/>
        <pt x="173" y="144" on="1"/>
        <pt x="136" y="144" on="0"/>
        <pt x="93" y="91" on="1"/>
        <pt x="34" y="143" on="1"/>
        <pt x="104" y="233" on="0"/>
        <pt x="172" y="233" on="1"/>
        <pt x="212" y="233" on="0"/>
        <pt x="314" y="169" on="0"/>
        <pt x="350" y="169" on="0"/>
        <pt x="381" y="191" on="0"/>
      </contour>
    </TTGlyph>
    <TTGlyph name="aring" xMin="40" yMin="-11" xMax="446" yMax="739">
      <contour>
        <pt x="216" y="86" on="1"/>
        <pt x="244" y="86" on="0"/>
        <pt x="312" y="112" on="0"/>
        <pt x="332" y="128" on="1"/>
        <pt x="332" y="198" on="1"/>
        <pt x="272" y="203" on="0"/>
        <pt x="234" y="203" on="1"/>
        <pt x="151" y="203" on="0"/>
        <pt x="151" y="141" on="1"/>
        <pt x="151" y="86" on="0"/>
      </contour>
      <contour>
        <pt x="200" y="-11" on="1"/>
        <pt x="40" y="-11" on="0"/>
        <pt x="40" y="141" on="1"/>
        <pt x="40" y="222" on="0"/>
        <pt x="143" y="287" on="0"/>
        <pt x="234" y="287" on="1"/>
        <pt x="277" y="287" on="0"/>
        <pt x="332" y="282" on="1"/>
        <pt x="332" y="342" on="0"/>
        <pt x="298" y="386" on="0"/>
        <pt x="214" y="386" on="0"/>
        <pt x="102" y="366" on="0"/>
        <pt x="72" y="356" on="1"/>
        <pt x="53" y="451" on="1"/>
        <pt x="158" y="483" on="0"/>
        <pt x="357" y="483" on="0"/>
        <pt x="435" y="395" on="0"/>
        <pt x="435" y="290" on="1"/>
        <pt x="435" y="87" on="1"/>
        <pt x="446" y="-1" on="1"/>
        <pt x="343" y="-11" on="1"/>
        <pt x="333" y="35" on="1"/>
        <pt x="249" y="-11" on="0"/>
      </contour>
      <contour>
        <pt x="303" y="739" on="0"/>
        <pt x="369" y="679" on="0"/>
        <pt x="369" y="578" on="0"/>
        <pt x="303" y="518" on="0"/>
        <pt x="196" y="518" on="0"/>
        <pt x="130" y="578" on="0"/>
        <pt x="130" y="679" on="0"/>
        <pt x="196" y="739" on="0"/>
      </contour>
      <contour>
        <pt x="199" y="673" on="0"/>
        <pt x="199" y="583" on="0"/>
        <pt x="299" y="583" on="0"/>
        <pt x="299" y="673" on="0"/>
      </contour>
    </TTGlyph>
    <TTGlyph name="aring.sc" xMin="32" yMin="0" xMax="465" yMax="752">
      <contour>
        <pt x="32" y="0" on="1"/>
        <pt x="155" y="507" on="1"/>
        <pt x="346" y="507" on="1"/>
        <pt x="465" y="0" on="1"/>
        <pt x="358" y="0" on="1"/>
        <pt x="337" y="93" on="1"/>
        <pt x="158" y="93" on="1"/>
        <pt x="136" y="0" on="1"/>
      </contour>
      <contour>
        <pt x="318" y="183" on="1"/>
        <pt x="266" y="418" on="1"/>
        <pt x="235" y="418" on="1"/>
        <pt x="177" y="183" on="1"/>
      </contour>
      <contour>
        <pt x="202" y="531" on="0"/>
        <pt x="136" y="591" on="0"/>
        <pt x="136" y="692" on="0"/>
        <pt x="202" y="752" on="0"/>
        <pt x="309" y="752" on="0"/>
        <pt x="375" y="692" on="0"/>
        <pt x="375" y="591" on="0"/>
        <pt x="309" y="531" on="0"/>
      </contour>
      <contour>
        <pt x="305" y="596" on="0"/>
        <pt x="305" y="686" on="0"/>
        <pt x="205" y="686" on="0"/>
        <pt x="205" y="596" on="0"/>
      </contour>
    </TTGlyph>
    <TTGlyph name="aringacute" xMin="40" yMin="-11" xMax="446" yMax="920">
      <contour>
        <pt x="138" y="819" on="1"/>
        <pt x="319" y="920" on="1"/>
        <pt x="361" y="842" on="1"/>
        <pt x="177" y="755" on="1"/>
      </contour>
      <contour>
        <pt x="216" y="86" on="1"/>
        <pt x="244" y="86" on="0"/>
        <pt x="312" y="112" on="0"/>
        <pt x="332" y="128" on="1"/>
        <pt x="332" y="198" on="1"/>
        <pt x="272" y="203" on="0"/>
        <pt x="234" y="203" on="1"/>
        <pt x="151" y="203" on="0"/>
        <pt x="151" y="141" on="1"/>
        <pt x="151" y="86" on="0"/>
      </contour>
      <contour>
        <pt x="200" y="-11" on="1"/>
        <pt x="40" y="-11" on="0"/>
        <pt x="40" y="141" on="1"/>
        <pt x="40" y="222" on="0"/>
        <pt x="143" y="287" on="0"/>
        <pt x="234" y="287" on="1"/>
        <pt x="277" y="287" on="0"/>
        <pt x="332" y="282" on="1"/>
        <pt x="332" y="342" on="0"/>
        <pt x="298" y="386" on="0"/>
        <pt x="214" y="386" on="0"/>
        <pt x="102" y="366" on="0"/>
        <pt x="72" y="356" on="1"/>
        <pt x="53" y="451" on="1"/>
        <pt x="158" y="483" on="0"/>
        <pt x="357" y="483" on="0"/>
        <pt x="435" y="395" on="0"/>
        <pt x="435" y="290" on="1"/>
        <pt x="435" y="87" on="1"/>
        <pt x="446" y="-1" on="1"/>
        <pt x="343" y="-11" on="1"/>
        <pt x="333" y="35" on="1"/>
        <pt x="249" y="-11" on="0"/>
      </contour>
      <contour>
        <pt x="303" y="734" on="0"/>
        <pt x="369" y="674" on="0"/>
        <pt x="369" y="573" on="0"/>
        <pt x="303" y="513" on="0"/>
        <pt x="196" y="513" on="0"/>
        <pt x="130" y="573" on="0"/>
        <pt x="130" y="674" on="0"/>
        <pt x="196" y="734" on="0"/>
      </contour>
      <contour>
        <pt x="199" y="668" on="0"/>
        <pt x="199" y="578" on="0"/>
        <pt x="299" y="578" on="0"/>
        <pt x="299" y="668" on="0"/>
      </contour>
    </TTGlyph>
</ttFont>
